<svg xmlns="http://www.w3.org/2000/svg" width="1792.838" height="471.834" viewBox="0 0 1792.838 471.834">
  <g id="Group_53" data-name="Group 53" transform="translate(-63.914 -4745.494)">
    <path id="Path_114" data-name="Path 114" d="M330.279,5093.34c-32.759,9.832-58.855,14.814-77.606,14.814a199.211,199.211,0,0,1-86.507-19.87c-27.421-13.106-49.9-33.047-66.8-59.273-16.889-26.184-25.452-58.8-25.452-96.934A200.776,200.776,0,0,1,93,4846.337c12.556-26.837,32.387-48.927,58.94-65.655,26.568-16.732,60.278-25.215,100.2-25.215,25.392,0,52.17,5.074,79.644,15.086v113.973c-20.2-17.633-42.8-26.559-67.321-26.559-20.479,0-37.919,6.383-51.839,18.97-14.068,12.716-21.2,30.727-21.2,53.534a82.19,82.19,0,0,0,16.815,50.7c11.478,15.181,29.134,22.878,52.474,22.878,24,0,48.487-9,72.913-26.76Zm136.142,5.35q-19.827,17.139-46.609,17.144-27.32,0-46.875-16.875t-19.554-40.448q0-23.567,19.554-40.45t46.875-16.875q26.785,0,46.609,17.144t19.824,40.181Q486.245,5081.551,466.421,5098.69ZM690.99,4866.539H626.346a5,5,0,0,0-5,5v228.04H507.06v-228.04a5,5,0,0,0-5-5H437.414V4762.432H690.99Zm212.655,233.042-59.127-111.453a5,5,0,0,0-9.42,2.345v109.108H722.418V4762.432H869.564c30.658,0,56.826,4.037,77.778,12,20.466,7.786,36.13,20.174,46.556,36.819,10.516,16.795,15.847,38.7,15.847,65.114,0,41.864-20.757,68.691-63.455,82.015a5,5,0,0,0-2.7,7.506l87.107,133.7ZM1109.4,5159.14l-.2-.309h.2Zm.991,1.521-.538-.826h.538Zm65.967-61.08H1059.926V4762.432h116.431Zm197.321,0H1213.139V4762.432h161.073c34.415,0,61.684,7.58,81.052,22.529,19.239,14.856,28.592,34.064,28.592,58.722,0,22.315-4.149,38.944-12.332,49.423-8.325,10.655-21.848,19.675-40.2,26.809a5,5,0,0,0,.591,9.513c44.681,11.256,66.4,35.6,66.4,74.438C1498.322,5068.273,1457.55,5099.581,1373.678,5099.581Zm378.038,0H1527.07V4762.432h222.5v84.821H1644.749a5,5,0,0,0-5,5v33.216a5,5,0,0,0,5,5h94.108V4969.4h-94.108a5,5,0,0,0-5,5v36.43a5,5,0,0,0,5,5h106.967Z" fill="#fff"/>
    <path id="Path_115" data-name="Path 115" d="M1324.389,4892.645h27.324c18.426,0,28.573-10.718,28.573-30.18,0-8.968-2.65-15.824-7.885-20.387-5.03-4.366-11.631-6.58-19.619-6.58h-28.393a5,5,0,0,0-5,5v47.144A5,5,0,0,0,1324.389,4892.645Z" fill="lime"/>
    <path id="Path_116" data-name="Path 116" d="M1855.761,5112.324v-1h-.99v-1h-.99v-1h-.991v-1h-.99V5107.3h-.991v-1h-.99v-1h-.991v-1h-.99v-1h-.99v-1h-.991v-1h-.99v-1h-.991v-1h-.99v-1.005h-.991v-1h-.99v-1h-.991v-1h-.99v-1h-.991v-1.005h-.99v-1h-.991v-1h-.99v-1h-.991v-1h-.99v-1.005h-.991v-1H1831v-1h-.99v-1h-.991V5084.2h-.99v-1h-.99v-1h-.991v-1h-.99v-1h-.991v-1.005h-.99v-1h-.991v-1h-.99v-1h-.99v-.265h23.788v-88.929h-.991v-1h-.99v-1h-.991v-1h-.99v-1h-.99v-1h-.991v-1h-.99v-1h-.991v-1h-.99v-1h-.991v-1H1833v-1h-.99v-1h-.991v-1h-.99v-1h-.991v-1h-.99v-1h-.991v-1h-.99v-1h-.991v-1h-.99v-1h-.991v-1h-.99v-1.005h-.991v-1h-.99v-1h-.99v-1h-.991v-1h-.99v-1.005h-.991v-1h-.99v-1h-.991v-1h-.99v-1h-.99v-1.005h-.991v-1h-.99v-.065h44.389v-94.825h-.991v-1h-.99v-1h-.991v-1h-.99v-1h-.99v-1h-.991v-1h-.99v-1h-.991v-1h-.991v-1.005h-.99v-1h-.991v-1h-.99v-1h-.991v-1h-.99v-1.005h-.99v-1h-.991v-1h-.99v-1h-.991v-1h-.99v-1h-.991v-1h-.99v-1h-.99v-1h-.991v-1h-.99v-1h-.99v-1h-.991v-1h-.99V4831.8h-.991v-1h-.99v-1h-.991v-1h-.99v-1h-.99v-1.005h-.991v-1h-.99v-1h-.991v-1h-.99v-1.005h-.991v-1h-.99v-1h-.991v-1h-.99v-1H1814v-1.005h-.99v-1h-.991v-1h-.99v-1h-.991v-1h-.99v-1h-.991v-1h-.99v-1h-.99v-1h-.991v-1h-.99v-1h-.99v-1h-.991v-1h-.99v-1.005h-.991v-1h-.99v-1h-.991v-1h-.99v-1h-.99v-1h-.991v-1h-.99v-1h-.991v-1h-.99v-1.005h-.99v-1h-.991v-1h-.99v-1h-.991v-1h-.99v-1.005h-.991v-1h-.99v-1h-.991v-1h-.99v-1h-.991v-1.005h-.99v-1h-.991v-1h-.99v-1h-.991v-1.005h-.99v-1h-.99v-1h-.991v-1h-.99v-1h-.991v-1.005h-.99v-1h-.991v-1h-.99v-1h-.99v-1h-.991v-1h-.99v-1h-.99v-1h-.991v-1h-.99v-1h-.991v-1h-.99v-1h-.991v-1h-.99v-1.005h-.942v-6.027a5,5,0,0,0-5-5H1522.068a5,5,0,0,0-5,5v82.024c-.261-.267-.528-.53-.787-.8-.319-.341-.664-.669-.99-1.006s-.664-.667-.991-1-.665-.668-.991-1.006-.664-.666-.989-1-.665-.668-.992-1-.663-.667-.989-1-.665-.669-.992-1.006-.664-.667-.99-1-.663-.667-.989-1-.665-.668-.992-1-.664-.668-.99-1-.664-.667-.991-1-.663-.667-.989-1-.665-.668-.991-1-.664-.668-.991-1-.664-.668-.99-1.005-.664-.667-.99-1-.664-.669-.991-1.006-.664-.667-.99-1-.664-.668-.991-1-.664-.667-.989-1-.665-.668-.992-1-.664-.668-.991-1-.663-.667-.989-1-.665-.669-.991-1.006-.664-.667-.99-1-.665-.668-.992-1.006-.663-.666-.989-1-.665-.668-.991-1c-.23-.246-.474-.484-.714-.724-5.4-12.185-13.883-22.813-25.466-31.756-21.16-16.333-50.486-24.615-87.165-24.615H1208.137a5,5,0,0,0-5,5v22.1h-.977v-1h-.99v-1h-.991v-1.005h-.99v-1h-.991v-1h-.99v-1h-.99v-1h-.991v-1h-.99v-1h-.99v-1h-.991v-1h-.99v-1h-.991v-1h-.99v-1h-.991v-1h-.99v-1.005h-.941v-6.027a5,5,0,0,0-5-5H1054.925a5,5,0,0,0-5,5v100.617c-.312-.322-.629-.641-.945-.959-.328-.339-.66-.672-.992-1.006s-.657-.669-.989-1-.659-.672-.991-1.006-.658-.67-.99-1-.66-.672-.992-1.006-.657-.67-.989-1-.659-.671-.991-1-.658-.671-.99-1-.659-.672-.991-1.006-.658-.67-.989-1-.66-.672-.992-1.005-.658-.671-.989-1-.66-.673-.992-1.007-.658-.67-.989-1-.66-.672-.991-1.006-.659-.671-.991-1-.659-.671-.991-1-.658-.671-.99-1-.658-.67-.989-1-.66-.672-.992-1.006-.659-.671-.99-1-.659-.671-.99-1-.659-.671-.99-1-.659-.671-.991-1.005-.659-.671-.991-1-.659-.671-.99-1-.658-.671-.99-1-.659-.672-.991-1-.659-.672-.99-1.005-.659-.671-.991-1-.659-.671-.99-1-.658-.671-.99-1-.66-.672-.992-1.006-.658-.67-.989-1-.659-.672-.991-1.006-.658-.67-.99-1-.659-.673-.992-1.006-.657-.671-.989-1-.659-.671-.991-1-.658-.671-.99-1-.659-.672-.991-1.006-.658-.67-.99-1c-.045-.046-.091-.091-.135-.137a96.338,96.338,0,0,0-4.868-8.82c-11.608-18.534-28.929-32.281-51.48-40.861-22.092-8.394-49.456-12.65-81.332-12.65H717.417a5,5,0,0,0-5,5v17.078h-.576v-1h-.991v-1h-.99v-1h-.991v-1h-.99v-1h-.991v-1h-.99v-1h-.99v-1h-.991v-1h-.99v-1h-.991v-1.005h-.94v-6.027a5,5,0,0,0-5-5H432.412a5,5,0,0,0-5,5v101.886l-.5-.183v-.641c-.331-.125-.659-.24-.99-.364v-.641c-.331-.125-.659-.24-.99-.363v-.642c-.332-.125-.66-.239-.991-.363v-.641c-.331-.125-.659-.24-.99-.364v-.641c-.332-.125-.66-.24-.991-.363v-.641c-.331-.125-.659-.24-.99-.364v-.641c-.331-.125-.66-.24-.991-.363v-.641c-.331-.125-.659-.24-.99-.364v-.641c-.331-.125-.66-.24-.99-.363v-.642c-.331-.125-.66-.239-.991-.363v-.641c-.331-.125-.66-.24-.99-.364v-.641c-.331-.125-.66-.24-.99-.363v-.641c-.332-.125-.661-.24-.991-.364v-.641c-.331-.125-.66-.24-.99-.363v-.642c-.332-.125-.661-.239-.991-.363v-.641c-.331-.125-.66-.24-.991-.364v-.641c-.33-.125-.66-.24-.99-.363v-.641c-.331-.125-.66-.24-.991-.364v-.641c-.33-.125-.659-.24-.99-.363v-.642c-.331-.125-.66-.239-.991-.363v-.641c-.33-.125-.659-.24-.99-.364v-.641c-.33-.125-.66-.24-.99-.363v-.641c-.331-.125-.66-.24-.991-.364v-.641c-.33-.125-.66-.24-.99-.363v-.641c-.331-.125-.66-.24-.991-.364v-.641c-.33-.125-.659-.24-.99-.363v-.642c-.331-.125-.66-.239-.991-.363v-.641c-.33-.125-.659-.24-.99-.364v-.641c-.331-.125-.659-.24-.99-.363v-.641c-.331-.125-.66-.24-.991-.364v-.641c-.331-.125-.659-.24-.99-.363v-.642c-.331-.125-.66-.239-.991-.363v-.641c-.331-.125-.659-.24-.99-.364v-.641c-.331-.125-.66-.24-.99-.363v-.641c-.332-.125-.66-.24-.991-.364v-.641c-.331-.125-.659-.24-.99-.363v-.642c-.331-.125-.66-.239-.991-.363v-.641c-.331-.125-.659-.24-.99-.363v-.642c-.331-.125-.66-.24-.99-.363v-.641c-.332-.125-.66-.24-.991-.364v-.641c-.331-.125-.66-.24-.99-.363v-.641c-.332-.125-.66-.24-.991-.364v-.641c-.331-.125-.66-.24-.99-.363v-.642c-.331-.125-.66-.239-.991-.363v-.641c-.331-.125-.66-.24-.99-.364v-.641c-.331-.125-.66-.24-.991-.363v-.641c-.33-.125-.66-.24-.99-.364v-.641c-.331-.125-.66-.24-.991-.363v-.642c-.33-.125-.66-.239-.99-.363v-.641c-.331-.125-.66-.24-.991-.364v-.641c-.33-.125-.66-.24-.99-.363v-.641c-.331-.125-.66-.24-.991-.364v-.641c-.33-.125-.659-.24-.99-.363v-.642c-.33-.125-.66-.239-.991-.363v-.641c-.33-.125-.659-.24-.99-.363v-.642c-.33-.125-.659-.24-.99-.363v-.641c-.331-.125-.66-.24-.991-.364v-.641c-.33-.125-.659-.24-.99-.363v-.641c-.331-.125-.66-.24-.991-.364v-.641c-.33-.125-.659-.24-.99-.363v-.642c-.331-.125-.66-.239-.99-.363v-.641c-.331-.125-.66-.24-.991-.364v-.641c-.331-.125-.659-.24-.99-.363v-.641c-.331-.125-.66-.24-.991-.364v-.641c-.331-.125-.659-.24-.99-.363v-.642c-.331-.125-.659-.239-.99-.363v-.641c-.332-.125-.66-.24-.991-.364v-.641c-.331-.125-.659-.24-.99-.363v-.641c-.332-.125-.66-.24-.991-.364v-.641c-.331-.125-.659-.24-.99-.363v-.642c-.331-.125-.66-.239-.991-.363v-.641c-.331-.125-.659-.24-.99-.363v-.642c-.331-.125-.66-.24-.99-.363v-.641c-.331-.125-.66-.24-.991-.364v-.641c-.331-.125-.66-.24-.99-.363v-.641c-.331-.125-.66-.24-.991-.364v-.641c-.331-.125-.66-.24-.99-.363v-.642c-.331-.125-.66-.239-.991-.363v-.641c-.331-.125-.66-.24-.99-.364v-.641c-.331-.125-.66-.24-.991-.363v-.641c-.33-.125-.66-.24-.99-.364v-.641c-.331-.125-.66-.24-.991-.363v-.642c-.33-.125-.659-.239-.99-.363v-.641c-.33-.125-.66-.24-.991-.364v-.641c-.33-.125-.659-.239-.99-.363v-.641c-.314-.119-.627-.229-.941-.346V4767.1a5,5,0,0,0-3.234-4.679c-29.74-11.235-58.813-16.932-86.413-16.932-41.834,0-77.338,9-105.526,26.754s-49.289,41.279-62.669,69.88a210.68,210.68,0,0,0-20.027,89.98c0,40.092,9.1,74.529,27.048,102.354a172.154,172.154,0,0,0,55.177,54.353q.171.173.341.347c.328.337.659.669.989,1s.662.672.993,1.007.659.669.988,1,.661.671.992,1.006.659.669.989,1,.662.672.993,1.007.659.67.99,1,.658.669.988,1,.661.671.992,1.006.66.67.991,1,.66.671.991,1,.658.669.988,1,.661.671.992,1.006.66.67.99,1,.66.67.991,1,.659.67.989,1,.66.671.992,1.006.659.669.989,1,.661.672.993,1.007.658.669.989,1,.659.67.989,1,.661.671.992,1.005.659.671.99,1,.66.67.991,1,.659.669.989,1,.661.671.991,1.006.66.67.991,1,.66.671.99,1,.66.669.99,1,.661.671.991,1.006.66.67.991,1.005.66.67.99,1,.659.67.989,1,.661.671.992,1,.66.671.991,1.006.659.669.989,1,.66.672.992,1.006.658.67.988,1,.662.672.993,1.007.659.668.988,1,.661.671.992,1.006.659.669.989,1,.662.672.993,1.007.658.669.988,1,.661.671.992,1.006.659.669.989,1,.662.672.993,1.007.658.669.988,1,.66.672.992,1.006.659.67.99,1,.66.67.99,1,.66.671.991,1,.659.669.989,1,.661.672.992,1.006.659.67.99,1,.66.67.99,1,.66.67.99,1,.661.671.991,1.006.66.67.991,1,.66.671.99,1,.66.669.99,1,.66.671.991,1.006.66.67.991,1,.66.671.99,1,.66.67.991,1,.659.669.989,1,.661.672.993,1.007.658.669.988,1,.66.671.992,1.006.658.669.988,1,.662.672.993,1.007a163.831,163.831,0,0,0,47.242,33.8,203.235,203.235,0,0,0,88.663,20.358q30,0,82.5-16.072l1.011-35.088c.065.067.135.132.2.2.323.337.658.67.99,1s.659.672.993,1.006.656.67.988,1,.658.671.991,1.006.658.67.99,1,.658.671.991,1,.658.67.99,1,.658.67.991,1,.658.671.99,1,.658.671.991,1,.658.671.99,1,.658.67.99,1,.658.672.991,1.006.658.671.991,1,.658.67.99,1,.657.67.99,1,.658.671.991,1,.658.671.991,1,.657.67.99,1,.658.671.991,1,.656.67.989,1,.659.671.992,1.006.656.669.989,1,.658.671.991,1,.657.67.989,1,.66.672.993,1.006.656.67.988,1,.659.671.992,1.006.657.67.989,1,.659.672.993,1.007.656.669.988,1,.658.671.991,1c1.506,1.578,3.119,3.119,4.857,4.618q19.548,16.872,46.875,16.875,26.784,0,46.608-17.144a61.045,61.045,0,0,0,13.849-16.69v.482h.99v1h.99v1h.991v1.005h.99v1h.991v1h.99v1h.991v1h.99v1.005h.99v1h.991v1h.99v1h.99v1h.991v1.005h.99v1h.991v1h.99v1h.991v1h.99v1h.99v1h.991v1h.99v1.005h.991v1H726.38v-92.422h.941v1.005h.991v1h.99v1h.99v1h.991v1.005h.99v1h.99v1h.991v1h.99v1h.991v1.005h.99v1h.991v1h.99v1h.99v1h.991v1h.99v1h.991v1h.99v1h.991v1h.99v1h.991v1h.99v1h.991v1.005h.99v1h.991v1h.99v1h.991v1h.99v1.005h.991v1h.99v1h.99v1h.991v1h.99v1h.99v1H761v1h.99v1h.991v1.005h.99v1h.991v1h.99v1h.99v1h.991v1.005h.99v1h.99v1h.991v1h.99v1.005h.991v1h.99v1h.991v1h.99v1h.991v1.005h.99v1h.991v1h.99v1h.991v1h.99v1h.991v1h.99v1h.991v1h.99v1h.99v1h.991v1h.99v1h.991v1.005h.99v1h.991v1h.99v1h.99v1h.991v1.005h.99v1h.99v1h.991v1h.99v1.005h.991v1h.99v1h.991v1h.99v1h.99v1.005h.991v1h.99v1h.991v1h.991v1h.99v1.005h.991v1h.99v1h.991v1h.99v1h.99v1h.991v1h.99v1h.991v1.005h.99v1H940.134v-61.506l.12.226h.457l.533,1h.458l.532,1h.458l.533,1h.458l.532,1h.458l.533,1h.457l.533,1.005h.458l.533,1h.457l.533,1h.457l.533,1h.458l.533,1h.457l.533,1.005h.458l.532,1h.458l.533,1h.458l.532,1h.458l.533,1.005h.457l.533,1h.458l.533,1h.457l.533,1h.458l.533,1h.457l.533,1.005h.457l.534,1h.457l.533,1h.457l.534,1h.457l.533,1h.458l.533,1h.457l.533,1h.458l.533,1h.457l.533,1h.458l.532,1h.458l.533,1h.458l.532,1h.458l.533,1h.457l.533,1.005h.458l.532,1h.458l.533,1h.457l.533,1h.458l.533,1h.457l.533,1.005h.458l.532,1h.458l.533,1h.458l.532,1h.458l.533,1.005h.457l.533,1h.458l.533,1h.457l.533,1h.457l.533,1h.458l.533,1.005h.457l.533,1h.458l.533,1h.457l.533,1h.458l.533,1h.457l.533,1.005h.458l.533,1h.457l.533,1h.458l.533,1h.457l.533,1h.458l.533,1h.457l.533,1h.458l.533,1h.457l.533,1.005h.458l.532,1h139.289l-29.452-45.206h.873v1h.99v1h.991v1h.99v1.005h.991v1h.99v1h.991v1h.99v1h.991v1h.99v1h.991v1h.99v1h.991v1h.99v1h.991v1h.99v1h.99v1.005h.991v1h.99v1h.991v1h.99v1h.99v1.005h.991v1h.99v1h.991v1h.99v1.005h.991v1h.99v1h.99v1h.991v1h.99v1.005h.99v1h.991v1h.99v1h.991v1h.99v1.005h.991v1h.99v1h.991v1h.99v1H1151v1h.99v1h.991v1h.99v1.005h.991v1h126.434v-28.128h.035v1h.991v1h.99v1h.991v1h.99v1.005h.991v1h.99v1h.991v1h.99v1.005h.991v1h.99v1h.99v1h.991v1h.99v1.005h.991v1h.99v1h.99v1h.991v1h.99v1.005h.991v1h.99v1h.991v1h.99v1h.99v1h.991v1h.99v1h.99v1.005h.991v1h165.541q80.181,0,110.754-38.541v.367h.991v1h.99v1h.991v1h.99v1h.991v1h.99v1h.99v1h.991v1h.99v1h.99v1.005h.991v1h.99v1h.991v1h.99v1h.991v1.005h.99v1h.99v1h.991v1h.99v1.005h.991v1h.99v1h.99v1h.991v1h.99v1.005h.991v1h.99v1h.991v1h.99v1h.991v1.005h.99v1h.991v1h.99v1h.991v1h.99v1h.991v1h.99v1h.99v1.005h.991v1h234.649v-93.753ZM330.279,5093.371c-32.759,9.831-58.855,14.813-77.606,14.813a199.2,199.2,0,0,1-86.507-19.87c-27.421-13.1-49.9-33.047-66.8-59.272-16.889-26.184-25.452-58.8-25.452-96.934A200.771,200.771,0,0,1,93,4846.368c12.556-26.838,32.387-48.927,58.94-65.655,26.568-16.732,60.278-25.216,100.2-25.216,25.392,0,52.17,5.075,79.644,15.087v113.973c-20.2-17.633-42.8-26.559-67.321-26.559-20.479,0-37.919,6.382-51.839,18.97-14.068,12.716-21.2,30.727-21.2,53.534a82.192,82.192,0,0,0,16.815,50.7c11.478,15.181,29.134,22.878,52.474,22.878,24,0,48.487-9,72.913-26.76Zm136.142,5.35q-19.827,17.139-46.609,17.144-27.32,0-46.875-16.875t-19.554-40.448q0-23.568,19.554-40.45t46.875-16.875q26.785,0,46.609,17.144t19.824,40.181Q486.245,5081.582,466.421,5098.721ZM690.99,4866.57H626.346a5,5,0,0,0-5,5v228.04H507.06v-228.04a5,5,0,0,0-5-5H437.414V4762.463H690.99Zm212.655,233.042-59.127-111.453a5,5,0,0,0-9.42,2.344v109.109H722.418V4762.463H869.564c30.658,0,56.826,4.036,77.778,12,20.466,7.786,36.13,20.174,46.556,36.819,10.516,16.8,15.847,38.7,15.847,65.114,0,41.864-20.757,68.691-63.455,82.015a5,5,0,0,0-2.7,7.5l87.107,133.7Zm205.754,59.559-.2-.31h.2Zm.991,1.52-.538-.825h.538Zm65.967-61.079H1059.926V4762.463h116.431Zm197.321,0H1213.139V4762.463h161.073c34.415,0,61.684,7.58,81.052,22.529,19.239,14.856,28.592,34.064,28.592,58.722,0,22.315-4.149,38.944-12.332,49.423-8.325,10.655-21.848,19.674-40.2,26.809a5,5,0,0,0,.591,9.512c44.681,11.256,66.4,35.606,66.4,74.439C1498.322,5068.3,1457.55,5099.612,1373.678,5099.612Zm378.038,0H1527.07V4762.463h222.5v84.821H1644.749a5,5,0,0,0-5,5V4885.5a5,5,0,0,0,5,5h94.108v78.926h-94.108a5,5,0,0,0-5,5v36.429a5,5,0,0,0,5,5h106.967Z" fill="lime"/>
    <path id="Path_117" data-name="Path 117" d="M865.813,4841.391H840.1a5,5,0,0,0-5,5v68.574a5,5,0,0,0,5,5h21.428c26.052,0,39.824-14.513,39.824-41.969a36.866,36.866,0,0,0-9.883-25.608C884.788,4845.092,876.157,4841.391,865.813,4841.391Z" fill="lime"/>
    <path id="Path_118" data-name="Path 118" d="M1353.319,4959.25h-28.93a5,5,0,0,0-5,5v54.11a5,5,0,0,0,5,5h31.072c21.535,0,33.4-11.478,33.4-32.322C1388.857,4976.538,1382.692,4959.25,1353.319,4959.25Z" fill="lime"/>
  </g>
</svg>
