<svg xmlns="http://www.w3.org/2000/svg" width="125.31" height="82.75" viewBox="0 0 125.31 82.75">
  <g id="Group_7" data-name="Group 7" transform="translate(-587.056 -371.136)">
    <path id="Path_30" data-name="Path 30" d="M673.644,384.986a1.639,1.639,0,0,1,1.379-.414,2.789,2.789,0,0,0,.343.025.781.781,0,0,1,.648.309,3.565,3.565,0,0,0,2.348,1.183c.074.014.153.008.229.019a2.21,2.21,0,0,1,1.689.841,1.555,1.555,0,0,0,.33.317.807.807,0,0,0,.464.208c.133.006.285.027.368-.1.1-.155-.043-.249-.137-.33a6.975,6.975,0,0,1-.82-.88,2.205,2.205,0,0,0-1.417-.8c-.435-.065-.87-.131-1.3-.207a2.22,2.22,0,0,1-.495-.139,1.48,1.48,0,0,1-.912-1.462,2.291,2.291,0,0,1,.422-1.228.54.54,0,0,1,.532-.253,5.092,5.092,0,0,1,.9.16c.055.013.1.047.159.065.213.071.4.044.4-.057,0-.162-.129-.229-.244-.286a2.325,2.325,0,0,0-.43-.155,6.385,6.385,0,0,0-2.158-.2,1.712,1.712,0,0,0-.814.246,2.522,2.522,0,0,1-.515.249,1.075,1.075,0,0,0-.438.265,1.375,1.375,0,0,1-1.32.342,5.245,5.245,0,0,1-.667-.166,4.326,4.326,0,0,0-.275-1.037,2.012,2.012,0,0,1-.09-.781,2.457,2.457,0,0,0,1.142.343.522.522,0,0,0,.416-.147,15.6,15.6,0,0,0,1.254-1.089.45.45,0,0,1,.413-.155,1.841,1.841,0,0,1,.819.236,1.141,1.141,0,0,0,.454.235.081.081,0,0,0,.1-.1.683.683,0,0,0-.126-.251,1.506,1.506,0,0,0-.889-.492,1.363,1.363,0,0,0-1.29.252c-.256.244-.606.39-.87.646a.575.575,0,0,1-.736.1c-.25-.139-.508-.261-.762-.391l-.06-.133.038-1.15a.559.559,0,0,1,.11.031,1.284,1.284,0,0,0,1.529-.256,5.389,5.389,0,0,0,.57-.48,1.52,1.52,0,0,1,1.358-.456,1.644,1.644,0,0,1,.445.1,1.39,1.39,0,0,0,1.05-.118c.022-.009.03-.064.036-.1,0-.012-.015-.031-.027-.043a.354.354,0,0,0-.265-.088,4.013,4.013,0,0,1-.964-.12,8.423,8.423,0,0,0-.907-.131,1.188,1.188,0,0,0-.957.3c-.295.283-.683.418-.99.679a.629.629,0,0,1-.6.118c-.092-.026-.185-.047-.277-.07a.3.3,0,0,0-.04-.107,9.348,9.348,0,0,1,.433-1.418l.1-.1a.359.359,0,0,0,.354-.14,4.268,4.268,0,0,1,1.174-.9.966.966,0,0,1,.653-.162,4.611,4.611,0,0,1,.507.083,5.066,5.066,0,0,0,1.076.137,2.091,2.091,0,0,0,.93-.245.189.189,0,0,0,.068-.146.107.107,0,0,0-.115-.1,4.951,4.951,0,0,1-.741,0c-.393-.074-.789-.128-1.175-.239a1.546,1.546,0,0,0-.676-.087c-.34.052-.68.1-1.02.146a2.3,2.3,0,0,1,.581-.618c.148-.117.3-.236.443-.354a3.71,3.71,0,0,0,1.257-.021,1.657,1.657,0,0,0,1.034-.57c.05-.06.112-.131.07-.2s-.123-.079-.213-.132a2.894,2.894,0,0,1,1.338-.626,3.481,3.481,0,0,0,.547-.162,3.654,3.654,0,0,1,1.458-.268,12.859,12.859,0,0,1,1.607.039c.359.053.717.111,1.074.177a5.219,5.219,0,0,1,1.787.758c.65.4,1.283.835,1.96,1.2a4.3,4.3,0,0,1,.625.408,10.219,10.219,0,0,0,3.32,1.526,3.222,3.222,0,0,0,.624.084c.171.019.344.023.515.044a9.669,9.669,0,0,0,2.4,0c.55-.07,1.106-.089,1.66-.134.4-.032.8-.059,1.2-.106a8.947,8.947,0,0,1,1.949-.046,1.455,1.455,0,0,0,.287.013,3.948,3.948,0,0,1,1.78.385,1.829,1.829,0,0,1,.722.552,1,1,0,0,1,.222.861.873.873,0,0,1-.577.727,2.009,2.009,0,0,1-.732.115c-.537-.005-1.073-.012-1.609-.007a12.144,12.144,0,0,0-2.85.3,7.887,7.887,0,0,0-1.265.362,3.47,3.47,0,0,0-1.5,1.113.944.944,0,0,0-.005,1.271,3.782,3.782,0,0,0,1.267,1.148,3.856,3.856,0,0,1,.479.312.248.248,0,0,1,.064.313.8.8,0,0,1-.082.15.789.789,0,0,1-.142.18c-.26.2-.349.572-.661.7a7.918,7.918,0,0,1-1.825.677c-.17.026-.338.061-.508.086a3.654,3.654,0,0,1-1.311.028c-.354-.074-.723-.075-1.084-.119a5.028,5.028,0,0,1-.622-.11c-.359-.089-.414-.165-.339-.521a.888.888,0,0,0-.15-.81.129.129,0,0,0-.1-.036.111.111,0,0,0-.078.062,20.216,20.216,0,0,0-.644,2.135,1.932,1.932,0,0,0,.31,1.245.454.454,0,0,0,.127.115.265.265,0,0,0,.32.026.254.254,0,0,0,.117-.247,2.91,2.91,0,0,0-.1-.448,1.159,1.159,0,0,1-.064-.566c.135-.647.074-.6.618-.38a6.043,6.043,0,0,0,1.106.3c.432.086.877.081,1.3.2a.873.873,0,0,0,.342.012,5.8,5.8,0,0,0,1.885-.468,1.457,1.457,0,0,1,.262-.117,4.155,4.155,0,0,0,1.753-1.344c.154-.16.106-.408.267-.583a1.3,1.3,0,0,1,.72.525,3.447,3.447,0,0,1,.433.808,1.266,1.266,0,0,1-.041,1.007,2.551,2.551,0,0,1-.8,1.034,1.167,1.167,0,0,0-.309.253,2.449,2.449,0,0,1-.962.692,12.856,12.856,0,0,1-2.916,1.023,5.689,5.689,0,0,0-1.107.472,5.056,5.056,0,0,1-.458.234,1.383,1.383,0,0,0-.41.306,1.629,1.629,0,0,0-.42,1.793,2.9,2.9,0,0,1-.126,1.841,2.319,2.319,0,0,1-1.066,1.281,5.022,5.022,0,0,1-1.484.6,1.077,1.077,0,0,1-.511-.017,2.275,2.275,0,0,1-1.307-.881,7.246,7.246,0,0,1-.725-1.3c-.2-.434-.409-.862-.639-1.282a8.094,8.094,0,0,0-1.5-1.878,4.334,4.334,0,0,1-.327-.322,3.631,3.631,0,0,0-1.338-.969,8.42,8.42,0,0,0-2.209-.784.312.312,0,0,1-.113-.018,6.232,6.232,0,0,0-1.936-.48,2.591,2.591,0,0,1-.322-.118c-.071-.146-.222-.2-.336-.3A9.1,9.1,0,0,1,673.644,384.986Zm13.055-8.2v-.017c.134,0,.269.01.4,0a.309.309,0,0,0,.243-.282.262.262,0,0,0-.163-.276,1.559,1.559,0,0,0-.384-.1c-.36-.051-.723-.076-1.08-.136a2.591,2.591,0,0,0-.741,0,4.282,4.282,0,0,0-2.153,1.006,2.053,2.053,0,0,0-.7,1.34.437.437,0,0,0,.034.222.178.178,0,0,0,.175.125.162.162,0,0,0,.167-.127,1.722,1.722,0,0,1,.924-1.178c.378-.221.786-.391,1.181-.581a1.052,1.052,0,0,1,.5-.105c.344.014.688.024,1.031.046C686.321,376.73,686.51,376.764,686.7,376.787Zm-.348,3.273c-.185-.008-.318-.013-.452-.021-.047,0-.082.013-.083.059a.149.149,0,0,0,.029.1,1.388,1.388,0,0,0,.72.331,1.31,1.31,0,0,0,1.7-1.523,1.081,1.081,0,0,0-.012-.114,1.61,1.61,0,0,0-.58-.9.348.348,0,0,0-.469.036.323.323,0,0,0,.017.462c.075.085.171.153.249.237a.625.625,0,0,1,.111.694.954.954,0,0,1-.311.4A1.084,1.084,0,0,1,686.351,380.06Z" fill="#f5eff0"/>
    <path id="Path_31" data-name="Path 31" d="M672.333,376.37l-.1.1a1.9,1.9,0,0,1-1.075-.333c-.192-.123-.406-.213-.609-.319a.6.6,0,0,0-.6.018,2.931,2.931,0,0,0-1.178.978,1.47,1.47,0,0,1-1.268.644,2.8,2.8,0,0,1-1.016-.142c-.128-.039-.256-.079-.379-.13a.359.359,0,0,0-.376.05,2.579,2.579,0,0,1-.288.187.227.227,0,0,1-.312-.223.487.487,0,0,1,.041-.165.827.827,0,0,1,1.189-.426,2.751,2.751,0,0,0,1.332.261.606.606,0,0,0,.5-.229c.224-.26.458-.511.689-.764a3.15,3.15,0,0,1,.753-.611,1,1,0,0,1,1.032-.071c.219.116.441.227.661.342.084.045.163.1.248.143.422.21.558.206.825-.167a1.055,1.055,0,0,1,.664-.506,1.173,1.173,0,0,1-.278.542A4.625,4.625,0,0,0,672.333,376.37Z" fill="lime"/>
    <path id="Path_32" data-name="Path 32" d="M671.8,377.883a.3.3,0,0,1,.04.107l-.168.508a1.92,1.92,0,0,1-.6-.327.561.561,0,0,0-.736.036,4.075,4.075,0,0,0-.887.809,1.25,1.25,0,0,1-.923.508,1.4,1.4,0,0,1-.683-.03c-.127-.041-.264-.054-.39-.1a.984.984,0,0,0-.727.046q-.5.21-1.01.413a.181.181,0,0,1-.249-.065.278.278,0,0,1-.007-.219,1.651,1.651,0,0,1,1.564-.862,12.605,12.605,0,0,0,1.256.128.676.676,0,0,0,.528-.165c.355-.289.72-.567,1.081-.849a.974.974,0,0,1,.138-.1c.554-.285.6-.492,1.363-.031A1.019,1.019,0,0,0,671.8,377.883Z" fill="lime"/>
    <path id="Path_33" data-name="Path 33" d="M671.673,378.5l.168-.508c.092.023.185.044.277.07a.629.629,0,0,0,.6-.118c.307-.261.7-.4.99-.679a1.188,1.188,0,0,1,.957-.3,8.423,8.423,0,0,1,.907.131,4.013,4.013,0,0,0,.964.12.354.354,0,0,1,.265.088c.012.012.03.031.027.043-.006.035-.014.09-.036.1a1.39,1.39,0,0,1-1.05.118,1.644,1.644,0,0,0-.445-.1,1.52,1.52,0,0,0-1.358.456,5.389,5.389,0,0,1-.57.48,1.284,1.284,0,0,1-1.529.256.559.559,0,0,0-.11-.031Z" fill="lime"/>
    <path id="Path_34" data-name="Path 34" d="M671.688,379.773l.06.133-.048.6a1.279,1.279,0,0,1-.31-.137.432.432,0,0,0-.616.033c-.286.224-.589.426-.882.642a1.533,1.533,0,0,1-1.015.325c-.171-.009-.344.022-.515.016a2.387,2.387,0,0,1-.568-.057,1.776,1.776,0,0,0-.733-.089.511.511,0,0,1-.17-.01.226.226,0,0,1-.147-.314.472.472,0,0,1,.4-.285,1.949,1.949,0,0,1,.568.053,9.435,9.435,0,0,0,.959.169.965.965,0,0,0,.791-.248c.333-.286.719-.509,1.055-.791a.824.824,0,0,1,.956-.126C671.543,379.724,671.616,379.746,671.688,379.773Z" fill="lime"/>
    <path id="Path_35" data-name="Path 35" d="M671.7,380.511l.048-.6c.254.13.512.252.762.391a.575.575,0,0,0,.736-.1c.264-.256.614-.4.87-.646a1.363,1.363,0,0,1,1.29-.252,1.506,1.506,0,0,1,.889.492.683.683,0,0,1,.126.251.081.081,0,0,1-.1.1,1.141,1.141,0,0,1-.454-.235,1.841,1.841,0,0,0-.819-.236.45.45,0,0,0-.413.155,15.6,15.6,0,0,1-1.254,1.089.522.522,0,0,1-.416.147,2.457,2.457,0,0,1-1.142-.343Z" fill="lime"/>
    <path id="Path_36" data-name="Path 36" d="M672.333,376.37a4.625,4.625,0,0,1,.458-.826,1.173,1.173,0,0,0,.278-.542l.3-.282c.34-.048.68-.094,1.02-.146a1.546,1.546,0,0,1,.676.087c.386.111.782.165,1.175.239a4.951,4.951,0,0,0,.741,0,.107.107,0,0,1,.115.1.189.189,0,0,1-.068.146,2.091,2.091,0,0,1-.93.245,5.066,5.066,0,0,1-1.076-.137,4.611,4.611,0,0,0-.507-.083.966.966,0,0,0-.653.162,4.268,4.268,0,0,0-1.174.9A.359.359,0,0,1,672.333,376.37Z" fill="lime"/>
    <path id="Path_37" data-name="Path 37" d="M665.611,405.812c-.345,0-.69-.017-1.034,0a10.776,10.776,0,0,1-2.684-.231,22.948,22.948,0,0,1-2.727-.686,10.336,10.336,0,0,1-2.864-1.56,13.83,13.83,0,0,0-1.177-.821,9.758,9.758,0,0,1-1.313-1.023,16.794,16.794,0,0,1-2.246-2.453c-.381-.48-.747-.973-1.1-1.47a3.249,3.249,0,0,1-.549-1,2.975,2.975,0,0,0-.41-.755.539.539,0,0,0-.16-.159.3.3,0,0,0-.16-.037c-.077,0-.083.072-.089.125a1.013,1.013,0,0,0,.043.453,7.338,7.338,0,0,0,1.094,2.134,4.677,4.677,0,0,1,.293.422,3.7,3.7,0,0,0,.518.685c.175.175.314.385.474.576a23.856,23.856,0,0,0,2.226,2.315,16.031,16.031,0,0,0,1.5,1.062c1.071.774,2.21,1.444,3.319,2.16a19.354,19.354,0,0,1,2.158,1.715c.405.352.794.722,1.183,1.091a6.326,6.326,0,0,0,1.1.918,3.863,3.863,0,0,1,.969.973.214.214,0,0,1-.066.339.614.614,0,0,1-.1.051,10.245,10.245,0,0,0-2.554,1.4,20.238,20.238,0,0,0-2.73,2.44,15.751,15.751,0,0,0-1.14,1.573,1.235,1.235,0,0,1-.122.194c-.194.28-.242.3-.56.121-1.075-.59-2.161-1.155-3.255-1.707a15.183,15.183,0,0,1-1.91-1.166c-.484-.342-1.006-.628-1.506-.948q-1.163-.741-2.314-1.5c-.24-.158-.464-.339-.689-.519a9.951,9.951,0,0,0-.982-.7,9.807,9.807,0,0,1-.867-.661c-.453-.353-.885-.738-1.361-1.056a39.519,39.519,0,0,1-3.592-2.76,10.816,10.816,0,0,0-1.185-.908,6.829,6.829,0,0,1-1.839-1.873,3.448,3.448,0,0,0-.267-.373,6.12,6.12,0,0,1-1.371-2.62,7.131,7.131,0,0,1-.259-2.1,13.8,13.8,0,0,1,.484-3.112,8.5,8.5,0,0,1,.611-1.609,15.858,15.858,0,0,1,1.032-1.856,4.141,4.141,0,0,1,1.373-1.363c.4-.228.733-.551,1.142-.767a2.763,2.763,0,0,1,.743-.3c.432-.086.86-.19,1.291-.28a1.055,1.055,0,0,1,.286-.02,11.405,11.405,0,0,1,1.822.214,19.4,19.4,0,0,1,4.007,1.389q1.345.645,2.7,1.269c.331.151.664.294,1,.441a3.4,3.4,0,0,1,.605.327,5.572,5.572,0,0,0,1.151.512c.564.238,1.138.45,1.712.665.25.093.508.166.763.248a1.994,1.994,0,0,1,.219.07,17.016,17.016,0,0,0,2.755.787c.369.1.734.218,1.106.3.781.183,1.565.354,2.349.523a2,2,0,0,0,.457.038,19.354,19.354,0,0,0,2.466-.091c.415-.064.838-.057,1.253-.148a3.483,3.483,0,0,0,.772-.209.528.528,0,0,1,.548.017,7.646,7.646,0,0,1,1.462,1,3.6,3.6,0,0,0,.38.351,2.446,2.446,0,0,1,.708.961c.138.314.3.62.443.931.071.152-.006.271-.175.261-.4-.023-.8-.04-1.2-.09a4.148,4.148,0,0,0-1.533.164,1.32,1.32,0,0,0-.588.346,15.185,15.185,0,0,1-1.462,1.205,1.24,1.24,0,0,0-.249.236,4.388,4.388,0,0,1-.966.894,4.114,4.114,0,0,0-1.309,1.647,1.176,1.176,0,0,0,1.067,1.707,3.774,3.774,0,0,0,1.5-.366.281.281,0,0,0,.1-.063,8.264,8.264,0,0,0,1.4-1.431,2.88,2.88,0,0,1,.975-1.034,5.442,5.442,0,0,0,.6-.533,1.623,1.623,0,0,1,.686-.4,5.3,5.3,0,0,1,2.219-.066c.241.05.434.132.446.43a.63.63,0,0,0,.126.316,4.122,4.122,0,0,0,1.194,1.145,1.522,1.522,0,0,0,.993.223,3.43,3.43,0,0,1,1.632.214,1.59,1.59,0,0,0,1.7-.384,5.815,5.815,0,0,1,.642-.572.457.457,0,0,1,.535-.017c.12.067.156.165.075.278a1.326,1.326,0,0,1-.223.26,3.8,3.8,0,0,1-.465.334A17.487,17.487,0,0,0,676.9,403.6a3.881,3.881,0,0,1-1.438.559,7.175,7.175,0,0,0-1.032.342,6.392,6.392,0,0,1-1.663.423,7.6,7.6,0,0,0-1.345.274,10.079,10.079,0,0,1-1.58.28,7.679,7.679,0,0,1-1.314.13c-.206,0-.412.086-.62.1-.764.06-1.529.106-2.293.158Z" fill="#f5eff0"/>
    <path id="Path_38" data-name="Path 38" d="M661.435,381.433a.324.324,0,0,0,.02.3,4.522,4.522,0,0,0,.6.979c.407.507.828,1,1.256,1.492a8.135,8.135,0,0,0,1.492,1.254q1.293.911,2.511,1.918a1.769,1.769,0,0,1,.289.278c.453.6.974,1.134,1.46,1.7.574.667,1.12,1.359,1.688,2.031.37.438.757.862,1.108,1.319a3.853,3.853,0,0,0,.468.42c.213.2.2.368-.063.491a2.766,2.766,0,0,0-1.207,1.028c-.176.272-.322.564-.481.847-.028.05-.052.1-.083.151a.129.129,0,0,1-.194.047,1.733,1.733,0,0,1-.261-.222,24.067,24.067,0,0,0-3.136-2.6,4.944,4.944,0,0,0-.435-.279q-1.136-.67-2.274-1.335a2.061,2.061,0,0,1-.2-.117c-.593-.449-1.228-.84-1.806-1.31-.967-.785-1.955-1.543-2.9-2.351a25.844,25.844,0,0,1-3.208-3.041,15.006,15.006,0,0,1-1.359-1.915,5.25,5.25,0,0,1-.629-2.478,3.363,3.363,0,0,1,.463-1.754.675.675,0,0,1,.165-.232,2.583,2.583,0,0,1,1.946-.676,5.118,5.118,0,0,0,.971.049,2.381,2.381,0,0,1,.622.063,7.254,7.254,0,0,1,2.428,1c.528.344,1.093.631,1.648.931a1.788,1.788,0,0,1,.475.318,3.209,3.209,0,0,0,.972.7,2.444,2.444,0,0,1,.674.531c.094.1.179.2.27.3l2.033,2.187a1.9,1.9,0,0,0,.16.164c.885.732,1.693,1.555,2.647,2.2a1.284,1.284,0,0,0,.408.2,12.841,12.841,0,0,1,1.8.746,8.9,8.9,0,0,0,1.463.5,5.057,5.057,0,0,1,.544.176,5.6,5.6,0,0,0,1.492.4.628.628,0,0,1,.224.048,3.714,3.714,0,0,0,.888.2,15.607,15.607,0,0,1,3.753,1.221,5.651,5.651,0,0,1,1.82,1.46,8.382,8.382,0,0,1,1.41,2.221,7.871,7.871,0,0,0,.6,1.173,4.141,4.141,0,0,0,1.523,1.45,2.045,2.045,0,0,0,1.719.134,6.875,6.875,0,0,0,1.754-.968,1.289,1.289,0,0,0,.3-.346,4.158,4.158,0,0,0,.732-1.669c.033-.23.152-.3.363-.2.328.156.645.336.967.505.593.313,1.17.659,1.781.93a31.137,31.137,0,0,0,3.709,1.531,4.126,4.126,0,0,1,.842.363,23.414,23.414,0,0,0,2.129,1,4.422,4.422,0,0,1,.814.422,1.875,1.875,0,0,0,.966.332.469.469,0,0,0,.511-.67,1.281,1.281,0,0,0-.227-.394c-.185-.22-.388-.424-.588-.63-.066-.069-.15-.12-.215-.19a25.219,25.219,0,0,0-3.124-2.611c-.527-.412-1.033-.853-1.544-1.285a.141.141,0,0,1,.053-.261c.4-.116.806-.233,1.2-.383a5.882,5.882,0,0,0,.834-.382c.367-.21.76-.36,1.144-.533a.336.336,0,0,1,.41.044,12.643,12.643,0,0,0,2.306,1.5c.995.5,1.967,1.032,2.949,1.55a3.553,3.553,0,0,1,.588.353c.391.312.833.544,1.247.819a15.176,15.176,0,0,1,3.012,2.37,10.26,10.26,0,0,1,1.23,1.728,1.832,1.832,0,0,1,.233,1.094,4.315,4.315,0,0,1-.508,1.746,2.424,2.424,0,0,1-1.01.984,11.957,11.957,0,0,1-3.322,1.236,11.419,11.419,0,0,1-1.708.2,2.95,2.95,0,0,1-.856-.078c-1.044-.239-2.082-.5-3.1-.83a5.087,5.087,0,0,1-.541-.189,26.739,26.739,0,0,0-3.327-1.071,16.633,16.633,0,0,1-1.833-.663,32.77,32.77,0,0,0-3.3-1.172c-.365-.112-.727-.239-1.085-.371-.165-.061-.172-.178-.024-.294a3.4,3.4,0,0,1,.469-.328,2.7,2.7,0,0,0,1.118-1.273.622.622,0,0,0,.015-.553.2.2,0,0,0-.284-.1,1.545,1.545,0,0,0-.551.495,4.887,4.887,0,0,1-1.036.985,2.173,2.173,0,0,1-.444.261c-.3.132-.6.242-.9.37a9.956,9.956,0,0,1-3.732.821,1.168,1.168,0,0,0-.282.043,2.8,2.8,0,0,1-1.192-.006c-1.136-.179-2.227-.56-3.365-.725-.075-.011-.146-.048-.222-.058-.433-.06-.718-.252-.679-.742a4,4,0,0,0-1.694-2.505c-.223-.148-.456-.283-.687-.417a1.963,1.963,0,0,0-.586-.228,4.482,4.482,0,0,1-1.218-.5,14.54,14.54,0,0,1-3.24-2.458,6.392,6.392,0,0,1-.455-.516c-.519-.637-1.064-1.25-1.549-1.917-.449-.617-.992-1.166-1.5-1.74-.266-.3-.54-.6-.814-.892a8.686,8.686,0,0,0-1.344-1.165c-.888-.633-1.764-1.283-2.643-1.929a2.533,2.533,0,0,1-.3-.265,24.774,24.774,0,0,1-2-2.14A1.45,1.45,0,0,0,661.435,381.433Z" fill="#f5eff0"/>
    <path id="Path_39" data-name="Path 39" d="M665.334,436.174l-.007.248a10.273,10.273,0,0,0,.015,1.2q-.012.689-.028,1.379a.75.75,0,0,1-.63.774,1.925,1.925,0,0,1-.561.109c-.555-.025-1.111-.038-1.665-.079-.323-.024-.411-.109-.4-.437.013-.636-.164-1.251-.169-1.884a3.634,3.634,0,0,0-.238-1.119q-.484-1.441-.98-2.879a6.9,6.9,0,0,0-.287-.689,11.368,11.368,0,0,1-.938-3.419,5.234,5.234,0,0,1,.029-1.829c.069-.311.084-.638.161-.955a5.258,5.258,0,0,1,.532-1.328c.149-.268.3-.537.425-.815a2.921,2.921,0,0,1,.844-1.211,3.878,3.878,0,0,0,.972-2.339,3.488,3.488,0,0,0-.523-1.791,1.216,1.216,0,0,0-.4-.4,2.948,2.948,0,0,1-.686-.608,2.549,2.549,0,0,0-.671-.533q-1.033-.623-2.055-1.264c-.233-.146-.248-.237-.092-.467a2.919,2.919,0,0,1,.319-.406c.308-.315.57-.681.893-.97.424-.379.81-.8,1.273-1.145s.941-.653,1.389-1.012a11.125,11.125,0,0,1,1.661-1.021.242.242,0,0,1,.269.02,3.446,3.446,0,0,1,.45.355c.6.6,1.187,1.2,1.778,1.8a1.917,1.917,0,0,1,.23.256,14.114,14.114,0,0,1,1.7,2.789,6.263,6.263,0,0,1,.5,2.285,3.3,3.3,0,0,1-.117.965,17.019,17.019,0,0,1-.647,1.9c-.166.365-.33.732-.494,1.1a3.3,3.3,0,0,0-.276.933c-.042.323-.143.635-.208.952-.139.674-.226,1.358-.332,2.038-.018.114-.013.231-.039.343a26.42,26.42,0,0,0-.431,3.468,2.059,2.059,0,0,1-.076.452,13.623,13.623,0,0,0-.3,1.576,5.228,5.228,0,0,0-.078,1.317,2.94,2.94,0,0,1-.038.629A7.165,7.165,0,0,0,665.334,436.174Z" fill="#f5eff0"/>
    <path id="Path_40" data-name="Path 40" d="M621.462,408.972c0,.21,0,.42,0,.63.005.25-.047.349-.268.351-.8.01-1.6.144-2.4.126-.517-.012-1.031-.056-1.545-.111a.475.475,0,0,1-.114-.01,15.372,15.372,0,0,0-1.89-.464,5.809,5.809,0,0,1-2.125-1.085,7.832,7.832,0,0,1-.914-.783,18.7,18.7,0,0,1-1.706-1.94c-.127-.168-.248-.341-.358-.52a15.931,15.931,0,0,1-1.788-3.9,2.256,2.256,0,0,1-.058-.281c-.143-.927-.284-1.855-.429-2.782a5.313,5.313,0,0,0-.146-.788c-.327-1.039-.571-2.1-.967-3.123a5.93,5.93,0,0,0-.653-1.207,2.656,2.656,0,0,1-.226-.331,20.651,20.651,0,0,0-1.528-2.429c-.16-.239-.318-.479-.459-.729a.419.419,0,0,1,.076-.571,2.067,2.067,0,0,1,1.019-.5,2.655,2.655,0,0,1,1.943.283.45.45,0,0,1,.241.3,6.738,6.738,0,0,0,.763,1.6,2.858,2.858,0,0,0,.665.782c.572.48,1.124.983,1.684,1.477.963.849,1.9,1.732,2.895,2.537a25.693,25.693,0,0,1,2.972,3.03,3.916,3.916,0,0,1,.786,1.259,5.692,5.692,0,0,0,.248.518,7.124,7.124,0,0,1,.537,1.451,1.849,1.849,0,0,0,.878,1.224,8.9,8.9,0,0,1,1.247,1.011,2.54,2.54,0,0,1,.665.926c.177.4.348.808.509,1.218A7.472,7.472,0,0,1,621.462,408.972Z" fill="#f5eff0"/>
    <path id="Path_41" data-name="Path 41" d="M638.092,404.065l-.674-.58-.286.02a.674.674,0,0,0-.089-.151c-.223-.287-.439-.58-.657-.872-.183-.245-.384-.473-.546-.737a9.021,9.021,0,0,1-1.1-2.883,3.932,3.932,0,0,1-.112-1.022c.017-.3.034-.608.041-.914a10.134,10.134,0,0,1,.231-1.819c.085-.412.2-.817.3-1.226.034-.143.16-.32.008-.423-.123-.084-.292.02-.433.08a1.978,1.978,0,0,0-.213.086c-.562.328-1.2.5-1.742.875a1.538,1.538,0,0,1-.318.126,17.482,17.482,0,0,0-2.577,1.256c-.684.421-1.336.895-1.995,1.355-.755.525-1.472,1.1-2.2,1.665-.772.6-1.512,1.234-2.255,1.867a9.2,9.2,0,0,1-1.4,1.1,1.884,1.884,0,0,0-.36.284,3.888,3.888,0,0,1-1.41.863,2.255,2.255,0,0,0-.263.112.154.154,0,0,0-.043.275,3.057,3.057,0,0,1,.568.563,7.626,7.626,0,0,1,1.073,2.211,9.8,9.8,0,0,1,.47,3.051c0,.115-.005.23,0,.345.015.211.091.28.285.263.095-.009.189-.031.284-.045.34-.05.68-.126,1.022-.142a4.293,4.293,0,0,0,1.072-.172c.7-.215,1.434-.246,2.134-.443.663-.186,1.347-.292,2-.522.613-.216,1.223-.444,1.845-.635q.282-.087.554-.194l.074.27Z" fill="#f5eff0"/>
    <path id="Path_42" data-name="Path 42" d="M659.957,445.177a4.338,4.338,0,0,1,.126-.943,5.291,5.291,0,0,1,.589-1.61,1.184,1.184,0,0,1,.174-.223.12.12,0,0,1,.2.024,1.849,1.849,0,0,1,.125.32,6.7,6.7,0,0,0,.444.995,1.637,1.637,0,0,0,.892.773,3.91,3.91,0,0,0,2.143.213,1.03,1.03,0,0,0,.472-.194,8.286,8.286,0,0,0,.746-.533c.1-.1.193-.088.285.048a13.342,13.342,0,0,0,1.952,1.938,2.027,2.027,0,0,0,.364.28,7.543,7.543,0,0,1,1.225.947,5.791,5.791,0,0,0,.885.637,2.8,2.8,0,0,1,.335.22,14.8,14.8,0,0,1,2.219,2.318,4.529,4.529,0,0,1,.673,1.45,1.087,1.087,0,0,1-.51,1.385.784.784,0,0,1-.265.1,4.112,4.112,0,0,1-2.2-.174,6.453,6.453,0,0,1-1.907-1.041.859.859,0,0,0-.185-.135,7.518,7.518,0,0,1-1.4-1c-.529-.41-1.087-.784-1.61-1.2a5.945,5.945,0,0,1-1.232-1.277.726.726,0,0,0-.727-.345,2.119,2.119,0,0,0-.664.172c-.229.1-.45.212-.674.32a.676.676,0,0,1-.8-.118,5.178,5.178,0,0,1-1.414-1.923A6.144,6.144,0,0,1,659.957,445.177Z" fill="#f5eff0"/>
    <path id="Path_43" data-name="Path 43" d="M607.132,386.039a1.638,1.638,0,0,1-.393-.629,3.5,3.5,0,0,0-2.036-1.75,1.653,1.653,0,0,0-.9-.089,1.611,1.611,0,0,1-.684-.006,3.7,3.7,0,0,0-1.25.016,8.763,8.763,0,0,0-1.881.49.493.493,0,0,1-.571-.123c-.43-.409-.882-.794-1.318-1.2a6.306,6.306,0,0,0-.543-.422c-.431-.318-.842-.665-1.273-.983a18.962,18.962,0,0,0-1.956-1.3c-.467-.262-.909-.569-1.362-.855a.64.64,0,0,1-.282-.478.507.507,0,0,1,.232-.546,2.033,2.033,0,0,1,1.137-.35,3.6,3.6,0,0,1,1.505.321,9.2,9.2,0,0,0,1.125.43,2.62,2.62,0,0,1,.524.227,6.458,6.458,0,0,0,1.593.643,7.581,7.581,0,0,1,1.488.6,14.894,14.894,0,0,0,2.275.951,10.642,10.642,0,0,0,1.4.306,1.646,1.646,0,0,0,1.049-.23c.221-.114.437-.237.649-.367a.939.939,0,0,1,.829-.082,1.774,1.774,0,0,1,.271.094,8.525,8.525,0,0,1,1.928,1.231c.1.092.193.187.283.286a1.161,1.161,0,0,1,.135,1.606,5.482,5.482,0,0,1-.934,1.153c-.219.214-.409.456-.608.689A.982.982,0,0,1,607.132,386.039Z" fill="#f5eff0"/>
    <path id="Path_44" data-name="Path 44" d="M676.766,402.045a2.116,2.116,0,0,1-.775-.074,2.464,2.464,0,0,0-1.523-.076.448.448,0,0,1-.43-.092c-.3-.242-.59-.485-.879-.735a.882.882,0,0,1-.172-.228.25.25,0,0,1,.127-.376,3.272,3.272,0,0,1,.324-.114c.127-.041.26-.067.383-.118a.826.826,0,0,0,.55-.739,1.993,1.993,0,0,0-.642-1.651.783.783,0,0,0-.513-.232,2.37,2.37,0,0,0-.742.018,2.769,2.769,0,0,1-.393.08.76.76,0,0,1-.859-.419c-.162-.325-.341-.64-.509-.962a.384.384,0,0,1,0-.385,4.192,4.192,0,0,1,1.75-1.912.812.812,0,0,1,1,.1,9.983,9.983,0,0,0,1.981,1.257,9.453,9.453,0,0,0,1.432.584,4.247,4.247,0,0,1,1.553.952,2.671,2.671,0,0,1,.9,1.808,3.027,3.027,0,0,1-.5,1.738,6.948,6.948,0,0,1-.89,1.048A1.307,1.307,0,0,1,676.766,402.045Z" fill="#f5eff0"/>
    <path id="Path_45" data-name="Path 45" d="M702.372,385.543a2.15,2.15,0,0,1-.256,1.243,2.212,2.212,0,0,1-.957,1.034c-.22.113-.42.266-.638.386a1.646,1.646,0,0,0-.838,1.04.923.923,0,0,1-.4.542,8.609,8.609,0,0,1-2.808,1.256c-.166.038-.343.027-.511.059a.563.563,0,0,1-.646-.346,5.082,5.082,0,0,1-.431-.872,1.033,1.033,0,0,1,.079-.936,1.667,1.667,0,0,0,.141-.25,2.748,2.748,0,0,1,1.318-1.3,1.471,1.471,0,0,0,.552-.481c.122-.194.253-.385.356-.589a2.058,2.058,0,0,0,.092-1.876c-.016-.035-.034-.069-.047-.105-.078-.223-.033-.328.189-.386.35-.093.7-.193,1.058-.257a10.139,10.139,0,0,1,2.059-.143,2.223,2.223,0,0,1,1.27.471.8.8,0,0,1,.293.412A1.8,1.8,0,0,1,702.372,385.543Z" fill="#f5eff0"/>
    <path id="Path_46" data-name="Path 46" d="M606.439,388.107a2.2,2.2,0,0,1-.264-.034,4.6,4.6,0,0,0-1.88.022.813.813,0,0,0-.569.349.492.492,0,0,1-.035.045c-.334.394-.39.386-.613-.053a8.579,8.579,0,0,0-1.02-1.452c-.54-.67-1.1-1.321-1.653-1.982-.161-.194-.14-.3.069-.4a10.832,10.832,0,0,1,1.619-.569,1.35,1.35,0,0,1,.454-.022c.592.044,1.182.1,1.773.147a1.737,1.737,0,0,1,.883.385,3.793,3.793,0,0,1,1.629,2.6,4.438,4.438,0,0,0,.125.557c.072.263-.045.39-.326.4C606.574,388.109,606.517,388.107,606.439,388.107Z" fill="#f5eff0"/>
    <path id="Path_47" data-name="Path 47" d="M665.294,441.358a3.154,3.154,0,0,0,.192,1.18,1.3,1.3,0,0,1-.089.993.9.9,0,0,1-.375.414,1.955,1.955,0,0,1-1.7.217c-.178-.067-.354-.146-.537-.195a1.253,1.253,0,0,1-.8-.758c-.138-.293-.235-.605-.377-.9-.132-.268-.18-.493.1-.7a.441.441,0,0,0,.138-.307c.03-.207.065-.414.091-.622.072-.579.17-.657.731-.572.188.029.381.042.565.089a4,4,0,0,0,1.253.052c.152-.01.3-.027.457-.03a.234.234,0,0,1,.28.22A2.9,2.9,0,0,1,665.294,441.358Z" fill="#f5eff0"/>
    <path id="Path_48" data-name="Path 48" d="M673.213,384.422a2.881,2.881,0,0,1-.57-1.114,3.216,3.216,0,0,1,.393.061,1.489,1.489,0,0,0,1.435-.335,2.632,2.632,0,0,1,.664-.434,3.929,3.929,0,0,0,.543-.315.893.893,0,0,1,.358-.168.23.23,0,0,1,.157.035c.046.035.033.1,0,.148a2.9,2.9,0,0,0-.345.59,2.106,2.106,0,0,0-.192.937c.02.355-.024.38-.389.362a2.4,2.4,0,0,1-.4-.039,2.022,2.022,0,0,0-1.435.214A.91.91,0,0,1,673.213,384.422Z" fill="#f5eff0"/>
    <path id="Path_49" data-name="Path 49" d="M686.7,376.787c-.189-.023-.378-.057-.567-.069-.343-.022-.687-.032-1.031-.046a1.052,1.052,0,0,0-.5.105c-.4.19-.8.36-1.181.581a1.722,1.722,0,0,0-.924,1.178.162.162,0,0,1-.167.127.178.178,0,0,1-.175-.125.437.437,0,0,1-.034-.222,2.053,2.053,0,0,1,.7-1.34,4.282,4.282,0,0,1,2.153-1.006,2.591,2.591,0,0,1,.741,0c.357.06.72.085,1.08.136a1.559,1.559,0,0,1,.384.1.262.262,0,0,1,.163.276.309.309,0,0,1-.243.282c-.132.013-.267,0-.4,0Z" fill="lime"/>
    <path id="Path_50" data-name="Path 50" d="M686.351,380.06a1.084,1.084,0,0,0,.921-.233.954.954,0,0,0,.311-.4.625.625,0,0,0-.111-.694c-.078-.084-.174-.152-.249-.237a.323.323,0,0,1-.017-.462.348.348,0,0,1,.469-.036,1.61,1.61,0,0,1,.58.9,1.081,1.081,0,0,1,.012.114,1.31,1.31,0,0,1-1.7,1.523,1.388,1.388,0,0,1-.72-.331.149.149,0,0,1-.029-.1c0-.046.036-.062.083-.059C686.033,380.047,686.166,380.052,686.351,380.06Z" fill="lime"/>
    <g id="Group_6" data-name="Group 6">
      <path id="Path_51" data-name="Path 51" d="M667.013,444.1v.008l0,0Z" fill="lime"/>
      <path id="Path_52" data-name="Path 52" d="M660.573,435.368h0l0,0Z" fill="lime"/>
      <path id="Path_53" data-name="Path 53" d="M587.056,387.344m13.746-1.121c.14.182.262.381.416.55.543.6.974,1.28,1.492,1.9a1.066,1.066,0,0,1,.146.246,5.725,5.725,0,0,0,.6.975c.785,1.089,1.535,2.2,2.217,3.357a9.031,9.031,0,0,1,.729,1.5,24.929,24.929,0,0,1,1.258,5.3,10.67,10.67,0,0,0,.262,1.47,8.644,8.644,0,0,0,.649,1.9c.185.336.36.677.547,1.011a13.56,13.56,0,0,0,3.037,3.8c.146.124.293.249.429.384a4.959,4.959,0,0,0,1.36.951c.151.073.33.116.413.29a9.172,9.172,0,0,0,1.81.517c.335.072.665.173,1,.265a2.848,2.848,0,0,0,1.016.146,11.248,11.248,0,0,1,1.2.008c.65.013,1.3.013,1.95-.01a7.035,7.035,0,0,0,.964-.136c.545-.1,1.088-.205,1.631-.312a3.063,3.063,0,0,1,.792-.109,1.247,1.247,0,0,0,.56-.108,2.794,2.794,0,0,1,.949-.206,5.082,5.082,0,0,0,1.444-.335,14.158,14.158,0,0,1,1.591-.474,9.315,9.315,0,0,0,2.025-.781c.189-.091.377-.186.565-.278.217-.1.4-.276.615-.377a.565.565,0,0,0,.253-.074c.563-.279,4.274-2.612,5.2-3.2.373.309.753.609,1.126.918.44.366.839.781,1.255,1.176a5.59,5.59,0,0,0,1.042.8,21.665,21.665,0,0,1,2.442,1.7c.121.094.243.187.371.27a18.648,18.648,0,0,1,2.024,1.5,23.068,23.068,0,0,0,2.318,1.677,2.8,2.8,0,0,1,.786.471,11.745,11.745,0,0,0,1.212.769c.219.116.417.272.631.4,1,.6,1.986,1.238,3.021,1.776.728.379,1.49.7,2.206,1.1a.5.5,0,0,0,.053.023c.493.215.681.41,1.017-.237a.211.211,0,0,1,.3-.085,7.222,7.222,0,0,1,1.465.785c.152.116.315.217.475.322a4.466,4.466,0,0,1,1.046.892,2.244,2.244,0,0,0,.329.317,2,2,0,0,1,.671,1.047,3.812,3.812,0,0,1,.137.966,2.062,2.062,0,0,1-.369,1.073,2.984,2.984,0,0,1-.349.455,5.857,5.857,0,0,0-1.071,1.624,2.832,2.832,0,0,1-.422.683,3.152,3.152,0,0,0-.461.913,8.461,8.461,0,0,0-.444,1.952,5.452,5.452,0,0,0-.036,1.142,25.946,25.946,0,0,0,.442,2.6,7.05,7.05,0,0,0,.569,1.441,12.868,12.868,0,0,1,.563,1.385,4.168,4.168,0,0,1,.3,1.119,5.2,5.2,0,0,1,.657,2.3c.018.321.024.642.036.962a1.729,1.729,0,0,1,.168.817,6.625,6.625,0,0,1-.08,1.062c0,.133,0,.267-.013.4a.7.7,0,0,1-.254.494,1.419,1.419,0,0,1-.172.15,3.024,3.024,0,0,0-1.2,1.813c-.118.36-.214.729-.32,1.093.015.342.026.684.044,1.025a4.418,4.418,0,0,0,1.064,2.593c.1.118.213.219.3.341a2.128,2.128,0,0,0,1.412.885,1.063,1.063,0,0,0,.918-.184,1.617,1.617,0,0,1,.873-.234.577.577,0,0,1,.271.073,1.519,1.519,0,0,1,.648.554,6.821,6.821,0,0,0,1.44,1.473c.529.439,1.073.86,1.608,1.288q.745.424,1.494.849a5.916,5.916,0,0,0,2.153.747c.365.048.725-.012,1.087,0a1.69,1.69,0,0,0,1.392-.674,1.145,1.145,0,0,0,.236-1.177,6.233,6.233,0,0,0-1.171-2.278,1.3,1.3,0,0,1-.134-.187,7.365,7.365,0,0,0-2.159-2.186c-.8-.558-1.5-1.245-2.245-1.867-.12-.089-.246-.17-.359-.268-.144-.123-.271-.253-.492-.208a.351.351,0,0,1-.305-.118,1.211,1.211,0,0,1-.456-.8.274.274,0,0,1-.149-.212l-.1-.1c-.076-.027-.146-.059-.152-.155a.169.169,0,0,1-.047-.049c-.1-.017-.109-.1-.124-.172a2.849,2.849,0,0,1-.477-1.058.513.513,0,0,1-.065-.391l-.038-.254c-.179-.226-.108-.507-.149-.76a5.538,5.538,0,0,1-.05-1.4.12.12,0,0,0-.008-.1c-.01-.453-.026-.9-.027-1.358a1.532,1.532,0,0,1,.067-.328l.016-.142c-.223-.157-.166-.364-.1-.572l-.029-.176c-.106-.03-.132-.114-.15-.209s-.016-.186-.1-.248a10.273,10.273,0,0,0,.015,1.2q-.012.689-.028,1.379a.75.75,0,0,1-.63.774,1.925,1.925,0,0,1-.561.109c-.555-.025-1.111-.038-1.665-.079-.323-.024-.411-.109-.4-.437.013-.636-.164-1.251-.169-1.884a3.634,3.634,0,0,0-.238-1.119q-.484-1.441-.98-2.879a6.9,6.9,0,0,0-.287-.689,11.368,11.368,0,0,1-.938-3.419,5.234,5.234,0,0,1,.029-1.829c.069-.311.084-.638.161-.955a5.258,5.258,0,0,1,.532-1.328c.149-.268.3-.537.425-.815a2.921,2.921,0,0,1,.844-1.211,3.878,3.878,0,0,0,.972-2.339,3.488,3.488,0,0,0-.523-1.791,1.216,1.216,0,0,0-.4-.4,2.948,2.948,0,0,1-.686-.608,2.549,2.549,0,0,0-.671-.533q-1.033-.623-2.055-1.264c-.233-.146-.248-.237-.092-.467a2.919,2.919,0,0,1,.319-.406c.308-.315.57-.681.893-.97.424-.379.81-.8,1.273-1.145s.941-.653,1.389-1.012a11.125,11.125,0,0,1,1.661-1.021.242.242,0,0,1,.269.02,3.446,3.446,0,0,1,.45.355c.6.6,1.187,1.2,1.778,1.8a1.917,1.917,0,0,1,.23.256,14.085,14.085,0,0,1,1.7,2.789,6.263,6.263,0,0,1,.5,2.285,3.3,3.3,0,0,1-.117.965,17.019,17.019,0,0,1-.647,1.9c-.166.365-.33.732-.494,1.1a3.3,3.3,0,0,0-.276.933c-.042.323-.143.635-.208.952-.139.674-.226,1.358-.332,2.038-.018.114-.013.231-.039.343a26.42,26.42,0,0,0-.431,3.468,2.059,2.059,0,0,1-.076.452,13.623,13.623,0,0,0-.3,1.576,5.228,5.228,0,0,0-.078,1.317,2.94,2.94,0,0,1-.038.629,7.165,7.165,0,0,0-.072,1.718.243.243,0,0,0,.049.023c.233.054.246.048.275-.111.039-.215.08-.43.12-.645a1.115,1.115,0,0,1-.006-.282,9.91,9.91,0,0,0,.147-1.7c.027-.474.093-.945.146-1.418a1.182,1.182,0,0,1,.152-.486,3.666,3.666,0,0,1,.055-.394,10.038,10.038,0,0,0,.224-1.516,12.6,12.6,0,0,1,.427-2.749,7.567,7.567,0,0,1,.132-1.48,12.668,12.668,0,0,1,.542-2.227,6.5,6.5,0,0,1,.29-.685,18.571,18.571,0,0,0,.85-2.192,4.79,4.79,0,0,0,.039-2.662c-.13-.5-.262-1-.429-1.488a6.264,6.264,0,0,0-.907-1.655,15.536,15.536,0,0,0-2.015-2.273c-.308-.284-.582-.606-.867-.915a.259.259,0,0,1-.019-.4.285.285,0,0,0,.008-.37,1.211,1.211,0,0,1-.217-.4c-.141-.178-.293-.349-.421-.536a11.8,11.8,0,0,0-1.244-1.246c-.36-.39-.742-.76-1.114-1.139-.5-.422-.992-.842-1.485-1.266a1.32,1.32,0,0,1-.139-.163c.058-.149.168-.1.247-.089.283.045.559.122.837.192a9.62,9.62,0,0,0,2.583.49c.286-.006.572.041.858.063a11.624,11.624,0,0,0,1.32.046c.42-.016.843.027,1.262,0,.668-.041,1.336-.1,2-.185a26.2,26.2,0,0,0,3.215-.591,1.452,1.452,0,0,1,.227-.037,6.887,6.887,0,0,0,2.518-.726,2.19,2.19,0,0,1,.5-.137,5.532,5.532,0,0,0,2.424-1.124.927.927,0,0,1,.19-.127,8.592,8.592,0,0,0,1.648-1.144,1.307,1.307,0,0,1,1.588-.189c.361.031.724.053,1.084.1a1.705,1.705,0,0,0,1.924-1.091c.217-.493.219-.522.762-.494.71.036,1.405-.147,2.113-.1a.73.73,0,0,0,.228-.021,17.656,17.656,0,0,0,2.422-.67.561.561,0,0,1,.621.067,4.929,4.929,0,0,0,1.295.594c.474.145.954.272,1.43.412.2.059.4.125.6.2.782.3,1.567.6,2.34.931.176.074.386.024.533.171a4.673,4.673,0,0,1,.557.136c.877.333,1.831.415,2.685.823a.627.627,0,0,0,.165.049,3.794,3.794,0,0,1,1.085.364,1.841,1.841,0,0,0,.434.149,22.4,22.4,0,0,0,2.689.573,3.778,3.778,0,0,0,.629.041c.382-.029.765-.059,1.148-.068a4.186,4.186,0,0,0,1.072-.188c.442-.126.884-.251,1.329-.366a1.747,1.747,0,0,0,.585-.229,4.323,4.323,0,0,1,.667-.332,4.026,4.026,0,0,0,1.579-1.116,5.458,5.458,0,0,0,1-2.175,1.662,1.662,0,0,0-.114-1.123c-.135-.275-.264-.554-.424-.815a12.434,12.434,0,0,0-3.986-3.83,2.749,2.749,0,0,0-.355-.19,5,5,0,0,1-.931-.567,11.151,11.151,0,0,0-1.73-1.022c-.339-.172-.7-.3-1.038-.487-.25-.139-.516-.25-.774-.378-.206-.1-.413-.2-.612-.315-.365-.21-.728-.425-1.085-.649-.244-.152-.479-.318-.711-.487a1.134,1.134,0,0,1-.244-.24.467.467,0,0,1,.036-.673,2.185,2.185,0,0,1,.309-.257c.5-.356,1-.712,1.5-1.061a1.6,1.6,0,0,0,.729-1.122c.056-.4.093-.8.142-1.2a2.917,2.917,0,0,0-.006-.86,1.923,1.923,0,0,0-1.042-1.495,3.086,3.086,0,0,0-1.846-.3c-.36.056-.721.1-1.077.178-.374.079-.745.18-1.113.285-.272.078-.527.309-.81.234s-.427-.37-.641-.559a2.336,2.336,0,0,0-.695-.5,6.726,6.726,0,0,1-1.532-.9,3.382,3.382,0,0,1-.586-.548.57.57,0,0,1,.109-.812,4.7,4.7,0,0,1,1.521-.791,11.884,11.884,0,0,1,2.071-.459,13.2,13.2,0,0,1,1.487-.09c.574.008,1.15,0,1.725,0a2.042,2.042,0,0,0,1.261-.49.71.71,0,0,0,.209-.267,2.039,2.039,0,0,0-.909-2.621,3.332,3.332,0,0,0-.913-.341,14.1,14.1,0,0,0-2.281-.259,9.908,9.908,0,0,0-1.034.019c-.745.046-1.485.154-2.228.222-.879.081-1.762.078-2.637.2a2.621,2.621,0,0,1-.516-.008,11.753,11.753,0,0,1-3.4-.989,1.511,1.511,0,0,1-.251-.14c-1.1-.692-2.214-1.374-3.307-2.081a6.694,6.694,0,0,0-2.554-.97,12.188,12.188,0,0,0-2.975,0,1.207,1.207,0,0,0-.432.145,4.934,4.934,0,0,1-.919.329,1.033,1.033,0,0,0-.325.1c-.469.331-.995.567-1.45.928a1.371,1.371,0,0,1-1.242.282c-.312-.089-.621-.194-.929-.3a3.7,3.7,0,0,0-1.63-.286,3.054,3.054,0,0,0-2.223,1.172,1.026,1.026,0,0,1-1.113.415,5.847,5.847,0,0,1-.6-.186.677.677,0,0,0-.393-.055,3.12,3.12,0,0,0-1.573.781,1.19,1.19,0,0,0-.172.228.3.3,0,0,0,.009.326.263.263,0,0,0,.308.1,1.544,1.544,0,0,0,.364-.162c.129-.081.238-.193.363-.281a1.108,1.108,0,0,1,1.18-.2,2.266,2.266,0,0,0,.727.161,1.262,1.262,0,0,0,.922-.234,5.178,5.178,0,0,0,1.013-.843.744.744,0,0,1,.313-.244,2.937,2.937,0,0,1,1.4-.232,5.909,5.909,0,0,1,1.737.571,3.71,3.71,0,0,0,1.257-.021,1.657,1.657,0,0,0,1.034-.57c.05-.06.112-.131.07-.2s-.123-.079-.213-.132a2.894,2.894,0,0,1,1.338-.626,3.481,3.481,0,0,0,.547-.162,3.654,3.654,0,0,1,1.458-.268,12.859,12.859,0,0,1,1.607.039c.359.053.717.111,1.074.177a5.219,5.219,0,0,1,1.787.758c.65.4,1.283.835,1.96,1.2a4.3,4.3,0,0,1,.625.408,10.219,10.219,0,0,0,3.32,1.526,3.222,3.222,0,0,0,.624.084c.171.019.344.023.515.044a9.669,9.669,0,0,0,2.4,0c.55-.07,1.106-.089,1.66-.134.4-.032.8-.059,1.2-.106a8.947,8.947,0,0,1,1.949-.046,1.455,1.455,0,0,0,.287.013,3.948,3.948,0,0,1,1.78.385,1.829,1.829,0,0,1,.722.552,1,1,0,0,1,.222.861.873.873,0,0,1-.577.727,2.009,2.009,0,0,1-.732.115c-.537-.005-1.073-.012-1.609-.007a12.144,12.144,0,0,0-2.85.3,7.887,7.887,0,0,0-1.265.362,3.47,3.47,0,0,0-1.5,1.113.944.944,0,0,0-.005,1.271,3.782,3.782,0,0,0,1.267,1.148,3.856,3.856,0,0,1,.479.312.248.248,0,0,1,.064.313.8.8,0,0,1-.082.15.789.789,0,0,1-.142.18c-.26.2-.349.572-.661.7a7.918,7.918,0,0,1-1.825.677c-.17.026-.338.061-.508.086a3.654,3.654,0,0,1-1.311.028c-.354-.074-.723-.075-1.084-.119a5.028,5.028,0,0,1-.622-.11c-.359-.089-.414-.165-.339-.521a.888.888,0,0,0-.15-.81.129.129,0,0,0-.1-.036.111.111,0,0,0-.078.062,20.216,20.216,0,0,0-.644,2.135,1.932,1.932,0,0,0,.31,1.245.454.454,0,0,0,.127.115.265.265,0,0,0,.32.026.254.254,0,0,0,.117-.247,2.91,2.91,0,0,0-.1-.448,1.159,1.159,0,0,1-.064-.566c.135-.647.074-.6.618-.38a6.043,6.043,0,0,0,1.106.3c.432.086.877.081,1.3.2a.873.873,0,0,0,.342.012,5.8,5.8,0,0,0,1.885-.468,1.457,1.457,0,0,1,.262-.117,4.155,4.155,0,0,0,1.753-1.344c.154-.16.106-.408.267-.583a1.3,1.3,0,0,1,.72.525,3.447,3.447,0,0,1,.433.808,1.266,1.266,0,0,1-.041,1.007,2.561,2.561,0,0,1-.8,1.035,1.145,1.145,0,0,0-.309.252,2.449,2.449,0,0,1-.962.692,12.856,12.856,0,0,1-2.916,1.023,5.689,5.689,0,0,0-1.107.472,5.056,5.056,0,0,1-.458.234,1.383,1.383,0,0,0-.41.306,1.629,1.629,0,0,0-.42,1.793,2.9,2.9,0,0,1-.126,1.841,2.319,2.319,0,0,1-1.066,1.281,5.022,5.022,0,0,1-1.484.6,1.077,1.077,0,0,1-.511-.017,2.275,2.275,0,0,1-1.307-.881,7.246,7.246,0,0,1-.725-1.3c-.2-.434-.409-.862-.639-1.282a8.094,8.094,0,0,0-1.5-1.878,4.334,4.334,0,0,1-.327-.322,3.631,3.631,0,0,0-1.338-.969,8.42,8.42,0,0,0-2.209-.784.312.312,0,0,1-.113-.018,6.232,6.232,0,0,0-1.936-.48,2.591,2.591,0,0,1-.322-.118,12.06,12.06,0,0,0-1.4-.3.687.687,0,0,1-.165-.046c-1.143-.428-2.318-.768-3.435-1.265a.355.355,0,0,1-.1-.051.179.179,0,0,1-.047-.094c-.009-.047.019-.071.069-.07a7.819,7.819,0,0,1,1.2.043,2.108,2.108,0,0,0,1.28-.171c.174-.079.349-.152.524-.228a1.639,1.639,0,0,1,1.379-.414,2.789,2.789,0,0,0,.343.025.781.781,0,0,1,.648.309,3.565,3.565,0,0,0,2.348,1.183c.074.014.153.008.229.019a2.21,2.21,0,0,1,1.689.841,1.555,1.555,0,0,0,.33.317.807.807,0,0,0,.464.208c.133.006.285.027.368-.1.1-.155-.043-.249-.137-.33a6.975,6.975,0,0,1-.82-.88,2.205,2.205,0,0,0-1.417-.8c-.435-.065-.87-.131-1.3-.207a2.22,2.22,0,0,1-.495-.139,1.48,1.48,0,0,1-.912-1.462,2.291,2.291,0,0,1,.422-1.228.54.54,0,0,1,.532-.253,5.092,5.092,0,0,1,.9.16c.055.013.1.047.159.065.213.071.4.044.4-.057,0-.162-.129-.229-.244-.286a2.254,2.254,0,0,0-.43-.155,6.389,6.389,0,0,0-2.159-.2,1.711,1.711,0,0,0-.813.246,2.522,2.522,0,0,1-.515.249,1.075,1.075,0,0,0-.438.265,1.375,1.375,0,0,1-1.32.342,5.245,5.245,0,0,1-.667-.166,1.14,1.14,0,0,1-.227-.01,2.036,2.036,0,0,0-2,.529.822.822,0,0,1-.8.194,3.523,3.523,0,0,0-.505-.092c-.374-.023-.454.041-.612.434-.214-.009-.334-.173-.463-.3-.644-.655-1.277-1.321-1.919-1.979a8.02,8.02,0,0,0-1.207-1.146c-.508-.342-1-.7-1.505-1.053a22.518,22.518,0,0,0-3.076-1.67,7.185,7.185,0,0,0-3.986-.575A2.2,2.2,0,0,0,654.185,378a3.125,3.125,0,0,0-.554,2.292.815.815,0,0,1,.009.172,4.918,4.918,0,0,0,.79,2.55,13.49,13.49,0,0,0,2.133,2.772,50.359,50.359,0,0,0,4.669,4.088c.594.453,1.206.882,1.771,1.375a4.55,4.55,0,0,0,.814.537,7.453,7.453,0,0,1,.777.489c.513.37,1.023.742,1.56,1.078a5.24,5.24,0,0,1,.548.417c.148.122.134.241-.036.287a7.4,7.4,0,0,1-1.8.356c-.5.008-1,.006-1.494.016a2.749,2.749,0,0,1-.683-.077,17.289,17.289,0,0,0-1.745-.356,3.041,3.041,0,0,1-.5-.12c-1.064-.319-2.139-.6-3.221-.852a3.776,3.776,0,0,1-.381-.125c-.307-.108-.616-.211-.919-.329-.8-.311-1.625-.586-2.4-.957-.831-.4-1.673-.763-2.513-1.136a17.375,17.375,0,0,1-1.662-.785c-.3-.172-.608-.325-.919-.473-.4-.189-.805-.359-1.2-.547a5.046,5.046,0,0,0-.753-.28c-.534-.153-1.063-.323-1.595-.482a8.86,8.86,0,0,0-2.655-.418,5.25,5.25,0,0,0-3.213,1.055,1.158,1.158,0,0,1-.147.09,6.681,6.681,0,0,0-2.168,2.18,13.34,13.34,0,0,0-.78,1.341.808.808,0,0,1-.508.422c-1.205.4-2.291,1.066-3.448,1.575-.279.123-.547.267-.837.372a7.409,7.409,0,0,0-2.373,1.376,5.766,5.766,0,0,1-.886.627,6.217,6.217,0,0,0-1.614,1.181,1.179,1.179,0,0,1-.329.228,7.885,7.885,0,0,0-1.273.884q-.819.677-1.629,1.365c-.525.447-1.072.874-1.557,1.361a5.082,5.082,0,0,1-1.883,1.066.561.561,0,0,1-.5-.011,1.348,1.348,0,0,1-.7-.726c-.056-.182-.153-.353-.207-.536a11.351,11.351,0,0,0-.686-1.643,6.36,6.36,0,0,0-1.312-1.941c-.222-.21-.408-.457-.612-.686A14.174,14.174,0,0,0,613.413,395c-.245-.181-.465-.4-.692-.6-.4-.36-.791-.725-1.189-1.085-.794-.721-1.6-1.435-2.384-2.163a4.884,4.884,0,0,1-1.552-2.88c-.05-.3-.1-.6-.151-.907a1.153,1.153,0,0,1,.21-.927,8.873,8.873,0,0,1,1.147-1.36,4.061,4.061,0,0,0,.766-.926,1.743,1.743,0,0,0-.274-2.342,9.383,9.383,0,0,0-2.219-1.527,2.852,2.852,0,0,0-1.212-.322.266.266,0,0,1-.266-.11,1.586,1.586,0,0,0-1.274.736c-.364.706-5.827-2.661-7.343-3s-4.479-1.092-5.153.228,1.819,2.87,2.492,3.308S599.131,384.071,600.8,386.223ZM665.863,444c.1-.1.193-.088.285.048a13.342,13.342,0,0,0,1.952,1.938,2.027,2.027,0,0,0,.364.28,7.543,7.543,0,0,1,1.225.947,5.791,5.791,0,0,0,.885.637,2.8,2.8,0,0,1,.335.22,14.8,14.8,0,0,1,2.219,2.318,4.529,4.529,0,0,1,.673,1.45,1.087,1.087,0,0,1-.51,1.385.784.784,0,0,1-.265.1,4.112,4.112,0,0,1-2.2-.174,6.453,6.453,0,0,1-1.907-1.041.859.859,0,0,0-.185-.135,7.518,7.518,0,0,1-1.4-1c-.529-.41-1.087-.784-1.61-1.2a5.945,5.945,0,0,1-1.232-1.277.726.726,0,0,0-.727-.345,2.119,2.119,0,0,0-.664.172c-.229.1-.45.212-.674.32a.676.676,0,0,1-.8-.118,5.178,5.178,0,0,1-1.414-1.923,6.144,6.144,0,0,1-.251-1.432,4.338,4.338,0,0,1,.126-.943,5.291,5.291,0,0,1,.589-1.61,1.184,1.184,0,0,1,.174-.223.12.12,0,0,1,.2.024,1.871,1.871,0,0,1,.125.319,6.67,6.67,0,0,0,.444,1,1.637,1.637,0,0,0,.892.773,3.91,3.91,0,0,0,2.143.213,1.03,1.03,0,0,0,.472-.194A8.286,8.286,0,0,0,665.863,444Zm-4.156-2.38a.441.441,0,0,0,.138-.307c.03-.207.065-.414.091-.622.072-.579.17-.657.731-.572.188.029.381.042.565.089a4,4,0,0,0,1.253.052c.152-.01.3-.027.457-.03a.234.234,0,0,1,.28.22,2.9,2.9,0,0,1,.072.909,3.154,3.154,0,0,0,.192,1.18,1.3,1.3,0,0,1-.089.993.9.9,0,0,1-.375.414,1.955,1.955,0,0,1-1.7.217c-.178-.067-.354-.146-.537-.195a1.253,1.253,0,0,1-.8-.758c-.138-.293-.235-.605-.377-.9C661.471,442.046,661.423,441.821,661.707,441.619Zm-58.016-53.13c-.334.394-.39.386-.613-.053a8.579,8.579,0,0,0-1.02-1.452c-.54-.67-1.1-1.321-1.653-1.982-.161-.194-.14-.3.069-.4a10.832,10.832,0,0,1,1.619-.569,1.349,1.349,0,0,1,.454-.022c.592.044,1.182.1,1.773.147a1.737,1.737,0,0,1,.883.385,3.793,3.793,0,0,1,1.629,2.6,4.438,4.438,0,0,0,.125.557c.072.263-.045.39-.326.4-.057,0-.114,0-.192,0a2.2,2.2,0,0,1-.264-.034,4.6,4.6,0,0,0-1.88.022.813.813,0,0,0-.569.349A.492.492,0,0,1,603.691,388.489Zm91.279.46a1.574,1.574,0,0,0,.14-.25,2.755,2.755,0,0,1,1.319-1.3,1.471,1.471,0,0,0,.552-.481c.122-.194.253-.385.356-.589a2.058,2.058,0,0,0,.092-1.876c-.016-.035-.034-.069-.047-.105-.078-.223-.033-.328.189-.386.35-.093.7-.193,1.058-.257a10.139,10.139,0,0,1,2.059-.143,2.223,2.223,0,0,1,1.27.471.8.8,0,0,1,.293.412,1.8,1.8,0,0,1,.121,1.1,2.15,2.15,0,0,1-.256,1.243,2.212,2.212,0,0,1-.957,1.034c-.22.113-.42.266-.638.386a1.646,1.646,0,0,0-.838,1.04.923.923,0,0,1-.4.542,8.609,8.609,0,0,1-2.808,1.256c-.166.038-.343.027-.511.059a.563.563,0,0,1-.646-.346,5.082,5.082,0,0,1-.431-.872A1.033,1.033,0,0,1,694.97,388.949Zm-4.775,1.336a1.977,1.977,0,0,1,.674-.427c.3-.124.593-.266.893-.391a2.943,2.943,0,0,1,.542-.187,12.715,12.715,0,0,0,2.077-.657.242.242,0,0,1,.158-.012c.071.029.046.1.014.144a1.7,1.7,0,0,0-.115,1.648,3.652,3.652,0,0,0,.8,1.247,13.685,13.685,0,0,0,1.526,1.392q1.85,1.5,3.708,3a1.1,1.1,0,0,1,.177.145c.118.153.372.207.343.467-.217.076-.352-.1-.523-.169a15.1,15.1,0,0,1-1.954-.968,9.544,9.544,0,0,0-1.208-.528c-1.537-.588-3.063-1.2-4.593-1.81a6.32,6.32,0,0,0-1.7-.679c-.256-.078-.5-.191-.754-.278a.339.339,0,0,1-.253-.339c-.012-.325-.03-.65-.041-.88A.767.767,0,0,1,690.2,390.285Zm-20.745-6.438a1.2,1.2,0,0,0,1.026-.388,1.073,1.073,0,0,1,1.04-.346c.377.06.751.129,1.127.2a3.216,3.216,0,0,1,.393.061,1.489,1.489,0,0,0,1.435-.335,2.632,2.632,0,0,1,.664-.434,3.929,3.929,0,0,0,.543-.315.893.893,0,0,1,.358-.168.23.23,0,0,1,.157.035c.046.035.033.1,0,.148a2.9,2.9,0,0,0-.345.59,2.106,2.106,0,0,0-.192.937c.02.355-.024.38-.389.362a2.4,2.4,0,0,1-.4-.039,2.022,2.022,0,0,0-1.435.214.91.91,0,0,1-.218.058,1.92,1.92,0,0,1-1.325.39,4.529,4.529,0,0,0-1.7.04,1.067,1.067,0,0,1-1.059-.268c-.3-.265-.615-.511-.923-.766a.341.341,0,0,1-.157-.217A7.472,7.472,0,0,0,669.45,383.847Zm-2.986,8.739q-1.136-.67-2.274-1.335a2.061,2.061,0,0,1-.2-.117c-.593-.449-1.228-.84-1.806-1.31-.967-.785-1.955-1.543-2.9-2.351a25.912,25.912,0,0,1-3.208-3.041,15.006,15.006,0,0,1-1.359-1.915,5.25,5.25,0,0,1-.629-2.478,3.363,3.363,0,0,1,.463-1.754.675.675,0,0,1,.165-.232,2.583,2.583,0,0,1,1.946-.676,5.118,5.118,0,0,0,.971.049,2.381,2.381,0,0,1,.622.063,7.254,7.254,0,0,1,2.428,1c.528.344,1.093.631,1.648.931a1.788,1.788,0,0,1,.475.318,3.209,3.209,0,0,0,.972.7,2.444,2.444,0,0,1,.674.531c.094.1.179.2.27.3l2.033,2.187a1.9,1.9,0,0,0,.16.164c.884.732,1.693,1.555,2.647,2.2a1.284,1.284,0,0,0,.408.2,12.841,12.841,0,0,1,1.8.746,8.9,8.9,0,0,0,1.463.5,5.057,5.057,0,0,1,.544.176,5.6,5.6,0,0,0,1.492.4.628.628,0,0,1,.224.048,3.714,3.714,0,0,0,.888.2,15.607,15.607,0,0,1,3.753,1.221,5.651,5.651,0,0,1,1.82,1.46,8.382,8.382,0,0,1,1.41,2.221,7.871,7.871,0,0,0,.6,1.173,4.141,4.141,0,0,0,1.523,1.45,2.045,2.045,0,0,0,1.719.134,6.875,6.875,0,0,0,1.754-.968,1.289,1.289,0,0,0,.3-.346,4.158,4.158,0,0,0,.732-1.669c.033-.23.152-.3.363-.2.328.156.645.336.967.505.593.313,1.17.659,1.781.93a31.137,31.137,0,0,0,3.709,1.531,4.126,4.126,0,0,1,.842.363,23.414,23.414,0,0,0,2.129,1,4.422,4.422,0,0,1,.814.422,1.875,1.875,0,0,0,.966.332.469.469,0,0,0,.511-.67,1.281,1.281,0,0,0-.227-.394c-.185-.22-.388-.424-.588-.63-.066-.069-.15-.12-.215-.19a25.219,25.219,0,0,0-3.124-2.611c-.527-.412-1.033-.853-1.544-1.285a.141.141,0,0,1,.053-.261c.4-.116.806-.233,1.2-.383a5.882,5.882,0,0,0,.834-.382c.367-.21.76-.36,1.144-.533a.336.336,0,0,1,.41.044,12.643,12.643,0,0,0,2.306,1.5c.995.5,1.967,1.032,2.949,1.55a3.553,3.553,0,0,1,.588.353c.391.312.833.544,1.247.819a15.176,15.176,0,0,1,3.012,2.37,10.26,10.26,0,0,1,1.23,1.728,1.832,1.832,0,0,1,.233,1.094,4.315,4.315,0,0,1-.508,1.746,2.424,2.424,0,0,1-1.01.984,11.957,11.957,0,0,1-3.322,1.236,11.419,11.419,0,0,1-1.708.2,2.95,2.95,0,0,1-.856-.078c-1.044-.239-2.082-.5-3.1-.83a5.087,5.087,0,0,1-.541-.189,26.739,26.739,0,0,0-3.327-1.071,16.633,16.633,0,0,1-1.833-.663,32.77,32.77,0,0,0-3.3-1.172c-.365-.112-.727-.239-1.085-.371-.165-.061-.172-.178-.024-.294a3.4,3.4,0,0,1,.469-.328,2.7,2.7,0,0,0,1.118-1.273.622.622,0,0,0,.015-.553.2.2,0,0,0-.284-.1,1.545,1.545,0,0,0-.551.495,4.887,4.887,0,0,1-1.036.985,2.173,2.173,0,0,1-.444.261c-.3.132-.6.242-.9.37a9.956,9.956,0,0,1-3.732.821,1.168,1.168,0,0,0-.282.043,2.8,2.8,0,0,1-1.192-.006c-1.136-.179-2.227-.56-3.365-.725-.075-.011-.146-.048-.222-.058-.433-.06-.718-.252-.679-.742a4,4,0,0,0-1.694-2.505c-.223-.148-.456-.283-.687-.417a1.963,1.963,0,0,0-.586-.228,4.482,4.482,0,0,1-1.218-.5,14.54,14.54,0,0,1-3.24-2.458,6.392,6.392,0,0,1-.455-.516c-.519-.637-1.064-1.25-1.549-1.917-.449-.617-.992-1.166-1.5-1.74-.266-.3-.54-.6-.814-.892a8.725,8.725,0,0,0-1.343-1.165c-.889-.633-1.765-1.283-2.644-1.929a2.533,2.533,0,0,1-.3-.265,24.774,24.774,0,0,1-2-2.14,1.436,1.436,0,0,0-.419-.371.324.324,0,0,0,.02.3,4.522,4.522,0,0,0,.6.979c.407.507.828,1,1.256,1.492a8.135,8.135,0,0,0,1.492,1.254q1.293.911,2.511,1.918a1.769,1.769,0,0,1,.289.278c.453.6.974,1.134,1.46,1.7.574.667,1.12,1.359,1.688,2.031.37.438.757.862,1.108,1.319a3.853,3.853,0,0,0,.468.42c.213.2.2.368-.063.491a2.766,2.766,0,0,0-1.207,1.028c-.176.272-.322.564-.481.847-.028.05-.052.1-.083.151a.129.129,0,0,1-.194.047,1.733,1.733,0,0,1-.261-.222,24.067,24.067,0,0,0-3.136-2.6A4.944,4.944,0,0,0,666.464,392.586Zm7.265,5.256a.783.783,0,0,0-.513-.232,2.37,2.37,0,0,0-.742.018,2.769,2.769,0,0,1-.393.08.76.76,0,0,1-.859-.419c-.162-.325-.341-.64-.509-.962a.384.384,0,0,1,0-.385,4.192,4.192,0,0,1,1.75-1.912.812.812,0,0,1,1,.1,9.983,9.983,0,0,0,1.981,1.257,9.453,9.453,0,0,0,1.432.584,4.247,4.247,0,0,1,1.553.952,2.671,2.671,0,0,1,.9,1.808,3.027,3.027,0,0,1-.5,1.738,6.948,6.948,0,0,1-.89,1.048,1.307,1.307,0,0,1-1.175.529,2.116,2.116,0,0,1-.775-.074,2.464,2.464,0,0,0-1.523-.076.448.448,0,0,1-.43-.092c-.3-.242-.59-.485-.879-.735a.882.882,0,0,1-.172-.228.25.25,0,0,1,.127-.376,3.272,3.272,0,0,1,.324-.114c.127-.041.26-.067.383-.118a.826.826,0,0,0,.55-.739A1.993,1.993,0,0,0,673.729,397.842Zm-38.432-.351a13.8,13.8,0,0,1,.484-3.112,8.5,8.5,0,0,1,.611-1.609,15.858,15.858,0,0,1,1.032-1.856,4.141,4.141,0,0,1,1.373-1.363c.4-.228.733-.551,1.142-.767a2.763,2.763,0,0,1,.743-.3c.432-.086.86-.19,1.291-.28a1.055,1.055,0,0,1,.286-.02,11.405,11.405,0,0,1,1.822.214,19.4,19.4,0,0,1,4.007,1.389q1.345.645,2.7,1.269c.331.151.664.294,1,.441a3.4,3.4,0,0,1,.605.327,5.572,5.572,0,0,0,1.151.512c.564.238,1.138.45,1.712.665.25.093.508.166.763.248a1.994,1.994,0,0,1,.219.07,17.118,17.118,0,0,0,2.755.787c.369.1.734.218,1.106.3.781.183,1.565.354,2.349.523a2,2,0,0,0,.457.038,19.354,19.354,0,0,0,2.466-.091c.414-.064.838-.057,1.253-.148a3.483,3.483,0,0,0,.772-.209.528.528,0,0,1,.548.017,7.646,7.646,0,0,1,1.462,1,3.6,3.6,0,0,0,.38.351,2.446,2.446,0,0,1,.708.961c.138.314.3.62.443.931.071.152-.006.271-.175.261-.4-.023-.8-.04-1.2-.09a4.148,4.148,0,0,0-1.533.164,1.32,1.32,0,0,0-.588.346,15.185,15.185,0,0,1-1.462,1.205,1.24,1.24,0,0,0-.249.236,4.388,4.388,0,0,1-.966.894,4.114,4.114,0,0,0-1.309,1.647,1.176,1.176,0,0,0,1.067,1.707,3.778,3.778,0,0,0,1.5-.366.281.281,0,0,0,.1-.063,8.264,8.264,0,0,0,1.4-1.431,2.88,2.88,0,0,1,.975-1.034,5.442,5.442,0,0,0,.6-.533,1.623,1.623,0,0,1,.686-.4,5.3,5.3,0,0,1,2.219-.066c.241.05.434.132.446.43a.63.63,0,0,0,.126.316,4.122,4.122,0,0,0,1.194,1.145,1.522,1.522,0,0,0,.993.223,3.43,3.43,0,0,1,1.632.214,1.59,1.59,0,0,0,1.7-.384,5.815,5.815,0,0,1,.642-.572.457.457,0,0,1,.535-.017c.12.067.156.165.075.278a1.326,1.326,0,0,1-.223.26,3.8,3.8,0,0,1-.465.334A17.487,17.487,0,0,0,676.9,403.6a3.864,3.864,0,0,1-1.438.559,7.175,7.175,0,0,0-1.032.342,6.392,6.392,0,0,1-1.663.423,7.6,7.6,0,0,0-1.345.274,10.079,10.079,0,0,1-1.58.28,7.679,7.679,0,0,1-1.314.13c-.206,0-.412.086-.62.1-.764.06-1.529.106-2.293.158l0-.055c-.345,0-.69-.017-1.034,0a10.776,10.776,0,0,1-2.684-.231,22.948,22.948,0,0,1-2.727-.686,10.336,10.336,0,0,1-2.864-1.56,13.83,13.83,0,0,0-1.177-.821,9.758,9.758,0,0,1-1.313-1.023,16.794,16.794,0,0,1-2.246-2.453c-.381-.48-.747-.973-1.1-1.47a3.249,3.249,0,0,1-.549-1,2.975,2.975,0,0,0-.41-.755.539.539,0,0,0-.16-.159.3.3,0,0,0-.16-.037c-.077,0-.083.072-.089.125a1.013,1.013,0,0,0,.043.453,7.338,7.338,0,0,0,1.094,2.134,4.677,4.677,0,0,1,.293.422,3.7,3.7,0,0,0,.518.685c.175.175.314.385.474.576a23.856,23.856,0,0,0,2.226,2.315,16.031,16.031,0,0,0,1.5,1.062c1.071.774,2.21,1.444,3.319,2.16a19.354,19.354,0,0,1,2.158,1.715c.405.352.794.722,1.183,1.091a6.326,6.326,0,0,0,1.1.918,3.863,3.863,0,0,1,.969.973.214.214,0,0,1-.066.339.614.614,0,0,1-.1.051,10.245,10.245,0,0,0-2.554,1.4,20.238,20.238,0,0,0-2.73,2.44,15.751,15.751,0,0,0-1.14,1.573,1.235,1.235,0,0,1-.122.194c-.194.28-.242.3-.56.121-1.075-.59-2.161-1.155-3.255-1.707a15.183,15.183,0,0,1-1.91-1.166c-.484-.342-1.006-.628-1.506-.948q-1.163-.741-2.314-1.5c-.24-.158-.464-.339-.689-.519a9.951,9.951,0,0,0-.982-.7,9.807,9.807,0,0,1-.867-.661c-.453-.353-.885-.738-1.361-1.056a39.519,39.519,0,0,1-3.592-2.76,10.816,10.816,0,0,0-1.185-.908,6.829,6.829,0,0,1-1.839-1.873,3.448,3.448,0,0,0-.267-.373,6.12,6.12,0,0,1-1.371-2.62A7.131,7.131,0,0,1,635.3,397.491Zm-15.248,5.632a2.255,2.255,0,0,1,.263-.112,3.888,3.888,0,0,0,1.41-.863,1.884,1.884,0,0,1,.36-.284,9.2,9.2,0,0,0,1.4-1.1c.743-.633,1.483-1.269,2.255-1.867.727-.564,1.444-1.14,2.2-1.665.659-.46,1.311-.934,1.995-1.355a17.482,17.482,0,0,1,2.577-1.256,1.538,1.538,0,0,0,.318-.126c.538-.378,1.18-.547,1.742-.875a1.978,1.978,0,0,1,.213-.086c.141-.06.31-.164.433-.08.152.1.026.28-.008.423-.1.409-.215.814-.3,1.226a10.134,10.134,0,0,0-.231,1.819c-.007.306-.024.61-.041.914a3.932,3.932,0,0,0,.112,1.022,9.021,9.021,0,0,0,1.1,2.883c.162.264.363.492.546.737.218.292.434.585.657.872a.522.522,0,0,1,.126.37c.128.12.259.235.391.35h0l-5.131,3.04h0a6.522,6.522,0,0,1-1.664.758c-.622.191-1.232.419-1.845.635-.652.23-1.336.336-2,.522-.7.2-1.436.228-2.134.443a4.293,4.293,0,0,1-1.072.172c-.342.016-.682.092-1.022.142-.1.014-.189.036-.284.045-.194.017-.27-.052-.285-.263-.008-.115,0-.23,0-.345a9.8,9.8,0,0,0-.47-3.051,7.626,7.626,0,0,0-1.073-2.211,3.057,3.057,0,0,0-.568-.563A.154.154,0,0,1,620.049,403.123Zm-12.12-12.4a2.858,2.858,0,0,0,.665.782c.572.48,1.124.983,1.684,1.477.963.849,1.9,1.732,2.895,2.537a25.693,25.693,0,0,1,2.972,3.03,3.916,3.916,0,0,1,.786,1.259,5.692,5.692,0,0,0,.248.518,7.124,7.124,0,0,1,.537,1.451,1.849,1.849,0,0,0,.878,1.224,8.9,8.9,0,0,1,1.247,1.011,2.54,2.54,0,0,1,.665.926c.177.4.348.808.509,1.218a7.472,7.472,0,0,1,.447,2.82c0,.21,0,.42,0,.63.005.25-.047.349-.268.351-.8.01-1.6.144-2.4.126-.517-.012-1.031-.056-1.545-.111a.475.475,0,0,1-.114-.01,15.372,15.372,0,0,0-1.89-.464,5.809,5.809,0,0,1-2.125-1.085,7.832,7.832,0,0,1-.914-.783,18.7,18.7,0,0,1-1.706-1.94c-.127-.168-.248-.341-.358-.52a15.931,15.931,0,0,1-1.788-3.9,2.256,2.256,0,0,1-.058-.281c-.143-.927-.284-1.855-.429-2.782a5.313,5.313,0,0,0-.146-.788c-.327-1.039-.571-2.1-.967-3.123a5.93,5.93,0,0,0-.653-1.207,2.656,2.656,0,0,1-.226-.331,20.651,20.651,0,0,0-1.528-2.429c-.16-.239-.318-.479-.459-.729a.419.419,0,0,1,.076-.571,2.067,2.067,0,0,1,1.019-.5,2.655,2.655,0,0,1,1.943.283.45.45,0,0,1,.241.3A6.738,6.738,0,0,0,607.929,390.719Zm-2.272-10.026a.939.939,0,0,1,.829-.082,1.774,1.774,0,0,1,.271.094,8.525,8.525,0,0,1,1.928,1.231c.1.092.193.187.283.286a1.161,1.161,0,0,1,.135,1.606,5.482,5.482,0,0,1-.934,1.153c-.219.214-.409.456-.608.689a.982.982,0,0,1-.429.369,1.638,1.638,0,0,1-.393-.629,3.5,3.5,0,0,0-2.036-1.75,1.653,1.653,0,0,0-.9-.089,1.611,1.611,0,0,1-.684-.006,3.7,3.7,0,0,0-1.25.016,8.763,8.763,0,0,0-1.881.49.493.493,0,0,1-.571-.123c-.43-.409-.882-.794-1.318-1.2a6.306,6.306,0,0,0-.543-.422c-.431-.318-.842-.665-1.273-.983a18.962,18.962,0,0,0-1.956-1.3c-.467-.262-.909-.569-1.362-.855a.64.64,0,0,1-.282-.478.507.507,0,0,1,.232-.546,2.033,2.033,0,0,1,1.137-.35,3.6,3.6,0,0,1,1.505.321,9.2,9.2,0,0,0,1.125.43,2.62,2.62,0,0,1,.524.227,6.458,6.458,0,0,0,1.593.643,7.581,7.581,0,0,1,1.488.6,14.894,14.894,0,0,0,2.275.951,10.642,10.642,0,0,0,1.4.306,1.646,1.646,0,0,0,1.049-.23C605.229,380.946,605.445,380.823,605.657,380.693Z" fill="lime"/>
    </g>
  </g>
</svg>
