<svg xmlns="http://www.w3.org/2000/svg" width="180.685" height="47.552" viewBox="0 0 180.685 47.552">
  <g id="Group_3" data-name="Group 3" transform="translate(-62.238 -48.429)">
    <path id="Path_1" data-name="Path 1" d="M89.083,83.485a29.312,29.312,0,0,1-7.821,1.493,20.093,20.093,0,0,1-8.719-2A16.27,16.27,0,0,1,65.812,77a17.729,17.729,0,0,1-2.566-9.769,20.235,20.235,0,0,1,1.924-8.641,15.55,15.55,0,0,1,5.94-6.617,18.7,18.7,0,0,1,10.1-2.541,23.506,23.506,0,0,1,8.027,1.52V62.441a10.116,10.116,0,0,0-6.785-2.677,7.534,7.534,0,0,0-5.224,1.912,6.93,6.93,0,0,0-2.137,5.4,8.277,8.277,0,0,0,1.695,5.109,6.232,6.232,0,0,0,5.288,2.306,12.524,12.524,0,0,0,7.349-2.7Zm13.72.539a7.328,7.328,0,0,1-9.421.027,5.2,5.2,0,0,1,0-8.152,7.328,7.328,0,0,1,9.421.027,5.1,5.1,0,0,1,0,8.1Zm22.633-23.4h-6.515a.5.5,0,0,0-.5.5V84.114H106.9V61.132a.5.5,0,0,0-.5-.5H99.88V50.136h25.556Zm21.431,23.486-5.958-11.232a.5.5,0,0,0-.95.236v11H128.6V50.136h14.83a22.3,22.3,0,0,1,7.838,1.209,9.223,9.223,0,0,1,4.692,3.711,12.24,12.24,0,0,1,1.6,6.562c0,4.219-2.092,6.923-6.4,8.265a.5.5,0,0,0-.272.757l8.779,13.474Zm20.737,6-.021-.032h.021Zm.1.153-.054-.083h.054Zm6.649-6.156H162.618V50.136h11.734Zm19.886,0H178.059V50.136h16.233c3.468,0,6.216.764,8.168,2.27a7.047,7.047,0,0,1,2.882,5.918,8.119,8.119,0,0,1-1.243,4.981,9.309,9.309,0,0,1-4.051,2.7.5.5,0,0,0,.06.959c4.5,1.134,6.692,3.588,6.692,7.5C206.8,80.959,202.691,84.114,194.238,84.114Zm38.1,0H209.7V50.136h22.424v8.548H221.557a.5.5,0,0,0-.5.5v3.348a.5.5,0,0,0,.5.5h9.484v7.954h-9.484a.5.5,0,0,0-.5.5V75.17a.5.5,0,0,0,.5.5h10.78Z" fill="#fff"/>
    <path id="Path_2" data-name="Path 2" d="M189.271,63.259h2.753c1.857,0,2.88-1.08,2.88-3.042a2.585,2.585,0,0,0-.8-2.054,2.92,2.92,0,0,0-1.977-.663h-2.861a.5.5,0,0,0-.5.5v4.751A.5.5,0,0,0,189.271,63.259Z" fill="lime"/>
    <path id="Path_3" data-name="Path 3" d="M242.823,85.4v-.1h-.1v-.1h-.1v-.1h-.1v-.1h-.1v-.1h-.1v-.1h-.1v-.1h-.1v-.1h-.1v-.1h-.1v-.1h-.1v-.1h-.1v-.1h-.1v-.1h-.1v-.1h-.1v-.1h-.1v-.1h-.1v-.1h-.1v-.1h-.1v-.1h-.1v-.1h-.1v-.1h-.1v-.1h-.1v-.1h-.1v-.1h-.1v-.1h-.1v-.1h-.1v-.1h-.1v-.1h-.1v-.1h-.1v-.1h-.1v-.1h-.1v-.1h-.1v-.1h-.1v-.1h-.1v-.1h-.1v-.1h-.1v-.027h2.4V72.765h-.1v-.1h-.1v-.1h-.1v-.1h-.1v-.1h-.1v-.1h-.1v-.1h-.1v-.1h-.1v-.1h-.1v-.1h-.1v-.1h-.1v-.1h-.1v-.1h-.1v-.1h-.1v-.1h-.1v-.1h-.1v-.1h-.1v-.1h-.1v-.1h-.1v-.1h-.1v-.1h-.1v-.1h-.1v-.1h-.1v-.1h-.1v-.1h-.1v-.1h-.1v-.1h-.1v-.1h-.1v-.1h-.1v-.1h-.1v-.1h-.1v-.1h-.1v-.1h-.1v-.1h-.1v-.007h4.474V59.86h-.1v-.1h-.1v-.1h-.1v-.1h-.1v-.1h-.1v-.1h-.1v-.1h-.1v-.1h-.1v-.1h-.1v-.1h-.1v-.1h-.1v-.1h-.1v-.1h-.1v-.1h-.1v-.1h-.1v-.1h-.1v-.1h-.1v-.1h-.1v-.1h-.1v-.1h-.1v-.1h-.1v-.1h-.1v-.1h-.1v-.1h-.1v-.1h-.1v-.1h-.1v-.1h-.1v-.1h-.1v-.1h-.1v-.1h-.1v-.1h-.1v-.1h-.1v-.1h-.1v-.1h-.1v-.1h-.1v-.1h-.1v-.1h-.1v-.1h-.1v-.1h-.1v-.1h-.1v-.1h-.1v-.1h-.1v-.1h-.1v-.1h-.1v-.1h-.1v-.1h-.1v-.1h-.1v-.1h-.1V55h-.1v-.1h-.1v-.1h-.1v-.1h-.1v-.1h-.1v-.1h-.1v-.1h-.1v-.1h-.1v-.1h-.1v-.1h-.1v-.1h-.1v-.1h-.1v-.1h-.1v-.1h-.1v-.1h-.1v-.1h-.1v-.1h-.1v-.1h-.1v-.1h-.1v-.1h-.1v-.1h-.1v-.1h-.1v-.1h-.1v-.1h-.1v-.1h-.1v-.1h-.1v-.1h-.1v-.1h-.1v-.1h-.1v-.1h-.1v-.1h-.1v-.1h-.1v-.1h-.1v-.1h-.1v-.1h-.1v-.1h-.1v-.1h-.1v-.1h-.1v-.1h-.1v-.1h-.1v-.1h-.1v-.1h-.1v-.1h-.1v-.1h-.1v-.1h-.1v-.1h-.1v-.1h-.1v-.1h-.1v-.607a.5.5,0,0,0-.5-.5H209.193a.5.5,0,0,0-.5.5V57.9l-.079-.08c-.032-.034-.067-.067-.1-.1s-.067-.068-.1-.1-.067-.067-.1-.1-.067-.067-.1-.1-.067-.067-.1-.1-.066-.068-.1-.1-.067-.068-.1-.1-.067-.067-.1-.1-.067-.067-.1-.1-.067-.068-.1-.1-.067-.067-.1-.1l-.1-.1c-.032-.034-.067-.067-.1-.1s-.067-.068-.1-.1-.067-.067-.1-.1-.067-.067-.1-.1l-.1-.1c-.032-.035-.067-.068-.1-.1s-.067-.068-.1-.1-.067-.067-.1-.1-.067-.067-.1-.1-.068-.067-.1-.1-.067-.068-.1-.1-.067-.067-.1-.1-.067-.067-.1-.1-.067-.067-.1-.1-.067-.068-.1-.1-.066-.067-.1-.1-.067-.067-.1-.1-.048-.049-.072-.073a8.249,8.249,0,0,0-2.567-3.2c-2.132-1.646-5.088-2.48-8.784-2.48H177.555a.5.5,0,0,0-.5.5v2.227h-.1v-.1h-.1v-.1h-.1v-.1h-.1v-.1h-.1v-.1h-.1v-.1h-.1v-.1h-.1v-.1h-.1v-.1h-.1v-.1h-.1v-.1h-.1v-.1h-.1v-.1h-.1v-.1h-.1v-.1h-.1v-.1h-.1v-.607a.5.5,0,0,0-.5-.5H162.114a.5.5,0,0,0-.5.5v10.14l-.1-.1c-.033-.035-.066-.068-.1-.1l-.1-.1-.1-.1-.1-.1c-.033-.035-.067-.068-.1-.1l-.1-.1-.1-.1-.1-.1c-.033-.035-.067-.068-.1-.1l-.1-.1c-.033-.034-.066-.068-.1-.1s-.066-.068-.1-.1-.066-.068-.1-.1-.066-.067-.1-.1l-.1-.1c-.033-.034-.066-.068-.1-.1s-.066-.068-.1-.1l-.1-.1c-.032-.034-.066-.067-.1-.1l-.1-.1-.1-.1-.1-.1-.1-.1c-.032-.034-.066-.068-.1-.1l-.1-.1-.1-.1-.1-.1c-.033-.034-.066-.068-.1-.1l-.1-.1-.1-.1-.1-.1c-.033-.034-.066-.068-.1-.1l-.1-.1-.1-.1-.1-.1-.1-.1-.1-.1-.1-.1-.1-.1c-.032-.034-.066-.068-.1-.1l-.1-.1-.1-.1-.014-.013a9.494,9.494,0,0,0-.49-.889,10.206,10.206,0,0,0-5.189-4.118,23.275,23.275,0,0,0-8.2-1.275H128.1a.5.5,0,0,0-.5.5v1.721h-.058v-.1h-.1v-.1h-.1v-.1h-.1v-.1h-.1v-.1h-.1v-.1h-.1v-.1h-.1v-.1h-.1v-.1h-.1v-.1h-.1v-.1h-.1v-.607a.5.5,0,0,0-.5-.5H99.376a.5.5,0,0,0-.5.5V59.9l-.05-.018V59.82l-.1-.037v-.064l-.1-.037v-.065l-.1-.036v-.065l-.1-.036v-.065l-.1-.037v-.064l-.1-.037v-.064l-.1-.037v-.065l-.1-.036V59.01l-.1-.037v-.064l-.1-.037v-.064l-.1-.037v-.065l-.1-.036V58.6l-.1-.037V58.5l-.1-.037V58.4l-.1-.037V58.3l-.1-.036V58.2l-.1-.037V58.1l-.1-.037V58l-.1-.037V57.9l-.1-.036v-.065l-.1-.037v-.064l-.1-.037v-.064l-.1-.037v-.065l-.1-.036V57.39l-.1-.036v-.065l-.1-.037v-.064l-.1-.037v-.065l-.1-.036v-.065l-.1-.036v-.065l-.1-.037v-.064l-.1-.037v-.065l-.1-.036V56.58l-.1-.036v-.065l-.1-.037v-.064l-.1-.037v-.065l-.1-.036v-.065l-.1-.036v-.065l-.1-.037v-.064l-.1-.037v-.065l-.1-.036V55.77l-.1-.036v-.065l-.1-.037v-.064l-.1-.037v-.065l-.1-.036v-.065l-.1-.036v-.065l-.1-.037v-.064l-.1-.037v-.064l-.1-.037V54.96l-.1-.036v-.065l-.1-.037v-.064l-.1-.037v-.064l-.1-.037v-.065l-.1-.036v-.065l-.1-.037v-.064l-.1-.037v-.064l-.1-.037V54.15l-.1-.036v-.065l-.1-.037v-.064l-.1-.037v-.064l-.1-.037v-.065l-.1-.036v-.065l-.1-.037v-.064l-.1-.037v-.064l-.1-.037V53.34l-.1-.036v-.065l-.1-.036v-.065l-.1-.037v-.064l-.1-.037v-.065l-.1-.036v-.065l-.1-.036v-.065l-.1-.037v-.064l-.1-.037V52.53l-.1-.036v-.065l-.1-.036v-.065l-.1-.037v-.064l-.1-.037v-.065l-.1-.036v-.065l-.1-.036v-.065l-.1-.037v-.064l-.1-.037V51.72l-.1-.036v-.065l-.1-.036v-.065l-.1-.037v-.064l-.1-.037v-.064l-.1-.037v-.065l-.1-.035v-.572a.5.5,0,0,0-.326-.472,24.714,24.714,0,0,0-8.709-1.706,19.684,19.684,0,0,0-10.635,2.7,16.541,16.541,0,0,0-6.315,7.043,21.218,21.218,0,0,0-2.019,9.068,18.715,18.715,0,0,0,2.726,10.315,17.357,17.357,0,0,0,5.561,5.478l.034.035.1.1.1.1.1.1.1.1.1.1.1.1.1.1.1.1c.033.034.066.068.1.1s.066.068.1.1l.1.1.1.1.1.1.1.1.1.1.1.1.1.1.1.1.1.1.1.1.1.1.1.1.1.1.1.1.1.1c.033.034.066.068.1.1l.1.1.1.1.1.1.1.1.1.1.1.1.1.1.1.1.1.1.1.1.1.1.1.1.1.1.1.1.1.1c.033.034.066.068.1.1l.1.1.1.1.1.1.1.1.1.1.1.1.1.1.1.1.1.1.1.1.1.1.1.1.1.1.1.1.1.1.1.1c.033.034.066.068.1.1l.1.1.1.1.1.1.1.1.1.1.1.1.1.1.1.1.1.1.1.1.1.1c.034.034.067.068.1.1a16.5,16.5,0,0,0,4.761,3.407,20.473,20.473,0,0,0,8.935,2.052,30.485,30.485,0,0,0,8.315-1.62l.1-3.536.02.02.1.1c.032.034.066.068.1.1s.066.067.1.1l.1.1.1.1c.033.034.066.068.1.1s.066.068.1.1.066.067.1.1.066.067.1.1l.1.1.1.1c.032.034.066.067.1.1s.066.067.1.1.066.068.1.1l.1.1.1.1.1.1c.032.034.066.068.1.1s.066.068.1.1.066.067.1.1l.1.1.1.1c.032.034.066.068.1.1s.066.068.1.1.066.067.1.1l.1.1.1.1c.033.035.066.068.1.1s.066.067.1.1.066.068.1.1.066.068.1.1l.1.1q.228.238.49.465a7.328,7.328,0,0,0,9.421-.027,6.159,6.159,0,0,0,1.4-1.682v.049h.1v.1h.1v.1h.1v.1h.1v.1h.1v.1h.1v.1h.1v.1h.1v.1h.1v.1h.1v.1h.1v.1h.1v.1h.1v.1h.1v.1h.1v.1h.1v.1h.1v.1h.1v.1h.1v.1h.1v.1h.1v.1h.1v.1H129V85.533h.1v.1h.1v.1h.1v.1h.1v.1h.1v.1h.1v.1h.1v.1h.1v.1h.1v.1h.1v.1h.1v.1h.1v.1h.1v.1h.1v.1h.1v.1h.1v.1h.1v.1h.1v.1h.1v.1h.1v.1h.1v.1h.1v.1h.1v.1h.1v.1h.1v.1h.1v.1h.1v.1h.1v.1h.1v.1h.1v.1h.1v.1h.1v.1h.1v.1h.1v.1h.1v.1h.1v.1h.1v.1h.1v.1h.1v.1h.1v.1h.1v.1h.1v.1h.1v.1h.1v.1h.1v.1h.1v.1h.1v.1h.1v.1h.1v.1h.1v.1h.1v.1h.1v.1h.1v.1h.1V91h.1v.1h.1v.1h.1v.1h.1v.1h.1v.1h.1v.1h.1v.1h.1v.1h.1v.1h.1v.1h.1v.1h.1v.1h.1v.1h.1v.1h.1v.1h.1v.1h.1v.1h.1v.1h.1v.1h.1v.1h.1v.1h.1v.1h.1v.1h.1v.1h.1v.1h.1v.1h.1v.1h.1v.1h.1v.1h.1v.1h.1v.1h.1v.1h.1v.1h.1v.1h.1v.1h.1v.1h.1v.1h.1v.1h12.364v-6.2l.012.023h.046l.054.1h.046l.054.1h.046l.053.1h.046l.054.1H151l.054.1h.046l.054.1h.046l.054.1h.046l.053.1h.047l.053.1h.046l.054.1h.046l.054.1h.046l.054.1h.046l.054.1h.046l.053.1H152l.054.1h.046l.054.1h.046l.054.1h.046l.054.1h.046l.053.1h.047l.053.1h.046l.054.1h.046l.054.1h.046l.054.1h.046l.053.1H153l.053.1h.046l.054.1h.046l.054.1h.046l.054.1h.046l.054.1h.046l.053.1h.047l.053.1h.046l.054.1h.046l.054.1h.046l.054.1H154l.054.1h.046l.053.1h.046l.054.1h.046l.054.1h.046l.054.1h.046l.054.1h.046l.053.1h.047l.053.1h.046l.054.1h.046l.054.1h.046l.054.1h.046l.053.1h.047l.053.1h.046l.054.1h.046l.054.1h.046l.054.1h.046l.054.1h.046l.053.1h.046l.054.1h.046l.054.1h.046l.054.1h.046l.054.1h.046l.054.1h.046l.053.1h.046l.054.1h.046l.054.1h.046l.054.1h14.038l-2.969-4.556h.088v.1h.1v.1h.1v.1h.1v.1h.1v.1h.1v.1h.1V91h.1v.1h.1v.1h.1v.1h.1v.1h.1v.1h.1v.1h.1v.1h.1v.1h.1v.1h.1v.1h.1v.1h.1v.1h.1v.1h.1v.1h.1v.1h.1v.1h.1v.1h.1v.1h.1v.1h.1v.1h.1v.1h.1v.1h.1v.1h.1v.1h.1v.1h.1v.1h.1v.1h.1v.1h.1v.1h.1v.1h.1v.1h.1v.1h.1v.1h.1v.1h.1v.1h.1v.1h.1v.1h.1v.1h12.742V92.012h0v.1h.1v.1h.1v.1h.1v.1h.1v.1h.1v.1h.1v.1h.1v.1h.1v.1h.1v.1h.1v.1h.1v.1h.1v.1h.1v.1h.1v.1h.1v.1h.1v.1h.1v.1h.1v.1h.1v.1h.1v.1h.1v.1h.1v.1h.1v.1h.1v.1h.1v.1h.1v.1h.1v.1H204.32q8.08,0,11.161-3.884V91h.1v.1h.1v.1h.1v.1h.1v.1h.1v.1h.1v.1h.1v.1h.1v.1h.1v.1h.1v.1h.1v.1h.1v.1h.1v.1h.1v.1h.1v.1h.1v.1h.1v.1h.1v.1h.1v.1h.1v.1h.1v.1h.1v.1h.1v.1h.1v.1h.1v.1h.1v.1h.1v.1h.1v.1h.1v.1h.1v.1h.1v.1h.1v.1h.1v.1h.1v.1h.1v.1h.1v.1h.1v.1h.1v.1h23.648V85.4Zm-153.74-1.91a29.312,29.312,0,0,1-7.821,1.493,20.079,20.079,0,0,1-8.719-2A16.27,16.27,0,0,1,65.812,77a17.729,17.729,0,0,1-2.566-9.769A20.235,20.235,0,0,1,65.17,58.6a15.55,15.55,0,0,1,5.94-6.617,18.7,18.7,0,0,1,10.1-2.541,23.506,23.506,0,0,1,8.027,1.52V62.444a10.116,10.116,0,0,0-6.785-2.677,7.534,7.534,0,0,0-5.224,1.912,6.93,6.93,0,0,0-2.137,5.395,8.277,8.277,0,0,0,1.695,5.109,6.232,6.232,0,0,0,5.288,2.306,12.524,12.524,0,0,0,7.349-2.7Zm13.72.539a7.33,7.33,0,0,1-9.421.028,5.2,5.2,0,0,1,0-8.153,7.328,7.328,0,0,1,9.421.027,5.1,5.1,0,0,1,0,8.1Zm22.633-23.4h-6.515a.5.5,0,0,0-.5.5V84.117H106.9V61.135a.5.5,0,0,0-.5-.5H99.88V50.139h25.556Zm21.431,23.486-5.958-11.232a.5.5,0,0,0-.95.236v11H128.6V50.139h14.83a22.3,22.3,0,0,1,7.838,1.209,9.223,9.223,0,0,1,4.692,3.711,12.24,12.24,0,0,1,1.6,6.562c0,4.219-2.092,6.923-6.4,8.266a.5.5,0,0,0-.272.756l8.779,13.474Zm20.737,6-.021-.031h.021Zm.1.153-.054-.083h.054Zm6.649-6.156H162.618V50.139h11.734Zm19.886,0H178.059V50.139h16.233c3.468,0,6.216.764,8.168,2.27a7.047,7.047,0,0,1,2.882,5.919,8.118,8.118,0,0,1-1.243,4.98,9.309,9.309,0,0,1-4.051,2.7.5.5,0,0,0,.06.959c4.5,1.134,6.692,3.588,6.692,7.5C206.8,80.962,202.691,84.117,194.238,84.117Zm38.1,0H209.7V50.139h22.424v8.548H221.557a.5.5,0,0,0-.5.5v3.348a.5.5,0,0,0,.5.5h9.484V71h-9.484a.5.5,0,0,0-.5.5v3.672a.5.5,0,0,0,.5.5h10.78Z" fill="lime"/>
    <path id="Path_4" data-name="Path 4" d="M143.055,58.093h-2.592a.5.5,0,0,0-.5.505v6.91a.5.5,0,0,0,.5.5h2.16c2.625,0,4.013-1.463,4.013-4.23a3.716,3.716,0,0,0-1-2.581A3.363,3.363,0,0,0,143.055,58.093Z" fill="lime"/>
    <path id="Path_5" data-name="Path 5" d="M192.186,69.971h-2.915a.5.5,0,0,0-.5.5v5.453a.5.5,0,0,0,.5.5H192.4c2.17,0,3.366-1.157,3.366-3.258C195.768,71.714,195.146,69.971,192.186,69.971Z" fill="lime"/>
  </g>
</svg>
