<svg xmlns="http://www.w3.org/2000/svg" width="180.685" height="47.552" viewBox="0 0 180.685 47.552">
  <g id="Group_48" data-name="Group 48" transform="translate(-62.238 -34.412)">
    <path id="Path_109" data-name="Path 109" d="M89.083,69.468a29.312,29.312,0,0,1-7.821,1.493,20.093,20.093,0,0,1-8.719-2,16.27,16.27,0,0,1-6.731-5.974,17.729,17.729,0,0,1-2.566-9.769,20.235,20.235,0,0,1,1.924-8.641,15.55,15.55,0,0,1,5.94-6.617,18.7,18.7,0,0,1,10.1-2.541,23.506,23.506,0,0,1,8.027,1.52V48.424a10.111,10.111,0,0,0-6.785-2.677,7.534,7.534,0,0,0-5.224,1.912,6.928,6.928,0,0,0-2.137,5.4,8.277,8.277,0,0,0,1.695,5.109,6.232,6.232,0,0,0,5.288,2.306,12.53,12.53,0,0,0,7.349-2.7Zm13.72.539a7.328,7.328,0,0,1-9.421.027,5.2,5.2,0,0,1,0-8.153,7.33,7.33,0,0,1,9.421.028,5.1,5.1,0,0,1,0,8.1Zm22.633-23.4h-6.515a.5.5,0,0,0-.5.5V70.1H106.9V47.115a.5.5,0,0,0-.5-.5H99.88V36.119h25.556ZM146.867,70.1l-5.958-11.232a.5.5,0,0,0-.95.236v11H128.6V36.119h14.83a22.3,22.3,0,0,1,7.838,1.209,9.217,9.217,0,0,1,4.692,3.711,12.24,12.24,0,0,1,1.6,6.562c0,4.219-2.092,6.923-6.4,8.265a.5.5,0,0,0-.272.757L159.672,70.1Zm20.737,6-.021-.032h.021Zm.1.153-.054-.083h.054Zm6.649-6.156H162.618V36.119h11.734Zm19.886,0H178.059V36.119h16.233c3.468,0,6.216.764,8.168,2.27a7.046,7.046,0,0,1,2.882,5.918,8.119,8.119,0,0,1-1.243,4.981,9.309,9.309,0,0,1-4.051,2.7.5.5,0,0,0,.06.959c4.5,1.134,6.692,3.588,6.692,7.5C206.8,66.942,202.691,70.1,194.238,70.1Zm38.1,0H209.7V36.119h22.424v8.548H221.557a.5.5,0,0,0-.5.5v3.348a.5.5,0,0,0,.5.5h9.484v7.954h-9.484a.5.5,0,0,0-.5.5v3.672a.5.5,0,0,0,.5.5h10.78Z" fill="#fff"/>
    <path id="Path_110" data-name="Path 110" d="M189.271,49.242h2.753c1.857,0,2.88-1.08,2.88-3.042a2.585,2.585,0,0,0-.8-2.054,2.921,2.921,0,0,0-1.977-.664h-2.861a.5.5,0,0,0-.5.505v4.751A.5.5,0,0,0,189.271,49.242Z"/>
    <path id="Path_111" data-name="Path 111" d="M242.823,71.381v-.1h-.1v-.1h-.1v-.1h-.1v-.1h-.1v-.1h-.1v-.1h-.1v-.1h-.1v-.1h-.1v-.1h-.1v-.1h-.1v-.1h-.1v-.1h-.1v-.1h-.1v-.1h-.1v-.1h-.1v-.1h-.1v-.1h-.1v-.1h-.1v-.1h-.1v-.1h-.1v-.1h-.1v-.1h-.1v-.1h-.1v-.1h-.1v-.1h-.1v-.1h-.1v-.1h-.1v-.1h-.1v-.1h-.1v-.1h-.1v-.1h-.1v-.1h-.1v-.1h-.1v-.1h-.1v-.1h-.1v-.1h-.1V67.71h2.4V58.748h-.1v-.1h-.1v-.1h-.1v-.1h-.1v-.1h-.1v-.1h-.1v-.1h-.1v-.1h-.1v-.1h-.1v-.1h-.1v-.1h-.1v-.1h-.1v-.1h-.1v-.1h-.1v-.1h-.1v-.1h-.1v-.1h-.1v-.1h-.1v-.1h-.1v-.1h-.1v-.1h-.1v-.1h-.1v-.1h-.1v-.1h-.1v-.1h-.1v-.1h-.1v-.1h-.1v-.1h-.1v-.1h-.1v-.1h-.1v-.1h-.1v-.1h-.1v-.1h-.1v-.1h-.1V55.4h4.474V45.843h-.1v-.1h-.1v-.1h-.1v-.1h-.1v-.1h-.1v-.1h-.1v-.1h-.1v-.1h-.1v-.1h-.1v-.1h-.1v-.1h-.1v-.1h-.1v-.1h-.1v-.1h-.1v-.1h-.1v-.1h-.1v-.1h-.1v-.1h-.1v-.1h-.1v-.1h-.1v-.1h-.1v-.1h-.1v-.1h-.1v-.1h-.1v-.1h-.1v-.1h-.1v-.1h-.1v-.1h-.1v-.1h-.1v-.1h-.1v-.1h-.1v-.1h-.1v-.1h-.1v-.1h-.1v-.1h-.1v-.1h-.1v-.1h-.1v-.1h-.1V42h-.1v-.1h-.1v-.1h-.1v-.1h-.1v-.1h-.1v-.1h-.1v-.1h-.1v-.1h-.1v-.1h-.1v-.1h-.1v-.1h-.1v-.1h-.1v-.1h-.1v-.1h-.1v-.1h-.1v-.1h-.1v-.1h-.1v-.1h-.1v-.1h-.1v-.1h-.1v-.1h-.1v-.1h-.1v-.1h-.1v-.1h-.1v-.1h-.1v-.1h-.1v-.1h-.1v-.1h-.1v-.1h-.1v-.1h-.1v-.1h-.1v-.1h-.1v-.1h-.1v-.1h-.1v-.1h-.1v-.1h-.1v-.1h-.1v-.1h-.1v-.1h-.1v-.1h-.1v-.1h-.1v-.1h-.1v-.1h-.1v-.1h-.1v-.1h-.1v-.1h-.1v-.1h-.1v-.1h-.1v-.1h-.1v-.1h-.1v-.1h-.1v-.1h-.1v-.1h-.1v-.1h-.1v-.1h-.1v-.1h-.1v-.1h-.1v-.1h-.1v-.607a.5.5,0,0,0-.5-.5H209.193a.5.5,0,0,0-.5.5v8.266l-.079-.08c-.032-.034-.067-.067-.1-.1s-.067-.068-.1-.1-.067-.067-.1-.1-.067-.067-.1-.1-.067-.067-.1-.1-.066-.068-.1-.1-.067-.067-.1-.1-.067-.067-.1-.1-.067-.067-.1-.1-.067-.068-.1-.1-.067-.067-.1-.1l-.1-.1c-.032-.034-.067-.067-.1-.1s-.067-.068-.1-.1-.067-.067-.1-.1-.067-.067-.1-.1l-.1-.1c-.032-.035-.067-.068-.1-.1s-.067-.067-.1-.1-.067-.067-.1-.1-.067-.067-.1-.1-.068-.068-.1-.1l-.1-.1c-.032-.034-.067-.067-.1-.1s-.067-.067-.1-.1-.067-.068-.1-.1-.067-.068-.1-.1-.066-.067-.1-.1-.067-.067-.1-.1-.048-.049-.072-.073a8.249,8.249,0,0,0-2.567-3.2c-2.132-1.646-5.088-2.48-8.784-2.48H177.555a.5.5,0,0,0-.5.5v2.227h-.1v-.1h-.1v-.1h-.1v-.1h-.1v-.1h-.1v-.1h-.1v-.1h-.1v-.1h-.1v-.1h-.1v-.1h-.1v-.1h-.1v-.1h-.1v-.1h-.1v-.1h-.1v-.1h-.1v-.1h-.1v-.1h-.1v-.607a.5.5,0,0,0-.5-.5H162.114a.5.5,0,0,0-.5.5v10.14l-.1-.1-.1-.1-.1-.1-.1-.1-.1-.1c-.033-.035-.067-.068-.1-.1l-.1-.1-.1-.1-.1-.1c-.033-.035-.067-.068-.1-.1l-.1-.1c-.033-.034-.066-.068-.1-.1s-.066-.068-.1-.1-.066-.068-.1-.1-.066-.067-.1-.1l-.1-.1c-.033-.034-.066-.068-.1-.1s-.066-.068-.1-.1l-.1-.1c-.032-.034-.066-.068-.1-.1l-.1-.1c-.033-.035-.067-.068-.1-.1l-.1-.1c-.033-.034-.066-.068-.1-.1s-.066-.068-.1-.1-.067-.068-.1-.1l-.1-.1-.1-.1c-.033-.034-.066-.068-.1-.1l-.1-.1-.1-.1-.1-.1c-.033-.034-.066-.068-.1-.1l-.1-.1-.1-.1-.1-.1-.1-.1-.1-.1-.1-.1-.1-.1c-.032-.034-.066-.068-.1-.1l-.1-.1-.1-.1-.014-.014a9.6,9.6,0,0,0-.49-.888,10.206,10.206,0,0,0-5.189-4.118,23.275,23.275,0,0,0-8.2-1.275H128.1a.5.5,0,0,0-.5.5v1.721h-.058v-.1h-.1v-.1h-.1v-.1h-.1v-.1h-.1v-.1h-.1v-.1h-.1v-.1h-.1v-.1h-.1v-.1h-.1v-.1h-.1v-.1h-.1v-.607a.5.5,0,0,0-.5-.5H99.376a.5.5,0,0,0-.5.5V45.886l-.05-.018V45.8l-.1-.037V45.7l-.1-.037V45.6l-.1-.036V45.5l-.1-.036V45.4l-.1-.037V45.3l-.1-.037v-.065l-.1-.036v-.065l-.1-.036v-.065l-.1-.037v-.064l-.1-.037V44.79l-.1-.036v-.065l-.1-.036v-.065l-.1-.037v-.064l-.1-.037v-.065l-.1-.036v-.065l-.1-.036v-.065l-.1-.037v-.064l-.1-.037v-.064l-.1-.037v-.065l-.1-.036v-.065l-.1-.037v-.064l-.1-.037v-.064l-.1-.037v-.065l-.1-.036v-.065l-.1-.037v-.064l-.1-.037v-.064l-.1-.037v-.065l-.1-.036v-.065l-.1-.037v-.064l-.1-.037v-.064l-.1-.037v-.065l-.1-.036v-.065l-.1-.037v-.064l-.1-.037v-.064l-.1-.037v-.065l-.1-.036v-.065l-.1-.036v-.065l-.1-.037v-.064l-.1-.037v-.065l-.1-.036v-.065l-.1-.036v-.065l-.1-.037v-.064l-.1-.037v-.065l-.1-.036v-.065l-.1-.036v-.065l-.1-.037v-.064l-.1-.037v-.065l-.1-.036v-.065l-.1-.036v-.065l-.1-.037v-.064l-.1-.037v-.065l-.1-.036v-.065l-.1-.036v-.065l-.1-.037v-.064l-.1-.037v-.065l-.1-.036v-.065l-.1-.036v-.065l-.1-.037v-.064l-.1-.037V39.83l-.1-.037v-.065l-.1-.036v-.065l-.1-.037v-.064l-.1-.037v-.064l-.1-.037v-.065l-.1-.036v-.065l-.1-.037v-.064l-.1-.037V39.02l-.1-.037v-.065l-.1-.036v-.065l-.1-.037v-.064l-.1-.037v-.064l-.1-.037v-.065l-.1-.036v-.065l-.1-.037v-.064l-.1-.037V38.21l-.1-.037v-.065l-.1-.036v-.065l-.1-.036v-.065l-.1-.037v-.064l-.1-.037V37.7l-.1-.036V37.6l-.1-.036V37.5l-.1-.037V37.4l-.1-.037V37.3l-.1-.036V37.2l-.1-.035V36.59a.5.5,0,0,0-.326-.472,24.714,24.714,0,0,0-8.709-1.706,19.684,19.684,0,0,0-10.635,2.7,16.541,16.541,0,0,0-6.315,7.043,21.218,21.218,0,0,0-2.019,9.068,18.717,18.717,0,0,0,2.726,10.315,17.357,17.357,0,0,0,5.561,5.478l.034.035.1.1.1.1.1.1.1.1.1.1.1.1.1.1.1.1.1.1c.033.034.066.068.1.1l.1.1.1.1.1.1.1.1.1.1.1.1.1.1.1.1.1.1.1.1.1.1.1.1.1.1.1.1.1.1c.033.034.066.068.1.1l.1.1.1.1.1.1.1.1.1.1.1.1.1.1.1.1.1.1.1.1.1.1.1.1.1.1.1.1.1.1.1.1.1.1.1.1.1.1.1.1.1.1.1.1.1.1.1.1.1.1.1.1.1.1.1.1.1.1.1.1.1.1.1.1c.033.034.066.068.1.1l.1.1.1.1.1.1.1.1.1.1.1.1.1.1.1.1.1.1.1.1.1.1c.034.034.067.068.1.1a16.5,16.5,0,0,0,4.761,3.407,20.473,20.473,0,0,0,8.935,2.052,30.485,30.485,0,0,0,8.315-1.62l.1-3.536.02.02.1.1c.032.034.066.068.1.1s.066.068.1.1l.1.1.1.1c.033.034.066.068.1.1s.066.068.1.1.066.067.1.1.066.067.1.1l.1.1.1.1c.032.034.066.067.1.1s.066.067.1.1.066.068.1.1l.1.1.1.1.1.1c.032.034.066.068.1.1s.066.068.1.1.066.067.1.1l.1.1.1.1c.032.034.066.068.1.1s.066.068.1.1.066.067.1.1l.1.1.1.1.1.1c.032.034.066.067.1.1s.066.068.1.1.066.068.1.1l.1.1q.228.239.49.465a7.328,7.328,0,0,0,9.421-.027,6.159,6.159,0,0,0,1.4-1.682V78.6h.1v.1h.1v.1h.1v.1h.1v.1h.1v.1h.1v.1h.1v.1h.1v.1h.1v.1h.1v.1h.1v.1h.1v.1h.1v.1h.1v.1h.1v.1h.1v.1h.1v.1h.1v.1h.1v.1h.1v.1h.1v.1h.1v.1H129V71.515h.1v.1h.1v.1h.1v.1h.1v.1h.1v.1h.1v.1h.1v.1h.1v.1h.1v.1h.1v.1h.1v.1h.1v.1h.1v.1h.1v.1h.1v.1h.1v.1h.1v.1h.1v.1h.1v.1h.1v.1h.1v.1h.1v.1h.1v.1h.1v.1h.1v.1h.1v.1h.1v.1h.1v.1h.1v.1h.1v.1h.1v.1h.1v.1h.1v.1h.1v.1h.1v.1h.1v.1h.1v.1h.1v.1h.1v.1h.1v.1h.1v.1h.1v.1h.1v.1h.1v.1h.1v.1h.1v.1h.1v.1h.1v.1h.1v.1h.1v.1h.1v.1h.1v.1h.1v.1h.1v.1h.1v.1h.1v.1h.1v.1h.1v.1h.1v.1h.1v.1h.1v.1h.1v.1h.1v.1h.1V78h.1v.1h.1v.1h.1v.1h.1v.1h.1v.1h.1v.1h.1v.1h.1v.1h.1v.1h.1v.1h.1v.1h.1v.1h.1v.1h.1v.1h.1v.1h.1v.1h.1v.1h.1v.1h.1v.1h.1v.1h.1v.1h.1v.1h.1v.1h.1v.1h.1v.1h.1v.1h.1v.1h.1v.1h12.364v-6.2l.012.023h.046l.054.1h.046l.054.1h.046l.053.1h.046l.054.1H151l.054.1h.046l.054.1h.046l.054.1h.046l.053.1h.047l.053.1h.046l.054.1h.046l.054.1h.046l.054.1h.046l.054.1h.046l.053.1H152l.054.1h.046l.054.1h.046l.054.1h.046l.054.1h.046l.053.1h.047l.053.1h.046l.054.1h.046l.054.1h.046l.054.1h.046l.053.1H153l.053.1h.046l.054.1h.046l.054.1h.046l.054.1h.046l.054.1h.046l.053.1h.047l.053.1h.046l.054.1h.046l.054.1h.046l.054.1H154l.054.1h.046l.053.1h.046l.054.1h.046l.054.1h.046l.054.1h.046l.054.1h.046l.053.1h.047l.053.1h.046l.054.1h.046l.054.1h.046l.054.1h.046l.053.1h.047l.053.1h.046l.054.1h.046l.054.1h.046l.054.1h.046l.054.1h.046l.053.1h.046l.054.1h.046l.054.1h.046l.054.1h.046l.054.1h.046l.054.1h.046l.053.1h.046l.054.1h.046l.054.1h.046l.054.1h14.038l-2.969-4.556h.088v.1h.1v.1h.1v.1h.1v.1h.1v.1h.1v.1h.1v.1h.1v.1h.1v.1h.1v.1h.1v.1h.1v.1h.1v.1h.1v.1h.1v.1h.1v.1h.1V78h.1v.1h.1v.1h.1v.1h.1v.1h.1v.1h.1v.1h.1v.1h.1v.1h.1v.1h.1v.1h.1v.1h.1v.1h.1v.1h.1v.1h.1v.1h.1v.1h.1v.1h.1v.1h.1v.1h.1v.1h.1v.1h.1v.1h.1v.1h.1v.1h.1v.1h.1v.1h.1v.1h.1v.1h12.742V78h0v.1h.1v.1h.1v.1h.1v.1h.1v.1h.1v.1h.1v.1h.1v.1h.1v.1h.1v.1h.1v.1h.1v.1h.1v.1h.1v.1h.1v.1h.1v.1h.1v.1h.1v.1h.1v.1h.1v.1h.1v.1h.1v.1h.1v.1h.1v.1h.1v.1h.1v.1h.1v.1h.1v.1H204.32q8.08,0,11.161-3.884v.037h.1v.1h.1v.1h.1v.1h.1v.1h.1v.1h.1v.1h.1v.1h.1v.1h.1v.1h.1V78h.1v.1h.1v.1h.1v.1h.1v.1h.1v.1h.1v.1h.1v.1h.1v.1h.1v.1h.1v.1h.1v.1h.1v.1h.1v.1h.1v.1h.1v.1h.1v.1h.1v.1h.1v.1h.1v.1h.1v.1h.1v.1h.1v.1h.1v.1h.1v.1h.1v.1h.1v.1h.1v.1h.1v.1h23.648V71.381Zm-153.74-1.91a29.312,29.312,0,0,1-7.821,1.493,20.093,20.093,0,0,1-8.719-2,16.27,16.27,0,0,1-6.731-5.974,17.729,17.729,0,0,1-2.566-9.769,20.235,20.235,0,0,1,1.924-8.641,15.55,15.55,0,0,1,5.94-6.617,18.7,18.7,0,0,1,10.1-2.541,23.506,23.506,0,0,1,8.027,1.52V48.427a10.116,10.116,0,0,0-6.785-2.677,7.534,7.534,0,0,0-5.224,1.912,6.93,6.93,0,0,0-2.137,5.4,8.277,8.277,0,0,0,1.695,5.109,6.232,6.232,0,0,0,5.288,2.306,12.524,12.524,0,0,0,7.349-2.7Zm13.72.539a7.328,7.328,0,0,1-9.421.027,5.2,5.2,0,0,1,0-8.152,7.328,7.328,0,0,1,9.421.027,5.1,5.1,0,0,1,0,8.1Zm22.633-23.4h-6.515a.5.5,0,0,0-.5.5V70.1H106.9V47.118a.5.5,0,0,0-.5-.5H99.88V36.122h25.556ZM146.867,70.1l-5.958-11.232a.5.5,0,0,0-.95.236v11H128.6V36.122h14.83a22.3,22.3,0,0,1,7.838,1.209,9.223,9.223,0,0,1,4.692,3.711,12.24,12.24,0,0,1,1.6,6.562c0,4.219-2.092,6.923-6.4,8.265a.5.5,0,0,0-.272.757L159.672,70.1Zm20.737,6-.021-.032h.021Zm.1.153-.054-.083h.054Zm6.649-6.156H162.618V36.122h11.734Zm19.886,0H178.059V36.122h16.233c3.468,0,6.216.764,8.168,2.27a7.047,7.047,0,0,1,2.882,5.918,8.119,8.119,0,0,1-1.243,4.981,9.309,9.309,0,0,1-4.051,2.7.5.5,0,0,0,.06.959c4.5,1.134,6.692,3.588,6.692,7.5C206.8,66.945,202.691,70.1,194.238,70.1Zm38.1,0H209.7V36.122h22.424V44.67H221.557a.5.5,0,0,0-.5.5v3.348a.5.5,0,0,0,.5.5h9.484V56.98h-9.484a.5.5,0,0,0-.5.5v3.672a.5.5,0,0,0,.5.5h10.78Z"/>
    <path id="Path_112" data-name="Path 112" d="M143.055,44.076h-2.592a.5.5,0,0,0-.5.5v6.911a.5.5,0,0,0,.5.5h2.16c2.625,0,4.013-1.462,4.013-4.229a3.716,3.716,0,0,0-1-2.581A3.363,3.363,0,0,0,143.055,44.076Z"/>
    <path id="Path_113" data-name="Path 113" d="M192.186,55.954h-2.915a.5.5,0,0,0-.5.5v5.454a.5.5,0,0,0,.5.5H192.4c2.17,0,3.366-1.157,3.366-3.258C195.768,57.7,195.146,55.954,192.186,55.954Z"/>
  </g>
</svg>
