<?xml version="1.0" standalone="no"?>
<!DOCTYPE svg PUBLIC "-//W3C//DTD SVG 1.1//EN" "http://www.w3.org/Graphics/SVG/1.1/DTD/svg11.dtd" >
<svg xmlns="http://www.w3.org/2000/svg" xmlns:xlink="http://www.w3.org/1999/xlink" version="1.1">
<metadata>
Created by FontForge 20170731 at Thu Jan  6 05:25:18 2022
 By Aleksey,,,
Copyright (c) 2014 Commercial Type. All rights reserved. [wfr]
</metadata>
<defs>
<font id="Druk-Medium" horiz-adv-x="700" >
  <font-face 
    font-family="Druk"
    font-weight="500"
    font-stretch="condensed"
    units-per-em="2048"
    panose-1="0 0 0 0 0 0 0 0 0 0"
    ascent="1638"
    descent="-410"
    x-height="1102"
    cap-height="1524"
    bbox="-102 -440 1798 2159"
    underline-thickness="172"
    underline-position="-376"
    unicode-range="U+000D-FB02"
  />
<missing-glyph horiz-adv-x="1007" 
d="M0 1413h1008v-1413h-1008v1413zM907 193v1030l-344 -516zM100 1223v-1030l344 514zM504 797l344 516h-686zM504 616l-342 -516h684z" />
    <glyph glyph-name="f_f" unicode="ff" horiz-adv-x="929" 
d="M911 1524v-203h-98q-28 0 -36.5 -11t-8.5 -42v-166h143v-209h-143v-893h-219v893h-187v-893h-219v893h-131v209h131v280q0 55 36.5 98.5t119.5 43.5h205v-203h-96q-28 0 -37 -11t-9 -42v-166h187v280q0 55 36.5 98.5t119.5 43.5h206z" />
    <glyph glyph-name="fi" unicode="fi" horiz-adv-x="808" 
d="M498 1524v-203h-90q-28 0 -37 -11t-9 -42v-166h136v-209h-136v-893h-219v893h-131v209h131v280q0 55 36.5 98.5t119.5 43.5h199zM768 1102v-1102h-219v1102h219zM768 1397v-236h-219v236h219z" />
    <glyph glyph-name="fl" unicode="fl" horiz-adv-x="808" 
d="M498 1524v-203h-90q-28 0 -37 -11t-9 -42v-166h136v-209h-136v-893h-219v893h-131v209h131v280q0 55 36.5 98.5t119.5 43.5h199zM768 1524v-1524h-219v1524h219z" />
    <glyph glyph-name=".notdef" horiz-adv-x="1007" 
d="M0 1413h1008v-1413h-1008v1413zM907 193v1030l-344 -516zM100 1223v-1030l344 514zM504 797l344 516h-686zM504 616l-342 -516h684z" />
    <glyph glyph-name=".null" horiz-adv-x="0" 
 />
    <glyph glyph-name="nonmarkingreturn" horiz-adv-x="682" 
 />
    <glyph glyph-name="NULL" horiz-adv-x="0" 
 />
    <glyph glyph-name="NULL" horiz-adv-x="0" 
 />
    <glyph glyph-name="CR" unicode="&#xd;" horiz-adv-x="208" 
 />
    <glyph glyph-name="space" unicode=" " horiz-adv-x="208" 
 />
    <glyph glyph-name="exclam" unicode="!" horiz-adv-x="311" 
d="M260 262v-262h-213v262h213zM29 1524h254l-90 -1211h-76z" />
    <glyph glyph-name="quotedbl" unicode="&#x22;" horiz-adv-x="450" 
d="M203 1524v-359h-168v359h168zM416 1524v-359h-168v359h168z" />
    <glyph glyph-name="numbersign" unicode="#" horiz-adv-x="749" 
d="M229 1524h170l-41 -445h82l41 445h170l-41 -445h133l-16 -168h-133l-19 -215h132l-19 -172h-129l-47 -524h-170l47 524h-82l-47 -524h-168l47 524h-133l19 172h129l20 215h-131l18 168h127zM342 911l-18 -215h82l18 215h-82z" />
    <glyph glyph-name="dollar" unicode="$" horiz-adv-x="686" 
d="M303 -154v138q-134 4 -203 78t-69 210v293h217v-266q0 -48 12.5 -72.5t42.5 -31.5v458l-135 162q-76 89 -105.5 175.5t-29.5 209.5v41q0 139 70.5 215.5t199.5 81.5v125h72v-125q133 -4 192.5 -66.5t59.5 -197.5v-240h-201v217q0 75 -51 88v-407l145 -172
q83 -94 110 -173t27 -202v-47q0 -161 -73.5 -255.5t-208.5 -98.5v-138h-72zM430 322v45q0 72 -10.5 112t-44.5 88v-372q55 21 55 127zM252 1233v-37q0 -61 11 -99.5t40 -76.5v319q-29 -7 -40 -31.5t-11 -74.5z" />
    <glyph glyph-name="percent" unicode="%" horiz-adv-x="952" 
d="M29 1040v295q0 95 50 147t138 52h39q86 0 135 -52.5t49 -146.5v-295q0 -92 -48.5 -145t-135.5 -53h-39q-85 0 -136.5 51.5t-51.5 146.5zM514 190v295q0 95 50 147t138 52h37q86 0 135.5 -52.5t49.5 -146.5v-295q0 -92 -48 -145t-135 -53h-39q-85 0 -136.5 51.5
t-51.5 146.5zM678 1524h151l-548 -1524h-152zM274 1044v289q0 47 -43 47q-36 0 -36 -47v-289q0 -47 36 -47q43 0 43 47zM717 147q41 0 41 48v288q0 47 -41 47q-37 0 -37 -47v-288q0 -48 37 -48z" />
    <glyph glyph-name="ampersand" unicode="&#x26;" horiz-adv-x="870" 
d="M27 397v76q0 238 182 395q-46 103 -69 186t-23 173v53q0 112 60.5 185t184.5 73h41q70 0 118 -20.5t71.5 -59.5t33 -83t9.5 -105v-23q0 -114 -38 -195.5t-155 -191.5l181 -414q5 42 8.5 87.5t4.5 103.5t1.5 89t0 102.5t-0.5 86.5h203q-5 -246 -24 -403t-71 -287
q20 -20 42.5 -32.5t38.5 -16.5t40 -8l-59 -205q-37 6 -60.5 12.5t-59 25.5t-64.5 48q-67 -67 -189 -67h-37q-179 0 -274.5 108.5t-95.5 306.5zM436 178q46 0 82 25l-4 12l-229 490q-35 -84 -35 -193v-31q0 -156 50.5 -229.5t135.5 -73.5zM319 1266v-29q0 -57 13 -105.5
t45 -123.5q39 58 51 105.5t12 121.5v33q0 47 -12.5 68.5t-46.5 21.5q-62 0 -62 -92z" />
    <glyph glyph-name="quotesingle" unicode="'" horiz-adv-x="241" 
d="M207 1524v-359h-172v359h172z" />
    <glyph glyph-name="parenleft" unicode="(" horiz-adv-x="423" 
d="M63 705q0 535 220 950h137q-64 -176 -104 -420t-40 -524q0 -505 150 -979h-137q-226 441 -226 973z" />
    <glyph glyph-name="parenright" unicode=")" horiz-adv-x="423" 
d="M147 711q0 280 -39.5 524t-103.5 420h137q219 -413 219 -950q0 -534 -225 -973h-137q149 471 149 979z" />
    <glyph glyph-name="asterisk" unicode="*" horiz-adv-x="485" 
d="M297 1391l102 77l64 -112l-119 -49l119 -56l-66 -110l-102 80l14 -134h-133l14 134l-102 -80l-65 110l116 56l-116 49l63 112l102 -77l-12 133h133z" />
    <glyph glyph-name="plus" unicode="+" horiz-adv-x="690" 
d="M252 276v256h-219v175h219v258h186v-258h219v-175h-219v-256h-186z" />
    <glyph glyph-name="comma" unicode="," horiz-adv-x="280" 
d="M193 -184h-115q34 86 43 184h-88v262h215v-192q0 -151 -55 -254z" />
    <glyph glyph-name="hyphen" unicode="-" horiz-adv-x="354" 
d="M33 711h289v-201h-289v201z" />
    <glyph glyph-name="period" unicode="." horiz-adv-x="280" 
d="M248 262v-262h-215v262h215z" />
    <glyph glyph-name="slash" unicode="/" horiz-adv-x="428" 
d="M420 1655l-262 -1923h-172l262 1923h172z" />
    <glyph glyph-name="zero" unicode="0" horiz-adv-x="698" 
d="M655 1192v-893q0 -141 -74.5 -229t-209.5 -88h-52q-136 0 -206 80t-70 237v889q0 173 68 261.5t221 88.5h43q79 0 135 -24.5t87 -72t44.5 -108t13.5 -141.5zM420 315v885q0 61 -16 87t-56 26t-54.5 -26.5t-14.5 -86.5v-885q0 -49 13.5 -75.5t53.5 -26.5q41 0 57.5 26.5
t16.5 75.5z" />
    <glyph glyph-name="one" unicode="1" horiz-adv-x="458" 
d="M172 1167h-156v189q102 6 144 41t59 127h187v-1524h-234v1167z" />
    <glyph glyph-name="two" unicode="2" horiz-adv-x="675" 
d="M334 1317q-32 0 -45 -18.5t-13 -61.5v-260h-221v278q0 58 12.5 106t40.5 89t78.5 64.5t120.5 23.5h47q283 0 283 -283v-75q0 -145 -22.5 -224.5t-112.5 -216.5q-9 -14 -148 -209q-94 -135 -119.5 -196t-25.5 -117h205v293h233v-510h-631v115q0 149 34.5 256t144.5 299
l133 235q31 55 46 97.5t17 65.5t2 71v98q0 80 -59 80z" />
    <glyph glyph-name="three" unicode="3" horiz-adv-x="669" 
d="M264 1065h-215v192q0 50 11.5 96t37.5 89.5t75 69.5t116 26h57q138 0 205 -76t67 -209v-174q0 -110 -25 -163t-71 -76q57 -22 84 -62t27 -121v-374q0 -139 -72.5 -220t-195.5 -81h-64q-139 0 -203.5 72t-64.5 190v309h229v-250q0 -90 68 -90q63 0 63 90v318q0 45 -11 61
t-50 16h-125v238h108q42 0 54 17t12 69v213q0 47 -13.5 65.5t-45.5 18.5q-31 0 -44.5 -18t-13.5 -64v-172z" />
    <glyph glyph-name="four" unicode="4" horiz-adv-x="708" 
d="M330 578v405q-52 -168 -140 -405h140zM14 369v190q66 173 177.5 489.5t164.5 481.5h201v-952h141v-209h-141v-369h-227v369h-316z" />
    <glyph glyph-name="five" unicode="5" horiz-adv-x="673" 
d="M281 682h-228v842h570v-230h-342v-342q32 66 79.5 108t106.5 42h8q84 0 123 -52t39 -128v-654q0 -56 -16 -105.5t-48 -91t-87.5 -65.5t-127.5 -24h-43q-68 0 -120 17t-82 43.5t-48.5 62.5t-25 69.5t-6.5 69.5v313h237v-268q0 -88 62 -88q57 0 57 88v485q0 28 -2 44
t-14.5 31t-36.5 15q-34 0 -44.5 -24t-10.5 -66v-92z" />
    <glyph glyph-name="six" unicode="6" horiz-adv-x="688" 
d="M348 201q68 0 68 96v371q0 94 -68 94q-67 0 -67 -90v-375q0 -96 67 -96zM477 973h8q86 0 127 -55.5t41 -124.5v-506q0 -64 -15.5 -117.5t-48 -96.5t-88.5 -67t-130 -24h-43q-145 0 -215 82.5t-70 211.5v963q0 146 64 222.5t206 76.5h41q137 0 204 -65t67 -175v-225h-236
v174q0 74 -55 74t-55 -74v-411q91 137 198 137z" />
    <glyph glyph-name="seven" unicode="7" horiz-adv-x="626" 
d="M31 1524h573v-224l-84 -485q-33 -201 -50 -377t-17 -266v-172h-281v150q0 206 111 561q89 302 116 425t27 179h-176v-242h-219v451z" />
    <glyph glyph-name="eight" unicode="8" horiz-adv-x="673" 
d="M399 281v323q0 44 -14.5 66t-48.5 22q-35 0 -48.5 -20t-13.5 -68v-323q0 -76 64 -76q31 0 46 21t15 55zM395 1004v245q0 19 -1.5 31.5t-7 26t-18 20t-32.5 6.5t-32 -6.5t-17 -20t-6.5 -25.5t-1.5 -32v-243q0 -78 59 -78q57 0 57 76zM625 1270v-230q0 -131 -99 -196
q58 -33 86.5 -82t28.5 -131v-367q0 -125 -70.5 -203.5t-214.5 -78.5h-43q-144 0 -212 79t-68 207v363q0 139 106 213q-41 34 -66.5 78.5t-25.5 117.5v238q0 39 7.5 74.5t26.5 70t48 59.5t76 40.5t106 15.5h41q137 0 205 -72.5t68 -195.5z" />
    <glyph glyph-name="nine" unicode="9" horiz-adv-x="688" 
d="M213 547h-6q-78 0 -125 66t-47 147v491q0 62 15 112t46.5 90.5t87.5 62.5t133 22h48q280 0 280 -287v-1003q0 -122 -67 -194t-199 -72h-51q-267 0 -267 264v200h240v-172q0 -77 57 -77q52 0 52 77v408q-91 -135 -197 -135zM340 1319q-68 0 -68 -94v-371q0 -96 68 -96
q70 0 70 92v375q0 94 -70 94z" />
    <glyph glyph-name="colon" unicode=":" horiz-adv-x="288" 
d="M252 262v-262h-215v262h215zM252 874v-262h-215v262h215z" />
    <glyph glyph-name="semicolon" unicode=";" horiz-adv-x="288" 
d="M197 -184h-115q34 86 43 184h-88v262h215v-192q0 -151 -55 -254z" />
    <glyph glyph-name="less" unicode="&#x3c;" horiz-adv-x="579" 
d="M20 543v155l533 213v-168l-332 -125l332 -122v-166z" />
    <glyph glyph-name="equal" unicode="=" horiz-adv-x="684" 
d="M37 588h610v-156h-610v156zM37 807h610v-156h-610v156z" />
    <glyph glyph-name="greater" unicode="&#x3e;" horiz-adv-x="579" 
d="M27 743v168l532 -213v-155l-532 -213v166l329 125z" />
    <glyph glyph-name="question" unicode="?" horiz-adv-x="624" 
d="M375 313h-187v246q0 100 12 148t60 127l59 100q31 50 39.5 90.5t8.5 108.5v110q0 44 -13 62t-47 18t-44.5 -17.5t-10.5 -62.5v-246h-221v246q0 70 10.5 120t37 93t78 64.5t128.5 21.5h45q151 0 211.5 -71.5t60.5 -213.5v-151q0 -78 -20 -138.5t-72 -136.5l-68 -94
q-44 -65 -55.5 -109t-11.5 -136v-179zM389 262v-262h-213v262h213z" />
    <glyph glyph-name="at" unicode="@" horiz-adv-x="1114" 
d="M891 55l96 -116q-17 -25 -37.5 -50t-59 -58t-82 -57.5t-105.5 -41.5t-130 -17h-14q-56 0 -104 7t-103.5 29t-99 58.5t-85.5 98.5t-70 145t-45 204t-17 269v185q0 774 536 774h25q252 0 367.5 -157t115.5 -478v-184q0 -214 -33 -346.5t-90.5 -187t-144.5 -54.5h-4
q-151 0 -184 127q-43 -68 -81 -97.5t-91 -29.5h-13q-62 0 -106.5 57.5t-40.5 163.5l26 633q5 74 42.5 126t105.5 52h10q79 0 143 -104l5 96h217l-43 -840q0 -13 0.5 -18.5t6.5 -12t19 -6.5q97 0 97 437v190q0 263 -78.5 373t-245.5 110h-25q-183 0 -276.5 -149.5
t-93.5 -478.5v-179q0 -127 13.5 -229.5t35 -169.5t53.5 -117t62.5 -76t68.5 -41.5t65.5 -19.5t59.5 -4h14q74 0 144 33.5t110.5 73t63.5 77.5zM586 317l26 549q2 34 -7 50t-34 16q-22 0 -30.5 -16t-10.5 -50l-26 -549q-1 -20 0 -31.5t10 -22.5t27 -11q42 0 45 65z" />
    <glyph glyph-name="A" unicode="A" horiz-adv-x="655" 
d="M434 0l-31 287h-170l-28 -287h-207l186 1524h275l198 -1524h-223zM317 1077l-59 -563h121z" />
    <glyph glyph-name="B" unicode="B" horiz-adv-x="706" 
d="M47 0v1524h365q134 0 188.5 -64t54.5 -184v-234q0 -167 -114 -211q26 -10 46 -23.5t41.5 -38t33.5 -65.5t12 -96v-329q0 -128 -60.5 -203.5t-185.5 -75.5h-381zM348 694h-69v-479h69q53 0 71.5 24t18.5 78v279q0 51 -18.5 74.5t-71.5 23.5zM348 1317h-69v-395h69
q45 0 62.5 27.5t17.5 78.5v193q0 50 -17.5 73t-62.5 23z" />
    <glyph glyph-name="C" unicode="C" horiz-adv-x="688" 
d="M426 309v355h227v-353q0 -67 -12.5 -121.5t-42 -103.5t-86 -76.5t-135.5 -27.5h-51q-285 0 -285 321v930q0 62 14 114t45 96.5t86.5 69.5t130.5 25h54q73 0 126.5 -19.5t83 -48.5t46.5 -73.5t21.5 -84t4.5 -91.5v-273h-227v269q0 51 -18 75.5t-60 24.5q-41 0 -56.5 -23.5
t-15.5 -76.5v-906q0 -104 74 -104q76 0 76 102z" />
    <glyph glyph-name="D" unicode="D" horiz-adv-x="704" 
d="M47 0v1524h354q142 0 201.5 -74.5t59.5 -218.5v-928q0 -147 -62 -225t-199 -78h-354zM279 1317v-1096h55q52 0 71 27.5t19 91.5v858q0 65 -18.5 92t-61.5 27h-65z" />
    <glyph glyph-name="E" unicode="E" horiz-adv-x="606" 
d="M47 1524h526v-221h-294v-400h231v-231h-231v-441h307v-231h-539v1524z" />
    <glyph glyph-name="F" unicode="F" horiz-adv-x="593" 
d="M47 0v1524h526v-221h-294v-402h233v-231h-233v-670h-232z" />
    <glyph glyph-name="G" unicode="G" horiz-adv-x="698" 
d="M276 -20h-14q-101 0 -161 78.5t-60 199.5v952q0 54 8 100t28.5 89t52.5 73t82 48t114 18h45q72 0 123.5 -19t81 -48.5t46 -77t21 -92t4.5 -105.5v-156h-225v172q0 54 -16.5 79.5t-57.5 25.5q-72 0 -72 -105v-890q0 -109 76 -109q43 0 64.5 26.5t21.5 71.5v381h-104v234
h323v-926h-131q-21 84 -39 150q-7 -21 -24 -48t-43 -55.5t-64.5 -47.5t-79.5 -19z" />
    <glyph glyph-name="H" unicode="H" horiz-adv-x="714" 
d="M279 670v-670h-232v1524h232v-611h157v611h232v-1524h-232v670h-157z" />
    <glyph glyph-name="I" unicode="I" horiz-adv-x="325" 
d="M279 1524v-1524h-232v1524h232z" />
    <glyph glyph-name="J" unicode="J" horiz-adv-x="653" 
d="M31 672h227v-375q0 -43 12 -63.5t43 -20.5h9q53 0 53 84v1227h235v-1245q0 -146 -68.5 -218.5t-193.5 -72.5h-63q-121 0 -187.5 63.5t-66.5 212.5v408z" />
    <glyph glyph-name="K" unicode="K" 
d="M279 662v-662h-232v1524h232v-611l182 611h225l-215 -709l238 -815h-238z" />
    <glyph glyph-name="L" unicode="L" horiz-adv-x="581" 
d="M47 1524h232v-1288h282v-236h-514v1524z" />
    <glyph glyph-name="M" unicode="M" horiz-adv-x="890" 
d="M47 0v1524h297l111 -805l112 805h277v-1524h-217v985l-140 -985h-92l-141 985v-985h-207z" />
    <glyph glyph-name="N" unicode="N" horiz-adv-x="712" 
d="M47 1524h209l199 -817v817h211v-1524h-189l-221 877v-877h-209v1524z" />
    <glyph glyph-name="O" unicode="O" horiz-adv-x="714" 
d="M674 1190v-850q0 -171 -68 -264.5t-227 -93.5h-39q-299 0 -299 358v848q0 169 70 259.5t227 90.5h39q160 0 228.5 -90t68.5 -258zM438 324v876q0 117 -80 117q-44 0 -63 -28t-19 -89v-876q0 -117 84 -117q44 0 61 31t17 86z" />
    <glyph glyph-name="P" unicode="P" horiz-adv-x="681" 
d="M414 633h-135v-633h-232v1524h367q124 0 180.5 -58.5t56.5 -193.5v-361q0 -136 -59.5 -207t-177.5 -71zM279 1317v-465h59q49 0 64.5 27.5t15.5 83.5v249q0 51 -16.5 78t-63.5 27h-59z" />
    <glyph glyph-name="Q" unicode="Q" horiz-adv-x="714" 
d="M674 1190v-850q0 -148 -50.5 -238t-166.5 -112l106 -307h-276v303q-246 31 -246 354v848q0 169 70 259.5t227 90.5h39q160 0 228.5 -90t68.5 -258zM438 324v876q0 117 -80 117q-44 0 -63 -28t-19 -89v-876q0 -117 84 -117q44 0 61 31t17 86z" />
    <glyph glyph-name="R" unicode="R" horiz-adv-x="694" 
d="M279 1317v-420h61q45 0 64.5 27.5t19.5 81.5v213q0 53 -16.5 75.5t-67.5 22.5h-61zM279 680v-680h-232v1524h375q119 0 175 -54.5t56 -181.5v-270q0 -85 -30.5 -132.5t-69.5 -62.5q46 -21 73 -58t27 -108v-534q0 -60 23 -113v-10h-230q-22 35 -22 125v459q0 54 -16.5 75
t-69.5 21h-59z" />
    <glyph glyph-name="S" unicode="S" horiz-adv-x="681" 
d="M326 1538h43q141 0 202.5 -63.5t61.5 -200.5v-250h-223v219q0 43 -14 66.5t-52 23.5q-40 0 -54 -24.5t-14 -81.5v-29q0 -66 18.5 -112.5t76.5 -120.5l147 -191q80 -104 108.5 -181t28.5 -204v-49q0 -171 -74 -263.5t-225 -92.5h-45q-139 0 -210.5 73.5t-71.5 214.5v306
h229v-267q0 -106 76 -106q41 0 58.5 29.5t17.5 101.5v35q0 84 -16.5 129t-78.5 127l-147 188q-72 93 -99.5 177t-27.5 200v49q0 297 285 297z" />
    <glyph glyph-name="T" unicode="T" horiz-adv-x="655" 
d="M18 1524h619v-221h-195v-1303h-229v1303h-195v221z" />
    <glyph glyph-name="U" unicode="U" horiz-adv-x="706" 
d="M43 332v1192h236v-1207q0 -108 73 -108q76 0 76 108v1207h236v-1192q0 -167 -71 -258.5t-220 -91.5h-41q-289 0 -289 350z" />
    <glyph glyph-name="V" unicode="V" horiz-adv-x="669" 
d="M195 0l-193 1524h236l104 -1049l107 1049h219l-193 -1524h-280z" />
    <glyph glyph-name="W" unicode="W" horiz-adv-x="1087" 
d="M442 1524h215l105 -987l106 987h217l-194 -1524h-248l-96 887l-98 -887h-256l-191 1524h234l104 -985z" />
    <glyph glyph-name="X" unicode="X" 
d="M199 815l-172 709h235l98 -482l95 482h225l-174 -709l196 -815h-239l-115 551l-117 -551h-233z" />
    <glyph glyph-name="Y" unicode="Y" horiz-adv-x="626" 
d="M635 1524l-203 -891v-633h-231v635l-209 889h225l107 -570l102 570h209z" />
    <glyph glyph-name="Z" unicode="Z" horiz-adv-x="624" 
d="M37 1524h555v-201l-334 -1100h350v-223h-592v207l330 1100h-309v217z" />
    <glyph glyph-name="bracketleft" unicode="[" horiz-adv-x="393" 
d="M381 1655v-164h-111v-1593h111v-164h-299v1921h299z" />
    <glyph glyph-name="backslash" unicode="\" horiz-adv-x="428" 
d="M270 -268l-262 1923h172l260 -1923h-170z" />
    <glyph glyph-name="bracketright" unicode="]" horiz-adv-x="395" 
d="M12 -266v164h111v1593h-111l2 164h299l-2 -1921h-299z" />
    <glyph glyph-name="asciicircum" unicode="^" horiz-adv-x="452" 
d="M307 1524l142 -625h-158l-68 330l-63 -330h-156l141 625h162z" />
    <glyph glyph-name="underscore" unicode="_" horiz-adv-x="641" 
d="M10 -213v172h621v-172h-621z" />
    <glyph glyph-name="grave" unicode="`" 
d="M481 1161h-182l-80 266h187z" />
    <glyph glyph-name="a" unicode="a" horiz-adv-x="634" 
d="M31 166v258q0 84 23 134.5t81 86.5q22 15 61 35t81 39.5t49 23.5q18 11 22 18t4 30v69q0 41 -11.5 56.5t-41.5 15.5h-4q-31 0 -43 -16t-12 -54v-117h-197v156q0 209 231 209h41q76 0 127 -17t76.5 -49t35 -67.5t9.5 -83.5v-655q0 -21 6.5 -28t28.5 -7h39v-203h-209
q-36 0 -54 29t-18 96q-74 -131 -180 -131h-6q-63 0 -101 51t-38 121zM352 272v285q-52 -29 -78 -55q-28 -28 -28 -88v-152q0 -72 51 -72q55 0 55 82z" />
    <glyph glyph-name="b" unicode="b" horiz-adv-x="638" 
d="M41 1524h219v-545q43 62 75 88q50 41 107 41h7q71 0 112 -53t41 -135v-684q0 -104 -53 -174t-146 -70h-4q-119 0 -192 155q-23 -83 -27 -147h-139v1524zM260 819v-540q0 -39 16.5 -61.5t45.5 -22.5q57 0 57 81v543q0 84 -60 84q-59 0 -59 -84z" />
    <glyph glyph-name="c" unicode="c" horiz-adv-x="608" 
d="M367 494h211v-248q0 -49 -13.5 -94t-41.5 -84t-78 -62.5t-115 -23.5h-41q-124 0 -189 75t-65 191v600q0 270 262 270h39q242 0 242 -239v-197h-211v149q0 48 -10.5 70.5t-45.5 22.5q-34 0 -44.5 -21.5t-10.5 -68.5v-564q0 -84 53 -84q58 0 58 82v226z" />
    <glyph glyph-name="d" unicode="d" horiz-adv-x="636" 
d="M377 1524h219v-1524h-219v125q-17 -47 -61 -91t-109 -44h-2q-74 0 -120 64.5t-46 168.5v672q0 87 39.5 150t118.5 63h4q21 0 39.5 -4.5t34.5 -13.5t28 -17.5t24.5 -23t19 -22.5t17.5 -23.5t13 -18.5v539zM377 291v522q0 98 -62 98q-57 0 -57 -88v-544q0 -89 57 -89
q34 0 48 24.5t14 76.5z" />
    <glyph glyph-name="e" unicode="e" horiz-adv-x="604" 
d="M285 1116h41q127 0 186 -68.5t59 -205.5v-318h-325v-254q0 -40 13 -61t46 -21q55 0 55 80v183h211v-193q0 -143 -67 -210.5t-189 -67.5h-39q-114 0 -177.5 69.5t-63.5 206.5v596q0 120 61.5 192t188.5 72zM246 844v-139h121v139q0 42 -12.5 65t-47.5 23q-38 0 -49.5 -22
t-11.5 -66z" />
    <glyph glyph-name="f" unicode="f" horiz-adv-x="524" 
d="M506 1524v-203h-98q-28 0 -37 -11t-9 -42v-166h144v-209h-144v-893h-219v893h-131v209h131v280q0 55 36.5 98.5t119.5 43.5h207z" />
    <glyph glyph-name="g" unicode="g" horiz-adv-x="638" 
d="M379 -150v281q-65 -141 -180 -141q-67 0 -113.5 57.5t-46.5 147.5v659q0 122 41.5 188t120.5 66q66 0 106.5 -34.5t75.5 -98.5v127h215v-1280q0 -30 -3.5 -54.5t-19 -57t-41.5 -55t-76 -38.5t-118 -16h-49q-137 0 -190.5 51.5t-53.5 136.5v160h211v-99q0 -32 12.5 -47.5
t42.5 -15.5h9q33 0 45 15t12 48zM379 276v558q0 79 -62 79q-57 0 -57 -79v-560q0 -81 59 -81q29 0 44.5 22t15.5 61z" />
    <glyph glyph-name="h" unicode="h" horiz-adv-x="641" 
d="M41 0v1524h219v-547q77 131 182 131h11q42 0 72 -16t45.5 -42.5t22.5 -54t7 -57.5v-938h-221v825q0 82 -57 82q-34 0 -48 -22t-14 -68v-817h-219z" />
    <glyph glyph-name="i" unicode="i" horiz-adv-x="301" 
d="M260 1102v-1102h-219v1102h219zM260 1397v-236h-219v236h219z" />
    <glyph glyph-name="j" unicode="j" horiz-adv-x="303" 
d="M262 1397v-236h-219v236h219zM-102 -176h102q43 0 43 49v1229h219v-1327q0 -160 -141 -160h-223v209z" />
    <glyph glyph-name="k" unicode="k" horiz-adv-x="651" 
d="M260 700l170 402h219l-207 -471l222 -631h-228l-176 510v-510h-219v1524h219v-824z" />
    <glyph glyph-name="l" unicode="l" horiz-adv-x="301" 
d="M260 1524v-1524h-219v1524h219z" />
    <glyph glyph-name="m" unicode="m" horiz-adv-x="964" 
d="M41 0v1102h215v-125q82 131 180 131h8q62 0 97 -36t47 -93q77 129 186 129h10q70 0 105 -44t35 -122v-942h-219v817q0 46 -11.5 68t-44.5 22q-30 0 -42.5 -18t-14.5 -55v-834h-219v817q0 46 -12 68t-46 22q-33 0 -44 -21t-11 -69v-817h-219z" />
    <glyph glyph-name="n" unicode="n" horiz-adv-x="641" 
d="M41 0v1102h215v-129q32 56 79 95.5t107 39.5h11q53 0 87.5 -28.5t47 -64.5t12.5 -77v-938h-221v825q0 82 -57 82q-34 0 -48 -22t-14 -68v-817h-219z" />
    <glyph glyph-name="o" unicode="o" horiz-adv-x="634" 
d="M35 266v568q0 136 68.5 210t193.5 74h41q124 0 193 -71t69 -205v-576q0 -117 -70 -200.5t-192 -83.5h-41q-133 0 -197.5 81t-64.5 203zM256 831v-555q0 -86 61 -86q31 0 46.5 23.5t15.5 62.5v555q0 84 -62 84q-31 0 -46 -19t-15 -65z" />
    <glyph glyph-name="p" unicode="p" horiz-adv-x="641" 
d="M41 1102h219v-119q78 125 178 125h2q81 0 121.5 -57t40.5 -150v-692q0 -104 -48 -160.5t-120 -56.5h-4q-37 0 -71.5 18t-54 36.5t-44.5 49.5v-481h-219v1487zM260 834v-572q0 -41 18 -62.5t44 -21.5q57 0 57 80v576q0 79 -57 79q-29 0 -45.5 -21t-16.5 -58z" />
    <glyph glyph-name="q" unicode="q" horiz-adv-x="641" 
d="M467 1102h133v-1487h-219v510q-18 -43 -65 -87t-111 -44h-4q-76 0 -119 68.5t-43 170.5v625q0 65 17 119t60 92.5t107 38.5h4q124 0 207 -174q25 77 33 168zM381 276v537q0 90 -66 90q-55 0 -55 -88v-549q0 -82 62 -82q59 0 59 92z" />
    <glyph glyph-name="r" unicode="r" horiz-adv-x="573" 
d="M256 1102v-139q64 145 168 145h8q58 0 86.5 -33.5t28.5 -91.5v-399h-213v245q0 39 -6.5 53.5t-30.5 14.5t-30.5 -15.5t-6.5 -52.5v-829h-219v1102h215z" />
    <glyph glyph-name="s" unicode="s" horiz-adv-x="569" 
d="M537 920v-166h-197v131q0 61 -49 61q-28 0 -37.5 -16t-9.5 -51v-19q0 -40 10 -63t41 -60l133 -159q74 -89 98.5 -153t24.5 -151v-28q0 -51 -14 -96.5t-42 -84t-77.5 -61t-114.5 -22.5h-43q-123 0 -180 61.5t-57 163.5v199h204v-158q0 -42 13 -59t43 -17q51 0 51 76v18
q0 43 -11.5 79t-48.5 79l-129 147q-63 71 -85.5 136t-22.5 149v31q0 109 58.5 170t178.5 61h39q224 0 224 -198z" />
    <glyph glyph-name="t" unicode="t" horiz-adv-x="505" 
d="M485 0h-217q-60 0 -95.5 32.5t-35.5 102.5v758h-125v209h125v362h219v-362h129v-209h-129v-631q0 -31 7.5 -41t35.5 -10h86v-211z" />
    <glyph glyph-name="u" unicode="u" horiz-adv-x="628" 
d="M588 1102v-1102h-211v131q-20 -30 -33.5 -47.5t-37.5 -41t-53 -35t-63 -11.5h-4q-64 0 -104.5 56t-40.5 130v920h219v-826q0 -73 51 -73q33 0 45.5 20.5t12.5 59.5v819h219z" />
    <glyph glyph-name="v" unicode="v" horiz-adv-x="577" 
d="M174 0l-176 1102h213l84 -688l82 688h203l-170 -1102h-236z" />
    <glyph glyph-name="w" unicode="w" horiz-adv-x="942" 
d="M395 0h-229l-168 1102h219l82 -686l84 686h192l84 -686l82 686h203l-168 -1102h-221l-80 627z" />
    <glyph glyph-name="x" unicode="x" horiz-adv-x="577" 
d="M154 588l-152 514h211l82 -328l74 328h194l-139 -510l158 -592h-205l-88 350l-94 -350h-199z" />
    <glyph glyph-name="y" unicode="y" horiz-adv-x="583" 
d="M170 33l-172 1069h213l86 -674l82 674h209l-221 -1323q-14 -84 -45.5 -124t-90.5 -40h-206v209h94q27 0 35.5 11t13.5 44l6 47q6 44 -4 107z" />
    <glyph glyph-name="z" unicode="z" horiz-adv-x="509" 
d="M37 1102h440v-182l-254 -719h271v-201h-480v193l248 712h-225v197z" />
    <glyph glyph-name="braceleft" unicode="{" horiz-adv-x="409" 
d="M334 528q0 -56 -29 -268.5t-29 -261.5q0 -52 20 -77t69 -25h32v-164h-65q-127 0 -190.5 58.5t-63.5 186.5q0 49 33.5 262t33.5 293q0 72 -55 72h-49v189h43q61 0 61 61q0 82 -33.5 304t-33.5 272q0 125 64 175t190 50h65v-164h-37q-45 0 -64.5 -23.5t-19.5 -70.5t29 -258
t29 -265q0 -70 -19 -111.5t-75 -64.5q56 -23 75 -63t19 -107z" />
    <glyph glyph-name="bar" unicode="|" horiz-adv-x="350" 
d="M258 1655v-1923h-166v1923h166z" />
    <glyph glyph-name="braceright" unicode="}" horiz-adv-x="409" 
d="M76 874q0 54 28.5 265t28.5 258t-18.5 70.5t-63.5 23.5h-39v164h66q126 0 190 -50.5t64 -174.5q0 -50 -33 -272t-33 -304q0 -32 14 -46.5t48 -14.5h41v-189h-50q-53 0 -53 -72q0 -80 33 -293t33 -262q0 -128 -63.5 -186.5t-190.5 -58.5h-66v164h33q51 0 69.5 24.5
t18.5 77.5q0 49 -28.5 261.5t-28.5 268.5q0 67 19 107t75 63q-56 23 -75 64.5t-19 111.5z" />
    <glyph glyph-name="asciitilde" unicode="~" horiz-adv-x="565" 
d="M266 719q-41 48 -52 58.5t-21 10.5q-13 0 -13 -22v-143h-153v237q0 52 33 94.5t96 42.5q44 0 76.5 -20t74.5 -72q36 -44 47.5 -55.5t18.5 -11.5q12 0 12 20v150h154v-242q0 -61 -35 -99t-90 -38q-41 0 -73 19.5t-75 70.5z" />
    <glyph glyph-name="nbspace" unicode="&#xa0;" horiz-adv-x="208" 
 />
    <glyph glyph-name="exclamdown" unicode="&#xa1;" horiz-adv-x="307" 
d="M43 840v262h209v-262h-209zM270 -422h-250l89 1210h75z" />
    <glyph glyph-name="cent" unicode="&#xa2;" horiz-adv-x="624" 
d="M596 496v-250q0 -106 -58 -182.5t-180 -83.5v-134h-75v136q-67 4 -117.5 27.5t-77.5 61t-40 79t-13 88.5v602q0 267 248 276v131h75v-129q124 -4 181 -71.5t57 -174.5v-188h-195v158q0 67 -43 84v-746q39 20 39 78v238h199zM240 844v-586q0 -62 43 -80v748
q-43 -17 -43 -82z" />
    <glyph glyph-name="sterling" unicode="&#xa3;" horiz-adv-x="794" 
d="M387 520q0 -112 -32.5 -182.5t-94.5 -132.5h285v303h219v-508h-748v125q31 25 54 48.5t50 61.5t41.5 89.5t14.5 111.5q0 74 -14 228h-146v188h127q-14 158 -14 270v84q0 78 12.5 135.5t43 103.5t86.5 69.5t137 23.5h55q256 0 256 -264v-260h-219v211q0 51 -13.5 74.5
t-52.5 23.5q-40 0 -53.5 -23t-13.5 -75v-174q0 -73 4 -199h252v-188h-240q4 -110 4 -144z" />
    <glyph glyph-name="yen" unicode="&#xa5;" horiz-adv-x="677" 
d="M455 471v-471h-232v471h-209v164h209v59h-209v162h183l-189 668h228l104 -518l104 518h207l-174 -668h187v-162h-209v-59h209v-164h-209z" />
    <glyph glyph-name="brokenbar" unicode="&#xa6;" horiz-adv-x="350" 
d="M258 698v-966h-166v966h166zM258 1655v-871h-166v871h166z" />
    <glyph glyph-name="section" unicode="&#xa7;" horiz-adv-x="778" 
d="M754 553v-55q0 -99 -49 -151t-125 -66q62 -69 79 -115.5t17 -134.5v-154q0 -124 -70 -200t-207 -76h-53q-123 0 -189.5 70.5t-66.5 199.5v240h227v-213q0 -86 64 -86q31 0 43 21.5t12 68.5v80q0 79 -18.5 121.5t-85.5 105.5l-154 135q-94 78 -123.5 144t-29.5 171v80
q0 169 174 197q-51 51 -67.5 113.5t-16.5 169.5v55q0 54 14 99t44 83t84.5 60t129.5 22h51q142 0 199 -67t57 -205v-185h-225v166q0 51 -12.5 68.5t-48.5 17.5q-35 0 -47.5 -21t-12.5 -65v-14q0 -88 16.5 -131.5t75.5 -93.5q19 -18 75.5 -66.5t70.5 -60.5q48 -44 78.5 -79
t49 -62.5t27 -59t11 -58t2.5 -69.5zM424 709q-1 0 -8 6t-21.5 17.5t-27.5 21.5l-58 45q-61 -10 -61 -90v-35q0 -57 17 -87t77 -79l18 -16q16 -12 43 -35l62 -49q57 13 57 116v15q0 54 -17 83.5t-81 86.5z" />
    <glyph glyph-name="dieresis" unicode="&#xa8;" 
d="M328 1362v-201h-183v201h183zM559 1362v-201h-182v201h182z" />
    <glyph glyph-name="copyright" unicode="&#xa9;" horiz-adv-x="1013" 
d="M518 -23h-20q-457 0 -457 502v570q0 243 118.5 370t340.5 127h24q449 0 449 -497v-570q0 -254 -121.5 -378t-333.5 -124zM502 104h16q307 0 307 402v526q0 82 -14.5 148t-48 121.5t-94.5 86.5t-146 31h-20q-88 0 -150 -27.5t-96 -81t-48.5 -121t-14.5 -157.5v-526
q0 -402 309 -402zM514 403q39 0 39 58v235h188v-260q0 -97 -58 -154t-151 -57h-38q-104 0 -159.5 62.5t-55.5 158.5v615q0 242 208 242h48q204 0 204 -226v-170h-190v156q0 32 -7.5 46.5t-29.5 14.5q-23 0 -31 -15t-8 -48v-600q0 -58 41 -58z" />
    <glyph glyph-name="ordfeminine" unicode="&#xaa;" horiz-adv-x="380" 
d="M342 1403v-316q0 -18 16 -18h23v-129h-123q-23 0 -33 17.5t-12 58.5q-14 -31 -43 -56.5t-64 -25.5h-2q-40 0 -64 32t-24 78v111q0 53 18 80.5t62 52.5l101 51q14 8 14 25v16q0 37 -29 37h-2q-28 0 -28 -37v-39h-127v62q0 59 28.5 94t112.5 35h24q90 0 121 -33t31 -96z
M211 1098v129q-21 -9 -39 -27t-18 -55v-51q0 -39 26 -39q31 0 31 43z" />
    <glyph glyph-name="guillemotleft" unicode="&#xab;" horiz-adv-x="509" 
d="M186 586l99 -334h-160l-96 278v111l96 274h160zM406 586l86 -334h-162l-94 334l94 329h164z" />
    <glyph glyph-name="registered" unicode="&#xae;" horiz-adv-x="546" 
d="M283 825h-13q-113 0 -178 69.5t-65 190.5v199q0 112 64.5 182t178.5 70h15q111 0 173 -69t62 -183v-199q0 -116 -66 -188t-171 -72zM272 897h11q155 0 155 203v172q0 84 -35 138t-118 54h-13q-90 -1 -128 -50.5t-38 -149.5v-164q0 -91 39 -147t127 -56zM258 1155v-192
h-92v448h139q78 0 78 -80v-69q0 -45 -37 -60q37 -10 37 -55v-133q0 -32 8 -43v-8h-90q-6 12 -6 41v124v5q0 11 -1 14.5t-5 5.5t-15 2h-16zM258 1339v-110h18q11 0 15 5t4 21v60q0 24 -19 24h-18z" />
    <glyph glyph-name="macron" unicode="&#xaf;" 
d="M174 1186v157h352v-157h-352z" />
    <glyph glyph-name="degree" unicode="&#xb0;" horiz-adv-x="428" 
d="M12 1331q0 87 57.5 142t145.5 55t144.5 -55t56.5 -142q0 -90 -56 -144t-145 -54t-146 54t-57 144zM137 1331q0 -35 20.5 -56.5t55.5 -21.5t55.5 21.5t20.5 56.5t-20.5 56.5t-55.5 21.5t-55.5 -21.5t-20.5 -56.5z" />
    <glyph glyph-name="acute" unicode="&#xb4;" 
d="M219 1161l78 266h184l-82 -266h-180z" />
    <glyph glyph-name="paragraph" unicode="&#xb6;" horiz-adv-x="714" 
d="M242 1524h465v-172h-76v-1352h-156v1352h-69v-1352h-154v698h-10q-112 0 -161.5 55.5t-49.5 178.5v373q0 114 50 166.5t161 52.5z" />
    <glyph glyph-name="periodcentered" unicode="&#xb7;" horiz-adv-x="280" 
d="M248 780v-262h-215v262h215z" />
    <glyph glyph-name="cedilla" unicode="&#xb8;" 
d="M313 -385h-112v123h78q49 0 49 37q0 39 -49 39h-48v186h113v-82q74 0 116 -36.5t42 -108.5v-6q0 -74 -53 -113t-136 -39z" />
    <glyph glyph-name="ordmasculine" unicode="&#xba;" horiz-adv-x="399" 
d="M215 934h-33q-77 0 -117 45.5t-40 128.5v246q0 89 41 133.5t116 44.5h33q75 0 117.5 -43.5t42.5 -128.5v-252q0 -80 -41 -127t-119 -47zM166 1368v-260q0 -43 33 -43q32 0 32 43v260q0 43 -32 43q-33 0 -33 -43z" />
    <glyph glyph-name="guillemotright" unicode="&#xbb;" horiz-adv-x="509" 
d="M223 252l103 334l-103 329h164l94 -278v-107l-98 -278h-160zM16 252l88 334l-88 329h162l96 -329l-96 -334h-162z" />
    <glyph glyph-name="onequarter" unicode="&#xbc;" horiz-adv-x="724" 
d="M104 1325h-90v115q33 0 55 6.5t33.5 20.5t16.5 25.5t10 31.5h123v-695h-148v496zM537 1524h149l-516 -1524h-152zM328 129v96q106 256 182 471h141v-440h60v-127h-60v-129h-141v129h-182zM440 256h70v197q-19 -80 -70 -197z" />
    <glyph glyph-name="onehalf" unicode="&#xbd;" horiz-adv-x="817" 
d="M537 1524h149l-516 -1524h-152zM104 1325h-90v115q33 0 55 6.5t33.5 20.5t16.5 25.5t10 31.5h123v-695h-148v496zM799 0h-389v78q0 56 28 106t127 174q36 40 47 69t11 75v39q0 41 -31 41t-31 -39v-123h-139v127q0 78 35 119t121 41h30q93 0 131.5 -40.5t38.5 -115.5v-43
q0 -73 -24.5 -122.5t-89.5 -117.5q-88 -92 -100.5 -108t-12.5 -37h115v115h133v-238z" />
    <glyph glyph-name="threequarters" unicode="&#xbe;" horiz-adv-x="819" 
d="M631 1524h149l-516 -1524h-151zM164 1288h-137v76q0 89 35 130.5t124 41.5h25q86 0 123 -38.5t37 -125.5v-57q0 -78 -52 -107q64 -31 64 -100v-131q0 -76 -41 -119t-125 -43h-29q-163 0 -163 154v110h143v-100q0 -41 31 -41q16 0 21 9.5t5 31.5v100q0 24 -6 32.5t-26 8.5
h-68v131h63q21 0 29 8.5t8 32.5v78q0 26 -6 35.5t-24 9.5t-24.5 -10t-6.5 -35v-82zM422 129v96q106 256 182 471h141v-440h60v-127h-60v-129h-141v129h-182zM535 256h69v197q-7 -30 -30.5 -97t-38.5 -100z" />
    <glyph glyph-name="questiondown" unicode="&#xbf;" horiz-adv-x="606" 
d="M242 788h182v-245q0 -103 -11 -149.5t-59 -125.5l-59 -100q-30 -48 -37.5 -88.5t-7.5 -110.5v-110q0 -45 11.5 -62.5t45.5 -17.5t44.5 17.5t10.5 62.5v245h218v-245q0 -55 -6 -97.5t-22.5 -81.5t-44 -64.5t-72 -40.5t-105.5 -15h-45q-147 0 -208 71.5t-61 212.5v152
q0 77 20.5 137.5t72.5 136.5l65 95q44 65 56 109t12 136v178zM227 840v262h209v-262h-209z" />
    <glyph glyph-name="Agrave" unicode="&#xc0;" horiz-adv-x="655" 
d="M434 0l-31 287h-170l-28 -287h-207l186 1524h275l198 -1524h-223zM317 1077l-59 -563h121zM418 1583h-189l-90 223h193z" />
    <glyph glyph-name="Aacute" unicode="&#xc1;" horiz-adv-x="655" 
d="M434 0l-31 287h-170l-28 -287h-207l186 1524h275l198 -1524h-223zM317 1077l-59 -563h121zM227 1583l86 223h193l-90 -223h-189z" />
    <glyph glyph-name="Acircumflex" unicode="&#xc2;" horiz-adv-x="655" 
d="M434 0l-31 287h-170l-28 -287h-207l186 1524h275l198 -1524h-223zM317 1077l-59 -563h121zM412 1806l129 -223h-166l-56 98l-55 -98h-164l129 223h183z" />
    <glyph glyph-name="Atilde" unicode="&#xc3;" horiz-adv-x="655" 
d="M434 0l-31 287h-170l-28 -287h-207l186 1524h275l198 -1524h-223zM317 1077l-59 -563h121zM520 1798v-94q0 -55 -22.5 -86t-63.5 -31h-2q-45 0 -117 35q-7 3 -15 7l-12 6t-9.5 3.5t-10.5 1.5q-14 0 -14 -18v-39h-131v96q0 115 88 115h2q46 0 111 -33q39 -22 53 -22
q12 0 12 18v41h131z" />
    <glyph glyph-name="Adieresis" unicode="&#xc4;" horiz-adv-x="655" 
d="M434 0l-31 287h-170l-28 -287h-207l186 1524h275l198 -1524h-223zM317 1077l-59 -563h121zM293 1786v-203h-184v203h184zM530 1786v-203h-184v203h184z" />
    <glyph glyph-name="Aring" unicode="&#xc5;" horiz-adv-x="655" 
d="M434 0l-31 287h-170l-28 -287h-207l186 1524h275l198 -1524h-223zM317 1077l-59 -563h121zM322 1665q29 0 46 18.5t17 49.5q0 30 -17 48.5t-46 18.5t-46.5 -18.5t-17.5 -48.5q0 -31 17.5 -49.5t46.5 -18.5zM483 1735q0 -73 -45 -119.5t-116 -46.5q-72 0 -118 47t-46 119
q0 68 47.5 114.5t116.5 46.5q71 0 116 -46t45 -115z" />
    <glyph glyph-name="AE" unicode="&#xc6;" horiz-adv-x="995" 
d="M975 0h-533v295h-176l-53 -295h-221l289 1524h680v-221h-287v-400h225v-231h-225v-441h301v-231zM307 520h135v750z" />
    <glyph glyph-name="Ccedilla" unicode="&#xc7;" horiz-adv-x="688" 
d="M426 309v355h227v-353q0 -67 -12.5 -121.5t-42 -103.5t-86 -76.5t-135.5 -27.5h-51q-285 0 -285 321v930q0 62 14 114t45 96.5t86.5 69.5t130.5 25h54q73 0 126.5 -19.5t83 -48.5t46.5 -73.5t21.5 -84t4.5 -91.5v-273h-227v269q0 51 -18 75.5t-60 24.5q-41 0 -56.5 -23.5
t-15.5 -76.5v-906q0 -104 74 -104q76 0 76 102zM315 -385h-112v123h78q49 0 49 37q0 39 -49 39h-48v186h113v-82q74 0 116 -36.5t42 -108.5v-6q0 -74 -53 -113t-136 -39z" />
    <glyph glyph-name="Egrave" unicode="&#xc8;" horiz-adv-x="606" 
d="M47 1524h526v-221h-294v-400h231v-231h-231v-441h307v-231h-539v1524zM418 1583h-189l-90 223h193z" />
    <glyph glyph-name="Eacute" unicode="&#xc9;" horiz-adv-x="606" 
d="M47 1524h526v-221h-294v-400h231v-231h-231v-441h307v-231h-539v1524zM221 1583l86 223h193l-90 -223h-189z" />
    <glyph glyph-name="Ecircumflex" unicode="&#xca;" horiz-adv-x="606" 
d="M47 1524h526v-221h-294v-400h231v-231h-231v-441h307v-231h-539v1524zM406 1806l129 -223h-166l-56 98l-55 -98h-164l129 223h183z" />
    <glyph glyph-name="Edieresis" unicode="&#xcb;" horiz-adv-x="606" 
d="M47 1524h526v-221h-294v-400h231v-231h-231v-441h307v-231h-539v1524zM287 1786v-203h-185v203h185zM524 1786v-203h-184v203h184z" />
    <glyph glyph-name="Igrave" unicode="&#xcc;" horiz-adv-x="325" 
d="M279 1524v-1524h-232v1524h232zM256 1583h-188l-91 223h193z" />
    <glyph glyph-name="Iacute" unicode="&#xcd;" horiz-adv-x="325" 
d="M279 1524v-1524h-232v1524h232zM70 1583l86 223h192l-90 -223h-188z" />
    <glyph glyph-name="Icircumflex" unicode="&#xce;" horiz-adv-x="325" 
d="M279 1524v-1524h-232v1524h232zM254 1806l129 -223h-166l-55 98l-56 -98h-163l129 223h182z" />
    <glyph glyph-name="Idieresis" unicode="&#xcf;" horiz-adv-x="325" 
d="M279 1524v-1524h-232v1524h232zM135 1786v-203h-184v203h184zM373 1786v-203h-185v203h185z" />
    <glyph glyph-name="Eth" unicode="&#xd0;" horiz-adv-x="708" 
d="M51 881v643h355q142 0 201 -74.5t59 -218.5v-928q0 -148 -61.5 -225.5t-198.5 -77.5h-355v686h-55v195h55zM283 686v-465h55q52 0 71 27.5t19 91.5v858q0 65 -18.5 92t-61.5 27h-65v-436h94v-195h-94z" />
    <glyph glyph-name="Ntilde" unicode="&#xd1;" horiz-adv-x="712" 
d="M47 1524h209l199 -817v817h211v-1524h-189l-221 877v-877h-209v1524zM565 1798v-94q0 -55 -22.5 -86t-63.5 -31h-2q-45 0 -117 35q-7 3 -15 7l-12 6t-9.5 3.5t-10.5 1.5q-14 0 -14 -18v-39h-131v96q0 115 88 115h2q46 0 111 -33q39 -22 53 -22q12 0 12 18v41h131z" />
    <glyph glyph-name="Ograve" unicode="&#xd2;" horiz-adv-x="714" 
d="M674 1190v-850q0 -171 -68 -264.5t-227 -93.5h-39q-299 0 -299 358v848q0 169 70 259.5t227 90.5h39q160 0 228.5 -90t68.5 -258zM438 324v876q0 117 -80 117q-44 0 -63 -28t-19 -89v-876q0 -117 84 -117q44 0 61 31t17 86zM451 1583h-189l-90 223h193z" />
    <glyph glyph-name="Oacute" unicode="&#xd3;" horiz-adv-x="714" 
d="M674 1190v-850q0 -171 -68 -264.5t-227 -93.5h-39q-299 0 -299 358v848q0 169 70 259.5t227 90.5h39q160 0 228.5 -90t68.5 -258zM438 324v876q0 117 -80 117q-44 0 -63 -28t-19 -89v-876q0 -117 84 -117q44 0 61 31t17 86zM264 1583l86 223h193l-90 -223h-189z" />
    <glyph glyph-name="Ocircumflex" unicode="&#xd4;" horiz-adv-x="714" 
d="M674 1190v-850q0 -171 -68 -264.5t-227 -93.5h-39q-299 0 -299 358v848q0 169 70 259.5t227 90.5h39q160 0 228.5 -90t68.5 -258zM438 324v876q0 117 -80 117q-44 0 -63 -28t-19 -89v-876q0 -117 84 -117q44 0 61 31t17 86zM449 1806l129 -223h-166l-56 98l-55 -98h-164
l129 223h183z" />
    <glyph glyph-name="Otilde" unicode="&#xd5;" horiz-adv-x="714" 
d="M674 1190v-850q0 -171 -68 -264.5t-227 -93.5h-39q-299 0 -299 358v848q0 169 70 259.5t227 90.5h39q160 0 228.5 -90t68.5 -258zM438 324v876q0 117 -80 117q-44 0 -63 -28t-19 -89v-876q0 -117 84 -117q44 0 61 31t17 86zM557 1798v-94q0 -55 -22.5 -86t-63.5 -31h-2
q-45 0 -117 35q-7 3 -15 7l-12 6t-9.5 3.5t-10.5 1.5q-14 0 -14 -18v-39h-131v96q0 115 88 115h2q45 0 110 -33q39 -22 54 -22q12 0 12 18v41h131z" />
    <glyph glyph-name="Odieresis" unicode="&#xd6;" horiz-adv-x="714" 
d="M674 1190v-850q0 -171 -68 -264.5t-227 -93.5h-39q-299 0 -299 358v848q0 169 70 259.5t227 90.5h39q160 0 228.5 -90t68.5 -258zM438 324v876q0 117 -80 117q-44 0 -63 -28t-19 -89v-876q0 -117 84 -117q44 0 61 31t17 86zM330 1786v-203h-185v203h185zM567 1786v-203
h-184v203h184z" />
    <glyph glyph-name="multiply" unicode="&#xd7;" horiz-adv-x="616" 
d="M485 313l-180 183l-174 -183l-119 111l178 188l-180 185l123 129l178 -185l174 185l121 -115l-180 -188l180 -187z" />
    <glyph glyph-name="Oslash" unicode="&#xd8;" horiz-adv-x="714" 
d="M676 1192v-881q0 -144 -78 -237.5t-215 -93.5h-43q-118 0 -180 71l-23 -51h-139l63 166q-22 54 -22 145v879q0 348 295 348h47q108 0 178 -63l19 49h139l-64 -170q23 -77 23 -162zM358 1313q-52 0 -71 -27.5t-19 -87.5v-526l181 524v4q0 113 -91 113zM358 215
q91 0 91 100v535l-181 -520v-17q0 -98 90 -98z" />
    <glyph glyph-name="Ugrave" unicode="&#xd9;" horiz-adv-x="706" 
d="M43 332v1192h236v-1207q0 -108 73 -108q76 0 76 108v1207h236v-1192q0 -167 -71 -258.5t-220 -91.5h-41q-289 0 -289 350zM451 1583h-189l-90 223h193z" />
    <glyph glyph-name="Uacute" unicode="&#xda;" horiz-adv-x="706" 
d="M43 332v1192h236v-1207q0 -108 73 -108q76 0 76 108v1207h236v-1192q0 -167 -71 -258.5t-220 -91.5h-41q-289 0 -289 350zM260 1583l86 223h193l-90 -223h-189z" />
    <glyph glyph-name="Ucircumflex" unicode="&#xdb;" horiz-adv-x="706" 
d="M43 332v1192h236v-1207q0 -108 73 -108q76 0 76 108v1207h236v-1192q0 -167 -71 -258.5t-220 -91.5h-41q-289 0 -289 350zM444 1806l129 -223h-165l-56 98l-55 -98h-164l129 223h182z" />
    <glyph glyph-name="Udieresis" unicode="&#xdc;" horiz-adv-x="706" 
d="M43 332v1192h236v-1207q0 -108 73 -108q76 0 76 108v1207h236v-1192q0 -167 -71 -258.5t-220 -91.5h-41q-289 0 -289 350zM326 1786v-203h-185v203h185zM563 1786v-203h-184v203h184z" />
    <glyph glyph-name="Yacute" unicode="&#xdd;" horiz-adv-x="626" 
d="M635 1524l-203 -891v-633h-231v635l-209 889h225l107 -570l102 570h209zM227 1583l86 223h193l-90 -223h-189z" />
    <glyph glyph-name="Thorn" unicode="&#xde;" horiz-adv-x="692" 
d="M426 391h-147v-391h-232v1524h232v-312h145q120 0 180 -59.5t60 -194.5v-288q0 -279 -238 -279zM279 1010v-416h69q49 0 64.5 27.5t15.5 83.5v200q0 52 -15.5 78.5t-64.5 26.5h-69z" />
    <glyph glyph-name="germandbls" unicode="&#xdf;" horiz-adv-x="638" 
d="M502 905q50 -19 78 -57.5t28 -128.5v-461q0 -69 -10 -113.5t-36 -79t-74.5 -50t-122.5 -15.5h-66v219h39q47 0 47 60v393q0 31 -9.5 45t-37.5 14h-39v215h35q24 0 34.5 15t10.5 55v239q0 40 -11 59t-44 19h-11q-53 0 -53 -76v-1257h-219v1278q0 120 63 185t185 65h57
q129 0 186.5 -61.5t57.5 -198.5v-209q0 -111 -88 -154z" />
    <glyph glyph-name="agrave" unicode="&#xe0;" horiz-adv-x="634" 
d="M31 166v258q0 84 23 134.5t81 86.5q22 15 61 35t81 39.5t49 23.5q18 11 22 18t4 30v69q0 41 -11.5 56.5t-41.5 15.5h-4q-31 0 -43 -16t-12 -54v-117h-197v156q0 209 231 209h41q76 0 127 -17t76.5 -49t35 -67.5t9.5 -83.5v-655q0 -21 6.5 -28t28.5 -7h39v-203h-209
q-36 0 -54 29t-18 96q-74 -131 -180 -131h-6q-63 0 -101 51t-38 121zM352 272v285q-52 -29 -78 -55q-28 -28 -28 -88v-152q0 -72 51 -72q55 0 55 82zM385 1161h-182l-80 266h186z" />
    <glyph glyph-name="aacute" unicode="&#xe1;" horiz-adv-x="634" 
d="M31 166v258q0 84 23 134.5t81 86.5q22 15 61 35t81 39.5t49 23.5q18 11 22 18t4 30v69q0 41 -11.5 56.5t-41.5 15.5h-4q-31 0 -43 -16t-12 -54v-117h-197v156q0 209 231 209h41q76 0 127 -17t76.5 -49t35 -67.5t9.5 -83.5v-655q0 -21 6.5 -28t28.5 -7h39v-203h-209
q-36 0 -54 29t-18 96q-74 -131 -180 -131h-6q-63 0 -101 51t-38 121zM352 272v285q-52 -29 -78 -55q-28 -28 -28 -88v-152q0 -72 51 -72q55 0 55 82zM207 1161l78 266h184l-82 -266h-180z" />
    <glyph glyph-name="acircumflex" unicode="&#xe2;" horiz-adv-x="634" 
d="M31 166v258q0 84 23 134.5t81 86.5q22 15 61 35t81 39.5t49 23.5q18 11 22 18t4 30v69q0 41 -11.5 56.5t-41.5 15.5h-4q-31 0 -43 -16t-12 -54v-117h-197v156q0 209 231 209h41q76 0 127 -17t76.5 -49t35 -67.5t9.5 -83.5v-655q0 -21 6.5 -28t28.5 -7h39v-203h-209
q-36 0 -54 29t-18 96q-74 -131 -180 -131h-6q-63 0 -101 51t-38 121zM352 272v285q-52 -29 -78 -55q-28 -28 -28 -88v-152q0 -72 51 -72q55 0 55 82zM391 1430l117 -269h-162l-51 133l-51 -133h-158l117 269h188z" />
    <glyph glyph-name="atilde" unicode="&#xe3;" horiz-adv-x="634" 
d="M31 166v258q0 84 23 134.5t81 86.5q22 15 61 35t81 39.5t49 23.5q18 11 22 18t4 30v69q0 41 -11.5 56.5t-41.5 15.5h-4q-31 0 -43 -16t-12 -54v-117h-197v156q0 209 231 209h41q76 0 127 -17t76.5 -49t35 -67.5t9.5 -83.5v-655q0 -21 6.5 -28t28.5 -7h39v-203h-209
q-36 0 -54 29t-18 96q-74 -131 -180 -131h-6q-63 0 -101 51t-38 121zM352 272v285q-52 -29 -78 -55q-28 -28 -28 -88v-152q0 -72 51 -72q55 0 55 82zM365 1376h131v-94q0 -55 -22.5 -86t-63.5 -31h-2q-45 0 -117 35q-7 3 -15 7t-12 6.5t-9.5 4t-10.5 1.5q-15 0 -15 -19v-39
h-131v96q0 115 88 115h2q46 0 111 -33q39 -22 53 -22q13 0 13 18v41z" />
    <glyph glyph-name="adieresis" unicode="&#xe4;" horiz-adv-x="634" 
d="M31 166v258q0 84 23 134.5t81 86.5q22 15 61 35t81 39.5t49 23.5q18 11 22 18t4 30v69q0 41 -11.5 56.5t-41.5 15.5h-4q-31 0 -43 -16t-12 -54v-117h-197v156q0 209 231 209h41q76 0 127 -17t76.5 -49t35 -67.5t9.5 -83.5v-655q0 -21 6.5 -28t28.5 -7h39v-203h-209
q-36 0 -54 29t-18 96q-74 -131 -180 -131h-6q-63 0 -101 51t-38 121zM352 272v285q-52 -29 -78 -55q-28 -28 -28 -88v-152q0 -72 51 -72q55 0 55 82zM272 1362v-201h-182v201h182zM504 1362v-201h-182v201h182z" />
    <glyph glyph-name="aring" unicode="&#xe5;" horiz-adv-x="634" 
d="M31 166v258q0 84 23 134.5t81 86.5q22 15 61 35t81 39.5t49 23.5q18 11 22 18t4 30v69q0 41 -11.5 56.5t-41.5 15.5h-4q-31 0 -43 -16t-12 -54v-117h-197v156q0 209 231 209h41q76 0 127 -17t76.5 -49t35 -67.5t9.5 -83.5v-655q0 -21 6.5 -28t28.5 -7h39v-203h-209
q-36 0 -54 29t-18 96q-74 -131 -180 -131h-6q-63 0 -101 51t-38 121zM352 272v285q-52 -29 -78 -55q-28 -28 -28 -88v-152q0 -72 51 -72q55 0 55 82zM297 1153q-72 0 -118 47t-46 119q0 68 47.5 115t116.5 47q71 0 116.5 -46.5t45.5 -115.5q0 -72 -45 -119t-117 -47z
M297 1249q29 0 46 18.5t17 49.5q0 30 -17 48.5t-46 18.5t-46.5 -18.5t-17.5 -48.5q0 -31 17.5 -49.5t46.5 -18.5z" />
    <glyph glyph-name="ae" unicode="&#xe6;" horiz-adv-x="921" 
d="M371 121q-74 -127 -191 -127h-6q-66 0 -104.5 51t-38.5 121v213q0 84 23 134.5t81 86.5q22 15 61 35t81 39.5t49 23.5q18 11 22 18t4 29v119q0 41 -11.5 56.5t-41.5 15.5h-4q-31 0 -43 -16t-12 -54v-166h-197v205q0 209 231 209h37q112 0 154 -59q7 12 21 24t49 25.5
t79 13.5h35q125 0 182.5 -68t57.5 -206v-326h-326v-246q0 -82 60 -82q55 0 55 80v174h211v-182q0 -145 -69.5 -212.5t-178.5 -67.5h-35q-193 0 -235 139zM352 272v240q-52 -29 -78 -55q-28 -28 -28 -88v-107q0 -72 51 -72q55 0 55 82zM563 848v-137h121v137q0 41 -12 63.5
t-47 22.5q-38 0 -50 -22t-12 -64z" />
    <glyph glyph-name="ccedilla" unicode="&#xe7;" horiz-adv-x="608" 
d="M367 494h211v-248q0 -49 -13.5 -94t-41.5 -84t-78 -62.5t-115 -23.5h-41q-124 0 -189 75t-65 191v600q0 270 262 270h39q242 0 242 -239v-197h-211v149q0 48 -10.5 70.5t-45.5 22.5q-34 0 -44.5 -21.5t-10.5 -68.5v-564q0 -84 53 -84q58 0 58 82v226zM276 -385h-112v123
h78q49 0 49 37q0 39 -49 39h-47v186h112v-82q74 0 116 -36.5t42 -108.5v-6q0 -74 -53 -113t-136 -39z" />
    <glyph glyph-name="egrave" unicode="&#xe8;" horiz-adv-x="604" 
d="M285 1116h41q127 0 186 -68.5t59 -205.5v-318h-325v-254q0 -40 13 -61t46 -21q55 0 55 80v183h211v-193q0 -143 -67 -210.5t-189 -67.5h-39q-114 0 -177.5 69.5t-63.5 206.5v596q0 120 61.5 192t188.5 72zM246 844v-139h121v139q0 42 -12.5 65t-47.5 23q-38 0 -49.5 -22
t-11.5 -66zM395 1161h-182l-80 266h186z" />
    <glyph glyph-name="eacute" unicode="&#xe9;" horiz-adv-x="604" 
d="M285 1116h41q127 0 186 -68.5t59 -205.5v-318h-325v-254q0 -40 13 -61t46 -21q55 0 55 80v183h211v-193q0 -143 -67 -210.5t-189 -67.5h-39q-114 0 -177.5 69.5t-63.5 206.5v596q0 120 61.5 192t188.5 72zM246 844v-139h121v139q0 42 -12.5 65t-47.5 23q-38 0 -49.5 -22
t-11.5 -66zM215 1161l78 266h184l-82 -266h-180z" />
    <glyph glyph-name="ecircumflex" unicode="&#xea;" horiz-adv-x="604" 
d="M285 1116h41q127 0 186 -68.5t59 -205.5v-318h-325v-254q0 -40 13 -61t46 -21q55 0 55 80v183h211v-193q0 -143 -67 -210.5t-189 -67.5h-39q-114 0 -177.5 69.5t-63.5 206.5v596q0 120 61.5 192t188.5 72zM246 844v-139h121v139q0 42 -12.5 65t-47.5 23q-38 0 -49.5 -22
t-11.5 -66zM399 1430l117 -269h-162l-51 133l-51 -133h-158l117 269h188z" />
    <glyph glyph-name="edieresis" unicode="&#xeb;" horiz-adv-x="604" 
d="M285 1116h41q127 0 186 -68.5t59 -205.5v-318h-325v-254q0 -40 13 -61t46 -21q55 0 55 80v183h211v-193q0 -143 -67 -210.5t-189 -67.5h-39q-114 0 -177.5 69.5t-63.5 206.5v596q0 120 61.5 192t188.5 72zM246 844v-139h121v139q0 42 -12.5 65t-47.5 23q-38 0 -49.5 -22
t-11.5 -66zM281 1362v-201h-183v201h183zM512 1362v-201h-182v201h182z" />
    <glyph glyph-name="igrave" unicode="&#xec;" horiz-adv-x="301" 
d="M260 1102v-1102h-219v1102h219zM238 1161h-183l-80 266h187z" />
    <glyph glyph-name="iacute" unicode="&#xed;" horiz-adv-x="301" 
d="M260 1102v-1102h-219v1102h219zM63 1161l78 266h185l-82 -266h-181z" />
    <glyph glyph-name="icircumflex" unicode="&#xee;" horiz-adv-x="301" 
d="M246 1425l98 -268h-149l-43 133l-46 -133h-145l96 268h189zM260 1102v-1102h-219v1102h219z" />
    <glyph glyph-name="idieresis" unicode="&#xef;" horiz-adv-x="301" 
d="M129 1362v-201h-170v201h170zM342 1362v-201h-170v201h170zM260 1102v-1102h-219v1102h219z" />
    <glyph glyph-name="eth" unicode="&#xf0;" horiz-adv-x="643" 
d="M109 1130v158l100 51l-86 185h223l45 -92l146 75v-159l-84 -43l71 -146q34 -76 47.5 -111t25 -98t11.5 -145v-539q0 -127 -69 -205.5t-193 -78.5h-47q-132 0 -196 80.5t-64 205.5v629q0 101 42.5 155t111.5 54h4q89 0 165 -98l-94 202zM383 276v558q0 44 -13.5 65
t-47.5 21q-62 0 -62 -86v-558q0 -86 62 -86q61 0 61 86z" />
    <glyph glyph-name="ntilde" unicode="&#xf1;" horiz-adv-x="641" 
d="M41 0v1102h215v-129q32 56 79 95.5t107 39.5h11q53 0 87.5 -28.5t47 -64.5t12.5 -77v-938h-221v825q0 82 -57 82q-34 0 -48 -22t-14 -68v-817h-219zM387 1376h131v-94q0 -55 -22.5 -86t-63.5 -31h-2q-45 0 -117 35q-7 3 -15 7t-12 6.5t-9.5 4t-10.5 1.5q-14 0 -14 -19
v-39h-131v96q0 115 88 115h2q46 0 111 -33q39 -22 53 -22q12 0 12 18v41z" />
    <glyph glyph-name="ograve" unicode="&#xf2;" horiz-adv-x="634" 
d="M35 266v568q0 136 68.5 210t193.5 74h41q124 0 193 -71t69 -205v-576q0 -117 -70 -200.5t-192 -83.5h-41q-133 0 -197.5 81t-64.5 203zM256 831v-555q0 -86 61 -86q31 0 46.5 23.5t15.5 62.5v555q0 84 -62 84q-31 0 -46 -19t-15 -65zM406 1161h-183l-80 266h187z" />
    <glyph glyph-name="oacute" unicode="&#xf3;" horiz-adv-x="634" 
d="M35 266v568q0 136 68.5 210t193.5 74h41q124 0 193 -71t69 -205v-576q0 -117 -70 -200.5t-192 -83.5h-41q-133 0 -197.5 81t-64.5 203zM256 831v-555q0 -86 61 -86q31 0 46.5 23.5t15.5 62.5v555q0 84 -62 84q-31 0 -46 -19t-15 -65zM225 1161l78 266h184l-81 -266h-181z
" />
    <glyph glyph-name="ocircumflex" unicode="&#xf4;" horiz-adv-x="634" 
d="M35 266v568q0 136 68.5 210t193.5 74h41q124 0 193 -71t69 -205v-576q0 -117 -70 -200.5t-192 -83.5h-41q-133 0 -197.5 81t-64.5 203zM256 831v-555q0 -86 61 -86q31 0 46.5 23.5t15.5 62.5v555q0 84 -62 84q-31 0 -46 -19t-15 -65zM412 1430l116 -269h-161l-52 133
l-51 -133h-158l117 269h189z" />
    <glyph glyph-name="otilde" unicode="&#xf5;" horiz-adv-x="634" 
d="M35 266v568q0 136 68.5 210t193.5 74h41q124 0 193 -71t69 -205v-576q0 -117 -70 -200.5t-192 -83.5h-41q-133 0 -197.5 81t-64.5 203zM256 831v-555q0 -86 61 -86q31 0 46.5 23.5t15.5 62.5v555q0 84 -62 84q-31 0 -46 -19t-15 -65zM385 1376h131v-94q0 -55 -22.5 -86
t-63.5 -31h-2q-45 0 -117 35q-7 3 -15 7t-12 6.5t-9.5 4t-10.5 1.5q-14 0 -14 -19v-39h-131v96q0 115 88 115h2q45 0 110 -33q39 -22 54 -22q12 0 12 18v41z" />
    <glyph glyph-name="odieresis" unicode="&#xf6;" horiz-adv-x="634" 
d="M35 266v568q0 136 68.5 210t193.5 74h41q124 0 193 -71t69 -205v-576q0 -117 -70 -200.5t-192 -83.5h-41q-133 0 -197.5 81t-64.5 203zM256 831v-555q0 -86 61 -86q31 0 46.5 23.5t15.5 62.5v555q0 84 -62 84q-31 0 -46 -19t-15 -65zM293 1362v-201h-182v201h182z
M524 1362v-201h-182v201h182z" />
    <glyph glyph-name="divide" unicode="&#xf7;" horiz-adv-x="702" 
d="M33 707h637v-175h-637v175zM453 975v-199h-203v199h203zM453 455v-201h-203v201h203z" />
    <glyph glyph-name="oslash" unicode="&#xf8;" horiz-adv-x="626" 
d="M35 266v568q0 136 66.5 210t189.5 74h45q107 0 166 -59l20 43h125l-69 -154q14 -43 14 -106v-576q0 -118 -68 -201t-188 -83h-45q-107 0 -164 63l-21 -45h-124l69 152q-16 40 -16 114zM381 823v8q0 46 -16 65t-52 19q-34 0 -50.5 -19t-16.5 -65v-315zM313 190q68 0 68 86
v299l-135 -301q0 -84 67 -84z" />
    <glyph glyph-name="ugrave" unicode="&#xf9;" horiz-adv-x="628" 
d="M588 1102v-1102h-211v131q-20 -30 -33.5 -47.5t-37.5 -41t-53 -35t-63 -11.5h-4q-64 0 -104.5 56t-40.5 130v920h219v-826q0 -73 51 -73q33 0 45.5 20.5t12.5 59.5v819h219zM410 1161h-183l-80 266h187z" />
    <glyph glyph-name="uacute" unicode="&#xfa;" horiz-adv-x="628" 
d="M588 1102v-1102h-211v131q-20 -30 -33.5 -47.5t-37.5 -41t-53 -35t-63 -11.5h-4q-64 0 -104.5 56t-40.5 130v920h219v-826q0 -73 51 -73q33 0 45.5 20.5t12.5 59.5v819h219zM221 1161l78 266h184l-82 -266h-180z" />
    <glyph glyph-name="ucircumflex" unicode="&#xfb;" horiz-adv-x="628" 
d="M588 1102v-1102h-211v131q-20 -30 -33.5 -47.5t-37.5 -41t-53 -35t-63 -11.5h-4q-64 0 -104.5 56t-40.5 130v920h219v-826q0 -73 51 -73q33 0 45.5 20.5t12.5 59.5v819h219zM408 1430l116 -269h-162l-51 133l-51 -133h-158l117 269h189z" />
    <glyph glyph-name="udieresis" unicode="&#xfc;" horiz-adv-x="628" 
d="M588 1102v-1102h-211v131q-20 -30 -33.5 -47.5t-37.5 -41t-53 -35t-63 -11.5h-4q-64 0 -104.5 56t-40.5 130v920h219v-826q0 -73 51 -73q33 0 45.5 20.5t12.5 59.5v819h219zM289 1362v-201h-183v201h183zM520 1362v-201h-182v201h182z" />
    <glyph glyph-name="yacute" unicode="&#xfd;" horiz-adv-x="583" 
d="M170 33l-172 1069h213l86 -674l82 674h209l-221 -1323q-14 -84 -45.5 -124t-90.5 -40h-206v209h94q27 0 35.5 11t13.5 44l6 47q6 44 -4 107zM207 1161l78 266h184l-82 -266h-180z" />
    <glyph glyph-name="thorn" unicode="&#xfe;" horiz-adv-x="641" 
d="M41 1524h219v-539q74 123 178 123h2q81 0 121.5 -57t40.5 -150v-692q0 -104 -48 -160.5t-120 -56.5h-4q-37 0 -71.5 18t-54 36.5t-44.5 49.5v-481h-219v1909zM260 834v-572q0 -41 18 -62.5t44 -21.5q57 0 57 80v576q0 79 -57 79q-29 0 -45.5 -21t-16.5 -58z" />
    <glyph glyph-name="ydieresis" unicode="&#xff;" horiz-adv-x="583" 
d="M170 33l-172 1069h213l86 -674l82 674h209l-221 -1323q-14 -84 -45.5 -124t-90.5 -40h-206v209h94q27 0 35.5 11t13.5 44l6 47q6 44 -4 107zM270 1362v-201h-182v201h182zM502 1362v-201h-183v201h183z" />
    <glyph glyph-name="Amacron" unicode="&#x100;" horiz-adv-x="655" 
d="M434 0l-31 287h-170l-28 -287h-207l186 1524h275l198 -1524h-223zM317 1077l-59 -563h121zM143 1597v162h355v-162h-355z" />
    <glyph glyph-name="amacron" unicode="&#x101;" horiz-adv-x="634" 
d="M31 166v258q0 84 23 134.5t81 86.5q22 15 61 35t81 39.5t49 23.5q18 11 22 18t4 30v69q0 41 -11.5 56.5t-41.5 15.5h-4q-31 0 -43 -16t-12 -54v-117h-197v156q0 209 231 209h41q76 0 127 -17t76.5 -49t35 -67.5t9.5 -83.5v-655q0 -21 6.5 -28t28.5 -7h39v-203h-209
q-36 0 -54 29t-18 96q-74 -131 -180 -131h-6q-63 0 -101 51t-38 121zM352 272v285q-52 -29 -78 -55q-28 -28 -28 -88v-152q0 -72 51 -72q55 0 55 82zM121 1186v157h352v-157h-352z" />
    <glyph glyph-name="Abreve" unicode="&#x102;" horiz-adv-x="655" 
d="M434 0l-31 287h-170l-28 -287h-207l186 1524h275l198 -1524h-223zM317 1077l-59 -563h121zM324 1577h-7q-89 0 -145.5 50.5t-56.5 141.5v13h157v-8q0 -56 47 -56h3q23 0 36 15t13 41v8h155v-13q0 -90 -59 -141t-143 -51z" />
    <glyph glyph-name="abreve" unicode="&#x103;" horiz-adv-x="634" 
d="M31 166v258q0 84 23 134.5t81 86.5q22 15 61 35t81 39.5t49 23.5q18 11 22 18t4 30v69q0 41 -11.5 56.5t-41.5 15.5h-4q-31 0 -43 -16t-12 -54v-117h-197v156q0 209 231 209h41q76 0 127 -17t76.5 -49t35 -67.5t9.5 -83.5v-655q0 -21 6.5 -28t28.5 -7h39v-203h-209
q-36 0 -54 29t-18 96q-74 -131 -180 -131h-6q-63 0 -101 51t-38 121zM352 272v285q-52 -29 -78 -55q-28 -28 -28 -88v-152q0 -72 51 -72q55 0 55 82zM299 1157h-6q-96 0 -151.5 53t-55.5 158v8h160v-8q0 -70 49 -70h2q22 0 35.5 17.5t13.5 52.5v8h154v-8
q0 -104 -55.5 -157.5t-145.5 -53.5z" />
    <glyph glyph-name="Aogonek" unicode="&#x104;" horiz-adv-x="655" 
d="M434 0l-31 287h-170l-28 -287h-207l186 1524h275l198 -1524h-223zM317 1077l-59 -563h121zM408 -254v31q0 53 33.5 104t101.5 119h114q-52 -70 -70 -107.5t-18 -78.5v-9q0 -43 49 -43h39v-147h-102q-65 0 -106 34t-41 97z" />
    <glyph glyph-name="aogonek" unicode="&#x105;" horiz-adv-x="634" 
d="M31 166v258q0 84 23 134.5t81 86.5q22 15 61 35t81 39.5t49 23.5q18 11 22 18t4 30v69q0 41 -11.5 56.5t-41.5 15.5h-4q-31 0 -43 -16t-12 -54v-117h-197v156q0 209 231 209h41q76 0 127 -17t76.5 -49t35 -67.5t9.5 -83.5v-655q0 -21 6.5 -28t28.5 -7h39v-203h-209
q-36 0 -54 29t-18 96q-74 -131 -180 -131h-6q-63 0 -101 51t-38 121zM352 272v285q-52 -29 -78 -55q-28 -28 -28 -88v-152q0 -72 51 -72q55 0 55 82zM387 -254v31q0 53 33.5 104t101.5 119h115q-52 -70 -70 -107.5t-18 -78.5v-9q0 -43 49 -43h39v-147h-102q-65 0 -106.5 34
t-41.5 97z" />
    <glyph glyph-name="Cacute" unicode="&#x106;" horiz-adv-x="688" 
d="M426 309v355h227v-353q0 -67 -12.5 -121.5t-42 -103.5t-86 -76.5t-135.5 -27.5h-51q-285 0 -285 321v930q0 62 14 114t45 96.5t86.5 69.5t130.5 25h54q73 0 126.5 -19.5t83 -48.5t46.5 -73.5t21.5 -84t4.5 -91.5v-273h-227v269q0 51 -18 75.5t-60 24.5q-41 0 -56.5 -23.5
t-15.5 -76.5v-906q0 -104 74 -104q76 0 76 102zM256 1583l86 223h193l-91 -223h-188z" />
    <glyph glyph-name="cacute" unicode="&#x107;" horiz-adv-x="608" 
d="M367 494h211v-248q0 -49 -13.5 -94t-41.5 -84t-78 -62.5t-115 -23.5h-41q-124 0 -189 75t-65 191v600q0 270 262 270h39q242 0 242 -239v-197h-211v149q0 48 -10.5 70.5t-45.5 22.5q-34 0 -44.5 -21.5t-10.5 -68.5v-564q0 -84 53 -84q58 0 58 82v226zM221 1161l78 266
h184l-82 -266h-180z" />
    <glyph glyph-name="Ccircumflex" unicode="&#x108;" horiz-adv-x="688" 
d="M426 309v355h227v-353q0 -67 -12.5 -121.5t-42 -103.5t-86 -76.5t-135.5 -27.5h-51q-285 0 -285 321v930q0 62 14 114t45 96.5t86.5 69.5t130.5 25h54q73 0 126.5 -19.5t83 -48.5t46.5 -73.5t21.5 -84t4.5 -91.5v-273h-227v269q0 51 -18 75.5t-60 24.5q-41 0 -56.5 -23.5
t-15.5 -76.5v-906q0 -104 74 -104q76 0 76 102zM442 1806l129 -223h-165l-56 98l-55 -98h-164l129 223h182z" />
    <glyph glyph-name="ccircumflex" unicode="&#x109;" horiz-adv-x="608" 
d="M367 494h211v-248q0 -49 -13.5 -94t-41.5 -84t-78 -62.5t-115 -23.5h-41q-124 0 -189 75t-65 191v600q0 270 262 270h39q242 0 242 -239v-197h-211v149q0 48 -10.5 70.5t-45.5 22.5q-34 0 -44.5 -21.5t-10.5 -68.5v-564q0 -84 53 -84q58 0 58 82v226zM408 1430l116 -269
h-162l-51 133l-51 -133h-158l117 269h189z" />
    <glyph glyph-name="Cdotaccent" unicode="&#x10a;" horiz-adv-x="688" 
d="M426 309v355h227v-353q0 -67 -12.5 -121.5t-42 -103.5t-86 -76.5t-135.5 -27.5h-51q-285 0 -285 321v930q0 62 14 114t45 96.5t86.5 69.5t130.5 25h54q73 0 126.5 -19.5t83 -48.5t46.5 -73.5t21.5 -84t4.5 -91.5v-273h-227v269q0 51 -18 75.5t-60 24.5q-41 0 -56.5 -23.5
t-15.5 -76.5v-906q0 -104 74 -104q76 0 76 102zM459 1819v-236h-219v236h219z" />
    <glyph glyph-name="cdotaccent" unicode="&#x10b;" horiz-adv-x="608" 
d="M367 494h211v-248q0 -49 -13.5 -94t-41.5 -84t-78 -62.5t-115 -23.5h-41q-124 0 -189 75t-65 191v600q0 270 262 270h39q242 0 242 -239v-197h-211v149q0 48 -10.5 70.5t-45.5 22.5q-34 0 -44.5 -21.5t-10.5 -68.5v-564q0 -84 53 -84q58 0 58 82v226zM420 1397v-236h-219
v236h219z" />
    <glyph glyph-name="Ccaron" unicode="&#x10c;" horiz-adv-x="688" 
d="M426 309v355h227v-353q0 -67 -12.5 -121.5t-42 -103.5t-86 -76.5t-135.5 -27.5h-51q-285 0 -285 321v930q0 62 14 114t45 96.5t86.5 69.5t130.5 25h54q73 0 126.5 -19.5t83 -48.5t46.5 -73.5t21.5 -84t4.5 -91.5v-273h-227v269q0 51 -18 75.5t-60 24.5q-41 0 -56.5 -23.5
t-15.5 -76.5v-906q0 -104 74 -104q76 0 76 102zM260 1583l-129 223h166l55 -98l56 98h163l-129 -223h-182z" />
    <glyph glyph-name="ccaron" unicode="&#x10d;" horiz-adv-x="608" 
d="M367 494h211v-248q0 -49 -13.5 -94t-41.5 -84t-78 -62.5t-115 -23.5h-41q-124 0 -189 75t-65 191v600q0 270 262 270h39q242 0 242 -239v-197h-211v149q0 48 -10.5 70.5t-45.5 22.5q-34 0 -44.5 -21.5t-10.5 -68.5v-564q0 -84 53 -84q58 0 58 82v226zM217 1161l-117 266
h162l51 -131l52 131h157l-116 -266h-189z" />
    <glyph glyph-name="Dcaron" unicode="&#x10e;" horiz-adv-x="704" 
d="M47 0v1524h354q142 0 201.5 -74.5t59.5 -218.5v-928q0 -147 -62 -225t-199 -78h-354zM279 1317v-1096h55q52 0 71 27.5t19 91.5v858q0 65 -18.5 92t-61.5 27h-65zM229 1583l-129 223h166l56 -98l55 98h164l-129 -223h-183z" />
    <glyph glyph-name="dcaron" unicode="&#x10f;" horiz-adv-x="636" 
d="M377 1524h219v-1524h-219v125q-17 -47 -61 -91t-109 -44h-2q-74 0 -120 64.5t-46 168.5v672q0 87 39.5 150t118.5 63h4q21 0 39.5 -4.5t34.5 -13.5t28 -17.5t24.5 -23t19 -22.5t17.5 -23.5t13 -18.5v539zM377 291v522q0 98 -62 98q-57 0 -57 -88v-544q0 -89 57 -89
q34 0 48 24.5t14 76.5zM633 1229l14 295h166l-25 -295h-155z" />
    <glyph glyph-name="Dcroat" unicode="&#x110;" horiz-adv-x="708" 
d="M51 881v643h355q142 0 201 -74.5t59 -218.5v-928q0 -148 -61.5 -225.5t-198.5 -77.5h-355v686h-55v195h55zM283 686v-465h55q52 0 71 27.5t19 91.5v858q0 65 -18.5 92t-61.5 27h-65v-436h94v-195h-94z" />
    <glyph glyph-name="dcroat" unicode="&#x111;" horiz-adv-x="636" 
d="M217 1212v146h457v-146h-457zM377 1524h219v-1524h-219v125q-17 -47 -61 -91t-109 -44h-2q-74 0 -120 64.5t-46 168.5v672q0 87 39.5 150t118.5 63h4q21 0 39.5 -4.5t34.5 -13.5t28 -17.5t24.5 -23t19 -22.5t17.5 -23.5t13 -18.5v539zM377 291v522q0 98 -62 98
q-57 0 -57 -88v-544q0 -89 57 -89q34 0 48 24.5t14 76.5z" />
    <glyph glyph-name="Emacron" unicode="&#x112;" horiz-adv-x="606" 
d="M47 1524h526v-221h-294v-400h231v-231h-231v-441h307v-231h-539v1524zM135 1597v162h354v-162h-354z" />
    <glyph glyph-name="emacron" unicode="&#x113;" horiz-adv-x="604" 
d="M285 1116h41q127 0 186 -68.5t59 -205.5v-318h-325v-254q0 -40 13 -61t46 -21q55 0 55 80v183h211v-193q0 -143 -67 -210.5t-189 -67.5h-39q-114 0 -177.5 69.5t-63.5 206.5v596q0 120 61.5 192t188.5 72zM246 844v-139h121v139q0 42 -12.5 65t-47.5 23q-38 0 -49.5 -22
t-11.5 -66zM131 1186v157h352v-157h-352z" />
    <glyph glyph-name="Ebreve" unicode="&#x114;" horiz-adv-x="606" 
d="M47 1524h526v-221h-294v-400h231v-231h-231v-441h307v-231h-539v1524zM319 1577h-6q-89 0 -145.5 50.5t-56.5 141.5v13h157v-8q0 -56 47 -56h2q23 0 36.5 15t13.5 41v8h155v-13q0 -90 -59.5 -141t-143.5 -51z" />
    <glyph glyph-name="ebreve" unicode="&#x115;" horiz-adv-x="604" 
d="M285 1116h41q127 0 186 -68.5t59 -205.5v-318h-325v-254q0 -40 13 -61t46 -21q55 0 55 80v183h211v-193q0 -143 -67 -210.5t-189 -67.5h-39q-114 0 -177.5 69.5t-63.5 206.5v596q0 120 61.5 192t188.5 72zM246 844v-139h121v139q0 42 -12.5 65t-47.5 23q-38 0 -49.5 -22
t-11.5 -66zM309 1157h-6q-96 0 -151.5 53t-55.5 158v8h160v-8q0 -70 49 -70h2q22 0 35.5 17.5t13.5 52.5v8h154v-8q0 -104 -55.5 -157.5t-145.5 -53.5z" />
    <glyph glyph-name="Edotaccent" unicode="&#x116;" horiz-adv-x="606" 
d="M47 1524h526v-221h-294v-400h231v-231h-231v-441h307v-231h-539v1524zM424 1819v-236h-219v236h219z" />
    <glyph glyph-name="edotaccent" unicode="&#x117;" horiz-adv-x="604" 
d="M285 1116h41q127 0 186 -68.5t59 -205.5v-318h-325v-254q0 -40 13 -61t46 -21q55 0 55 80v183h211v-193q0 -143 -67 -210.5t-189 -67.5h-39q-114 0 -177.5 69.5t-63.5 206.5v596q0 120 61.5 192t188.5 72zM246 844v-139h121v139q0 42 -12.5 65t-47.5 23q-38 0 -49.5 -22
t-11.5 -66zM416 1397v-236h-219v236h219z" />
    <glyph glyph-name="Eogonek" unicode="&#x118;" horiz-adv-x="606" 
d="M47 1524h526v-221h-294v-400h231v-231h-231v-441h307v-231h-539v1524zM252 -254v31q0 53 33.5 104t101.5 119h115q-52 -70 -70 -107.5t-18 -78.5v-9q0 -43 49 -43h39v-147h-103q-65 0 -106 34t-41 97z" />
    <glyph glyph-name="eogonek" unicode="&#x119;" horiz-adv-x="604" 
d="M467 -6q-48 -61 -67 -101.5t-19 -78.5v-9q0 -43 49 -43h39v-147h-102q-65 0 -106.5 34t-41.5 97v31q0 50 27.5 96t85.5 107h-17h-39q-114 0 -177.5 69.5t-63.5 206.5v596q0 120 61.5 192t188.5 72h41q127 0 186 -68.5t59 -205.5v-318h-325v-254q0 -40 13 -61t46 -21
q55 0 55 80v183h211v-193q0 -37 -5.5 -70.5t-12 -55t-20.5 -46.5t-21 -35t-24 -31t-21 -26zM246 844v-139h121v139q0 42 -12.5 65t-47.5 23q-38 0 -49.5 -22t-11.5 -66z" />
    <glyph glyph-name="Ecaron" unicode="&#x11a;" horiz-adv-x="606" 
d="M47 1524h526v-221h-294v-400h231v-231h-231v-441h307v-231h-539v1524zM227 1583l-129 223h166l55 -98l56 98h164l-129 -223h-183z" />
    <glyph glyph-name="ecaron" unicode="&#x11b;" horiz-adv-x="604" 
d="M285 1116h41q127 0 186 -68.5t59 -205.5v-318h-325v-254q0 -40 13 -61t46 -21q55 0 55 80v183h211v-193q0 -143 -67 -210.5t-189 -67.5h-39q-114 0 -177.5 69.5t-63.5 206.5v596q0 120 61.5 192t188.5 72zM246 844v-139h121v139q0 42 -12.5 65t-47.5 23q-38 0 -49.5 -22
t-11.5 -66zM213 1161l-117 266h162l51 -131l51 131h158l-117 -266h-188z" />
    <glyph glyph-name="Gcircumflex" unicode="&#x11c;" horiz-adv-x="698" 
d="M276 -20h-14q-101 0 -161 78.5t-60 199.5v952q0 54 8 100t28.5 89t52.5 73t82 48t114 18h45q72 0 123.5 -19t81 -48.5t46 -77t21 -92t4.5 -105.5v-156h-225v172q0 54 -16.5 79.5t-57.5 25.5q-72 0 -72 -105v-890q0 -109 76 -109q43 0 64.5 26.5t21.5 71.5v381h-104v234
h323v-926h-131q-21 84 -39 150q-7 -21 -24 -48t-43 -55.5t-64.5 -47.5t-79.5 -19zM442 1806l129 -223h-165l-56 98l-55 -98h-164l129 223h182z" />
    <glyph glyph-name="gcircumflex" unicode="&#x11d;" horiz-adv-x="638" 
d="M379 -150v281q-65 -141 -180 -141q-67 0 -113.5 57.5t-46.5 147.5v659q0 122 41.5 188t120.5 66q66 0 106.5 -34.5t75.5 -98.5v127h215v-1280q0 -30 -3.5 -54.5t-19 -57t-41.5 -55t-76 -38.5t-118 -16h-49q-137 0 -190.5 51.5t-53.5 136.5v160h211v-99q0 -32 12.5 -47.5
t42.5 -15.5h9q33 0 45 15t12 48zM379 276v558q0 79 -62 79q-57 0 -57 -79v-560q0 -81 59 -81q29 0 44.5 22t15.5 61zM412 1430l116 -269h-161l-52 133l-51 -133h-158l117 269h189z" />
    <glyph glyph-name="Gbreve" unicode="&#x11e;" horiz-adv-x="698" 
d="M276 -20h-14q-101 0 -161 78.5t-60 199.5v952q0 54 8 100t28.5 89t52.5 73t82 48t114 18h45q72 0 123.5 -19t81 -48.5t46 -77t21 -92t4.5 -105.5v-156h-225v172q0 54 -16.5 79.5t-57.5 25.5q-72 0 -72 -105v-890q0 -109 76 -109q43 0 64.5 26.5t21.5 71.5v381h-104v234
h323v-926h-131q-21 84 -39 150q-7 -21 -24 -48t-43 -55.5t-64.5 -47.5t-79.5 -19zM354 1577h-6q-89 0 -146 50.5t-57 141.5v13h158v-8q0 -56 47 -56h2q23 0 36 15t13 41v8h156v-13q0 -90 -59.5 -141t-143.5 -51z" />
    <glyph glyph-name="gbreve" unicode="&#x11f;" horiz-adv-x="638" 
d="M379 -150v281q-65 -141 -180 -141q-67 0 -113.5 57.5t-46.5 147.5v659q0 122 41.5 188t120.5 66q66 0 106.5 -34.5t75.5 -98.5v127h215v-1280q0 -30 -3.5 -54.5t-19 -57t-41.5 -55t-76 -38.5t-118 -16h-49q-137 0 -190.5 51.5t-53.5 136.5v160h211v-99q0 -32 12.5 -47.5
t42.5 -15.5h9q33 0 45 15t12 48zM379 276v558q0 79 -62 79q-57 0 -57 -79v-560q0 -81 59 -81q29 0 44.5 22t15.5 61zM322 1157h-7q-96 0 -151 53t-55 158v8h159v-8q0 -70 49 -70h2q22 0 36 17.5t14 52.5v8h153v-8q0 -104 -55.5 -157.5t-144.5 -53.5z" />
    <glyph glyph-name="Gdotaccent" unicode="&#x120;" horiz-adv-x="698" 
d="M276 -20h-14q-101 0 -161 78.5t-60 199.5v952q0 54 8 100t28.5 89t52.5 73t82 48t114 18h45q72 0 123.5 -19t81 -48.5t46 -77t21 -92t4.5 -105.5v-156h-225v172q0 54 -16.5 79.5t-57.5 25.5q-72 0 -72 -105v-890q0 -109 76 -109q43 0 64.5 26.5t21.5 71.5v381h-104v234
h323v-926h-131q-21 84 -39 150q-7 -21 -24 -48t-43 -55.5t-64.5 -47.5t-79.5 -19zM459 1819v-236h-219v236h219z" />
    <glyph glyph-name="gdotaccent" unicode="&#x121;" horiz-adv-x="638" 
d="M379 -150v281q-65 -141 -180 -141q-67 0 -113.5 57.5t-46.5 147.5v659q0 122 41.5 188t120.5 66q66 0 106.5 -34.5t75.5 -98.5v127h215v-1280q0 -30 -3.5 -54.5t-19 -57t-41.5 -55t-76 -38.5t-118 -16h-49q-137 0 -190.5 51.5t-53.5 136.5v160h211v-99q0 -32 12.5 -47.5
t42.5 -15.5h9q33 0 45 15t12 48zM379 276v558q0 79 -62 79q-57 0 -57 -79v-560q0 -81 59 -81q29 0 44.5 22t15.5 61zM426 1397v-236h-219v236h219z" />
    <glyph glyph-name="uni0122" unicode="&#x122;" horiz-adv-x="698" 
d="M276 -20h-14q-101 0 -161 78.5t-60 199.5v952q0 54 8 100t28.5 89t52.5 73t82 48t114 18h45q72 0 123.5 -19t81 -48.5t46 -77t21 -92t4.5 -105.5v-156h-225v172q0 54 -16.5 79.5t-57.5 25.5q-72 0 -72 -105v-890q0 -109 76 -109q43 0 64.5 26.5t21.5 71.5v381h-104v234
h323v-926h-131q-21 84 -39 150q-7 -21 -24 -48t-43 -55.5t-64.5 -47.5t-79.5 -19zM403 -401h-92q25 67 27 133h-78v209h189v-131q0 -109 -46 -211z" />
    <glyph glyph-name="uni0123" unicode="&#x123;" horiz-adv-x="638" 
d="M379 -150v281q-65 -141 -180 -141q-67 0 -113.5 57.5t-46.5 147.5v659q0 122 41.5 188t120.5 66q66 0 106.5 -34.5t75.5 -98.5v127h215v-1280q0 -30 -3.5 -54.5t-19 -57t-41.5 -55t-76 -38.5t-118 -16h-49q-137 0 -190.5 51.5t-53.5 136.5v160h211v-99q0 -32 12.5 -47.5
t42.5 -15.5h9q33 0 45 15t12 48zM379 276v558q0 79 -62 79q-57 0 -57 -79v-560q0 -81 59 -81q29 0 44.5 22t15.5 61zM260 1503h100q-26 -81 -26 -135h76v-207h-191v127q0 124 41 215z" />
    <glyph glyph-name="Hcircumflex" unicode="&#x124;" horiz-adv-x="714" 
d="M279 670v-670h-232v1524h232v-611h157v611h232v-1524h-232v670h-157zM449 1806l129 -223h-166l-56 98l-55 -98h-164l129 223h183z" />
    <glyph glyph-name="hcircumflex" unicode="&#x125;" horiz-adv-x="641" 
d="M41 0v1524h219v-547q77 131 182 131h11q42 0 72 -16t45.5 -42.5t22.5 -54t7 -57.5v-938h-221v825q0 82 -57 82q-34 0 -48 -22t-14 -68v-817h-219zM377 1806l129 -223h-166l-55 98l-56 -98h-163l129 223h182z" />
    <glyph glyph-name="Hbar" unicode="&#x126;" horiz-adv-x="714" 
d="M-10 1133v172h735v-172h-735zM279 670v-670h-232v1524h232v-611h157v611h232v-1524h-232v670h-157z" />
    <glyph glyph-name="hbar" unicode="&#x127;" horiz-adv-x="641" 
d="M-37 1212v146h457v-146h-457zM41 0v1524h219v-547q77 131 182 131h11q42 0 72 -16t45.5 -42.5t22.5 -54t7 -57.5v-938h-221v825q0 82 -57 82q-34 0 -48 -22t-14 -68v-817h-219z" />
    <glyph glyph-name="Itilde" unicode="&#x128;" horiz-adv-x="325" 
d="M279 1524v-1524h-232v1524h232zM362 1798v-94q0 -55 -22.5 -86t-63.5 -31h-2q-44 0 -116 35q-7 3 -15 7l-12 6t-9.5 3.5t-10.5 1.5q-15 0 -15 -18v-39h-131v96q0 115 88 115h2q46 0 111 -33q39 -22 53 -22q12 0 12 18v41h131z" />
    <glyph glyph-name="itilde" unicode="&#x129;" horiz-adv-x="301" 
d="M221 1368h125v-78q0 -57 -23.5 -91t-64.5 -34h-2q-42 0 -109 33q-35 14 -43 14q-16 0 -16 -22v-29h-125v78q0 59 24 92t66 33h2q37 0 101 -29q41 -18 53 -18t12 18v33zM260 1102v-1102h-219v1102h219z" />
    <glyph glyph-name="Imacron" unicode="&#x12a;" horiz-adv-x="325" 
d="M279 1524v-1524h-232v1524h232zM-14 1597v162h354v-162h-354z" />
    <glyph glyph-name="imacron" unicode="&#x12b;" horiz-adv-x="301" 
d="M-10 1186v160h321v-160h-321zM260 1102v-1102h-219v1102h219z" />
    <glyph glyph-name="Ibreve" unicode="&#x12c;" horiz-adv-x="325" 
d="M279 1524v-1524h-232v1524h232zM166 1577h-6q-89 0 -146 50.5t-57 141.5v13h158v-8q0 -56 47 -56h2q23 0 36 15t13 41v8h156v-13q0 -90 -59.5 -141t-143.5 -51z" />
    <glyph glyph-name="ibreve" unicode="&#x12d;" horiz-adv-x="301" 
d="M154 1157h-7q-92 0 -141 47.5t-49 132.5v39h156v-20q0 -56 37 -56h2q36 0 36 56v20h156v-39q0 -84 -51.5 -132t-138.5 -48zM260 1102v-1102h-219v1102h219z" />
    <glyph glyph-name="Iogonek" unicode="&#x12e;" horiz-adv-x="325" 
d="M279 1524v-1524h-232v1524h232zM29 -254v31q0 53 33.5 104t101.5 119h115q-52 -71 -70.5 -108.5t-18.5 -77.5v-9q0 -43 50 -43h39v-147h-103q-65 0 -106 34t-41 97z" />
    <glyph glyph-name="iogonek" unicode="&#x12f;" horiz-adv-x="301" 
d="M260 1102v-1102h-219v1102h219zM260 1397v-236h-219v236h219zM10 -254v31q0 53 33.5 104t101.5 119h115q-52 -70 -70 -107.5t-18 -78.5v-9q0 -43 49 -43h39v-147h-102q-65 0 -106.5 34t-41.5 97z" />
    <glyph glyph-name="Idotaccent" unicode="&#x130;" horiz-adv-x="325" 
d="M279 1524v-1524h-232v1524h232zM270 1819v-236h-219v236h219z" />
    <glyph glyph-name="dotlessi" unicode="&#x131;" horiz-adv-x="301" 
d="M260 1102v-1102h-219v1102h219z" />
    <glyph glyph-name="IJ" unicode="&#x132;" horiz-adv-x="970" 
d="M279 1524v-1524h-232v1524h232zM348 672h227v-375q0 -43 12.5 -63.5t43.5 -20.5h8q53 0 53 84v1227h236v-1245q0 -146 -68.5 -218.5t-193.5 -72.5h-64q-121 0 -187.5 63.5t-66.5 212.5v408z" />
    <glyph glyph-name="ij" unicode="&#x133;" horiz-adv-x="595" 
d="M260 1102v-1102h-219v1102h219zM260 1397v-236h-219v236h219zM555 1397v-236h-219v236h219zM190 -176h103q43 0 43 49v1229h219v-1327q0 -160 -141 -160h-224v209z" />
    <glyph glyph-name="Jcircumflex" unicode="&#x134;" horiz-adv-x="653" 
d="M31 672h227v-375q0 -43 12 -63.5t43 -20.5h9q53 0 53 84v1227h235v-1245q0 -146 -68.5 -218.5t-193.5 -72.5h-63q-121 0 -187.5 63.5t-66.5 212.5v408zM580 1806l129 -223h-166l-56 98l-55 -98h-164l129 223h183z" />
    <glyph glyph-name="jcircumflex" unicode="&#x135;" horiz-adv-x="303" 
d="M246 1425l98 -268h-149l-43 133l-46 -133h-145l96 268h189zM-102 -176h102q43 0 43 49v1229h219v-1327q0 -160 -141 -160h-223v209z" />
    <glyph glyph-name="uni0136" unicode="&#x136;" 
d="M279 662v-662h-232v1524h232v-611l182 611h225l-215 -709l238 -815h-238zM418 -401h-92q24 64 26 133h-78v209h189v-131q0 -111 -45 -211z" />
    <glyph glyph-name="uni0137" unicode="&#x137;" horiz-adv-x="651" 
d="M260 700l170 402h219l-207 -471l222 -631h-228l-176 510v-510h-219v1524h219v-824zM397 -401h-92q25 67 27 133h-78v209h188v-131q0 -111 -45 -211z" />
    <glyph glyph-name="Lacute" unicode="&#x139;" horiz-adv-x="581" 
d="M47 1524h232v-1288h282v-236h-514v1524zM70 1583l86 223h192l-90 -223h-188z" />
    <glyph glyph-name="lacute" unicode="&#x13a;" horiz-adv-x="301" 
d="M260 1524v-1524h-219v1524h219zM59 1583l86 223h193l-90 -223h-189z" />
    <glyph glyph-name="uni013B" unicode="&#x13b;" horiz-adv-x="581" 
d="M47 1524h232v-1288h282v-236h-514v1524zM356 -401h-92q25 67 27 133h-78v209h188v-131q0 -111 -45 -211z" />
    <glyph glyph-name="uni013C" unicode="&#x13c;" horiz-adv-x="301" 
d="M260 1524v-1524h-219v1524h219zM203 -401h-92q24 64 26 133h-78v209h189v-131q0 -111 -45 -211z" />
    <glyph glyph-name="Lcaron" unicode="&#x13d;" horiz-adv-x="581" 
d="M315 1229l15 295h166l-25 -295h-156zM47 1524h232v-1288h282v-236h-514v1524z" />
    <glyph glyph-name="lcaron" unicode="&#x13e;" horiz-adv-x="301" 
d="M297 1229l14 295h166l-24 -295h-156zM260 1524v-1524h-219v1524h219z" />
    <glyph glyph-name="Ldot" unicode="&#x13f;" horiz-adv-x="579" 
d="M557 918v-261h-215v261h215zM47 1524h232v-1288h282v-236h-514v1524z" />
    <glyph glyph-name="ldot" unicode="&#x140;" horiz-adv-x="534" 
d="M520 922v-263h-213v263h213zM260 1524v-1524h-219v1524h219z" />
    <glyph glyph-name="Lslash" unicode="&#x141;" horiz-adv-x="608" 
d="M76 1524h231v-637l197 143v-213l-197 -139v-442h283v-236h-514v516l-70 -49v203l70 49v805z" />
    <glyph glyph-name="lslash" unicode="&#x142;" horiz-adv-x="346" 
d="M283 872v-872h-220v715l-61 -43v194l61 43v615h220v-455l61 45v-196z" />
    <glyph glyph-name="Nacute" unicode="&#x143;" horiz-adv-x="712" 
d="M47 1524h209l199 -817v817h211v-1524h-189l-221 877v-877h-209v1524zM258 1583l86 223h193l-91 -223h-188z" />
    <glyph glyph-name="nacute" unicode="&#x144;" horiz-adv-x="641" 
d="M41 0v1102h215v-129q32 56 79 95.5t107 39.5h11q53 0 87.5 -28.5t47 -64.5t12.5 -77v-938h-221v825q0 82 -57 82q-34 0 -48 -22t-14 -68v-817h-219zM227 1161l78 266h184l-81 -266h-181z" />
    <glyph glyph-name="uni0145" unicode="&#x145;" horiz-adv-x="712" 
d="M47 1524h209l199 -817v817h211v-1524h-189l-221 877v-877h-209v1524zM414 -401h-92q24 64 26 133h-78v209h189v-131q0 -111 -45 -211z" />
    <glyph glyph-name="uni0146" unicode="&#x146;" horiz-adv-x="641" 
d="M41 0v1102h215v-129q32 56 79 95.5t107 39.5h11q53 0 87.5 -28.5t47 -64.5t12.5 -77v-938h-221v825q0 82 -57 82q-34 0 -48 -22t-14 -68v-817h-219zM373 -401h-92q24 64 26 133h-78v209h189v-131q0 -111 -45 -211z" />
    <glyph glyph-name="Ncaron" unicode="&#x147;" horiz-adv-x="712" 
d="M47 1524h209l199 -817v817h211v-1524h-189l-221 877v-877h-209v1524zM272 1583l-129 223h166l56 -98l55 98h164l-129 -223h-183z" />
    <glyph glyph-name="ncaron" unicode="&#x148;" horiz-adv-x="641" 
d="M41 0v1102h215v-129q32 56 79 95.5t107 39.5h11q53 0 87.5 -28.5t47 -64.5t12.5 -77v-938h-221v825q0 82 -57 82q-34 0 -48 -22t-14 -68v-817h-219zM227 1161l-116 266h161l52 -131l51 131h157l-116 -266h-189z" />
    <glyph glyph-name="napostrophe" unicode="&#x149;" horiz-adv-x="794" 
d="M195 0v1102h215v-129q32 56 79 95.5t107 39.5h10q53 0 88 -28.5t47.5 -65t12.5 -76.5v-938h-222v825q0 82 -57 82q-34 0 -47.5 -22t-13.5 -68v-817h-219zM162 1120h-113q28 77 37 174h-82v230h203v-168q0 -128 -45 -236z" />
    <glyph glyph-name="Eng" unicode="&#x14a;" horiz-adv-x="712" 
d="M469 -385h-119v209h53q30 0 42 12.5t12 44.5v119l-201 872v-872h-209v1524h213l197 -862v862h209v-1682q0 -124 -45.5 -175.5t-151.5 -51.5z" />
    <glyph glyph-name="eng" unicode="&#x14b;" horiz-adv-x="641" 
d="M379 -127v952q0 82 -57 82q-34 0 -48 -22t-14 -68v-817h-219v1102h215v-129q31 55 79.5 95t106.5 40h11q53 0 87.5 -28.5t47 -64.5t12.5 -77v-1163q0 -160 -143 -160h-168v209h47q43 0 43 49z" />
    <glyph glyph-name="Omacron" unicode="&#x14c;" horiz-adv-x="714" 
d="M674 1190v-850q0 -171 -68 -264.5t-227 -93.5h-39q-299 0 -299 358v848q0 169 70 259.5t227 90.5h39q160 0 228.5 -90t68.5 -258zM438 324v876q0 117 -80 117q-44 0 -63 -28t-19 -89v-876q0 -117 84 -117q44 0 61 31t17 86zM180 1597v162h355v-162h-355z" />
    <glyph glyph-name="omacron" unicode="&#x14d;" horiz-adv-x="634" 
d="M35 266v568q0 136 68.5 210t193.5 74h41q124 0 193 -71t69 -205v-576q0 -117 -70 -200.5t-192 -83.5h-41q-133 0 -197.5 81t-64.5 203zM256 831v-555q0 -86 61 -86q31 0 46.5 23.5t15.5 62.5v555q0 84 -62 84q-31 0 -46 -19t-15 -65zM141 1186v157h353v-157h-353z" />
    <glyph glyph-name="Obreve" unicode="&#x14e;" horiz-adv-x="714" 
d="M674 1190v-850q0 -171 -68 -264.5t-227 -93.5h-39q-299 0 -299 358v848q0 169 70 259.5t227 90.5h39q160 0 228.5 -90t68.5 -258zM438 324v876q0 117 -80 117q-44 0 -63 -28t-19 -89v-876q0 -117 84 -117q44 0 61 31t17 86zM360 1577h-6q-89 0 -145.5 50.5t-56.5 141.5
v13h157v-8q0 -56 47 -56h2q23 0 36.5 15t13.5 41v8h155v-13q0 -90 -59.5 -141t-143.5 -51z" />
    <glyph glyph-name="obreve" unicode="&#x14f;" horiz-adv-x="634" 
d="M35 266v568q0 136 68.5 210t193.5 74h41q124 0 193 -71t69 -205v-576q0 -117 -70 -200.5t-192 -83.5h-41q-133 0 -197.5 81t-64.5 203zM256 831v-555q0 -86 61 -86q31 0 46.5 23.5t15.5 62.5v555q0 84 -62 84q-31 0 -46 -19t-15 -65zM322 1157h-7q-96 0 -151 53t-55 158
v8h159v-8q0 -70 49 -70h2q22 0 36 17.5t14 52.5v8h153v-8q0 -104 -55.5 -157.5t-144.5 -53.5z" />
    <glyph glyph-name="Ohungarumlaut" unicode="&#x150;" horiz-adv-x="714" 
d="M674 1190v-850q0 -171 -68 -264.5t-227 -93.5h-39q-299 0 -299 358v848q0 169 70 259.5t227 90.5h39q160 0 228.5 -90t68.5 -258zM438 324v876q0 117 -80 117q-44 0 -63 -28t-19 -89v-876q0 -117 84 -117q44 0 61 31t17 86zM551 1583h-154l60 221h159zM199 1583l51 221
h160l-58 -221h-153z" />
    <glyph glyph-name="ohungarumlaut" unicode="&#x151;" horiz-adv-x="634" 
d="M35 266v568q0 136 68.5 210t193.5 74h41q124 0 193 -71t69 -205v-576q0 -117 -70 -200.5t-192 -83.5h-41q-133 0 -197.5 81t-64.5 203zM256 831v-555q0 -86 61 -86q31 0 46.5 23.5t15.5 62.5v555q0 84 -62 84q-31 0 -46 -19t-15 -65zM502 1161h-152l56 260h155zM150 1161
l51 260h155l-55 -260h-151z" />
    <glyph glyph-name="OE" unicode="&#x152;" horiz-adv-x="995" 
d="M41 328v864q0 162 55.5 254t163.5 92h6q30 0 55.5 -6.5t41.5 -13t33 -22t23 -22.5t19.5 -26t14.5 -21v97h508v-221h-287v-400h225v-231h-225v-441h301v-231h-522v104q-65 -124 -191 -124h-6q-96 0 -155.5 86.5t-59.5 261.5zM442 342v842q0 64 -17.5 96.5t-62.5 32.5
t-63 -32.5t-18 -96.5v-842q0 -64 18 -96.5t63 -32.5t62.5 32.5t17.5 96.5z" />
    <glyph glyph-name="oe" unicode="&#x153;" horiz-adv-x="948" 
d="M915 518h-325v-252q0 -38 13 -58t46 -20q56 0 56 78v178h210v-186q0 -144 -69 -211t-180 -67h-35q-109 0 -164 63q-7 -10 -22.5 -23t-51.5 -26.5t-78 -13.5h-34q-64 0 -113 24t-77 65t-42 90.5t-14 106.5v570q0 134 63.5 208t180.5 74h32q118 0 170 -59q16 21 54.5 40
t101.5 19h39q119 0 179 -65t60 -179v-356zM256 827v-544q0 -86 61 -86q62 0 62 86v544q0 43 -14 64.5t-48 21.5t-47.5 -21t-13.5 -65zM590 848v-137h121v131q0 43 -12.5 66.5t-47.5 23.5q-38 0 -49.5 -21t-11.5 -63z" />
    <glyph glyph-name="Racute" unicode="&#x154;" horiz-adv-x="694" 
d="M279 1317v-420h61q45 0 64.5 27.5t19.5 81.5v213q0 53 -16.5 75.5t-67.5 22.5h-61zM279 680v-680h-232v1524h375q119 0 175 -54.5t56 -181.5v-270q0 -85 -30.5 -132.5t-69.5 -62.5q46 -21 73 -58t27 -108v-534q0 -60 23 -113v-10h-230q-22 35 -22 125v459q0 54 -16.5 75
t-69.5 21h-59zM240 1583l86 223h192l-90 -223h-188z" />
    <glyph glyph-name="racute" unicode="&#x155;" horiz-adv-x="573" 
d="M256 1102v-139q64 145 168 145h8q58 0 86.5 -33.5t28.5 -91.5v-399h-213v245q0 39 -6.5 53.5t-30.5 14.5t-30.5 -15.5t-6.5 -52.5v-829h-219v1102h215zM209 1161l78 266h184l-82 -266h-180z" />
    <glyph glyph-name="uni0156" unicode="&#x156;" horiz-adv-x="694" 
d="M279 1317v-420h61q45 0 64.5 27.5t19.5 81.5v213q0 53 -16.5 75.5t-67.5 22.5h-61zM279 680v-680h-232v1524h375q119 0 175 -54.5t56 -181.5v-270q0 -85 -30.5 -132.5t-69.5 -62.5q46 -21 73 -58t27 -108v-534q0 -60 23 -113v-10h-230q-22 35 -22 125v459q0 54 -16.5 75
t-69.5 21h-59zM408 -401h-93q25 67 27 133h-78v209h189v-131q0 -111 -45 -211z" />
    <glyph glyph-name="uni0157" unicode="&#x157;" horiz-adv-x="573" 
d="M256 1102v-139q64 145 168 145h8q58 0 86.5 -33.5t28.5 -91.5v-399h-213v245q0 39 -6.5 53.5t-30.5 14.5t-30.5 -15.5t-6.5 -52.5v-829h-219v1102h215zM201 -401h-92q24 64 26 133h-78v209h189v-131q0 -111 -45 -211z" />
    <glyph glyph-name="Rcaron" unicode="&#x158;" horiz-adv-x="694" 
d="M279 1317v-420h61q45 0 64.5 27.5t19.5 81.5v213q0 53 -16.5 75.5t-67.5 22.5h-61zM279 680v-680h-232v1524h375q119 0 175 -54.5t56 -181.5v-270q0 -85 -30.5 -132.5t-69.5 -62.5q46 -21 73 -58t27 -108v-534q0 -60 23 -113v-10h-230q-22 35 -22 125v459q0 54 -16.5 75
t-69.5 21h-59zM244 1583l-129 223h166l55 -98l55 98h164l-129 -223h-182z" />
    <glyph glyph-name="rcaron" unicode="&#x159;" horiz-adv-x="573" 
d="M256 1102v-139q64 145 168 145h8q58 0 86.5 -33.5t28.5 -91.5v-399h-213v245q0 39 -6.5 53.5t-30.5 14.5t-30.5 -15.5t-6.5 -52.5v-829h-219v1102h215zM207 1161l-117 266h162l51 -131l51 131h158l-117 -266h-188z" />
    <glyph glyph-name="Sacute" unicode="&#x15a;" horiz-adv-x="681" 
d="M326 1538h43q141 0 202.5 -63.5t61.5 -200.5v-250h-223v219q0 43 -14 66.5t-52 23.5q-40 0 -54 -24.5t-14 -81.5v-29q0 -66 18.5 -112.5t76.5 -120.5l147 -191q80 -104 108.5 -181t28.5 -204v-49q0 -171 -74 -263.5t-225 -92.5h-45q-139 0 -210.5 73.5t-71.5 214.5v306
h229v-267q0 -106 76 -106q41 0 58.5 29.5t17.5 101.5v35q0 84 -16.5 129t-78.5 127l-147 188q-72 93 -99.5 177t-27.5 200v49q0 297 285 297zM250 1583l86 223h192l-90 -223h-188z" />
    <glyph glyph-name="sacute" unicode="&#x15b;" horiz-adv-x="569" 
d="M537 920v-166h-197v131q0 61 -49 61q-28 0 -37.5 -16t-9.5 -51v-19q0 -40 10 -63t41 -60l133 -159q74 -89 98.5 -153t24.5 -151v-28q0 -51 -14 -96.5t-42 -84t-77.5 -61t-114.5 -22.5h-43q-123 0 -180 61.5t-57 163.5v199h204v-158q0 -42 13 -59t43 -17q51 0 51 76v18
q0 43 -11.5 79t-48.5 79l-129 147q-63 71 -85.5 136t-22.5 149v31q0 109 58.5 170t178.5 61h39q224 0 224 -198zM203 1161l78 266h184l-82 -266h-180z" />
    <glyph glyph-name="Scircumflex" unicode="&#x15c;" horiz-adv-x="681" 
d="M326 1538h43q141 0 202.5 -63.5t61.5 -200.5v-250h-223v219q0 43 -14 66.5t-52 23.5q-40 0 -54 -24.5t-14 -81.5v-29q0 -66 18.5 -112.5t76.5 -120.5l147 -191q80 -104 108.5 -181t28.5 -204v-49q0 -171 -74 -263.5t-225 -92.5h-45q-139 0 -210.5 73.5t-71.5 214.5v306
h229v-267q0 -106 76 -106q41 0 58.5 29.5t17.5 101.5v35q0 84 -16.5 129t-78.5 127l-147 188q-72 93 -99.5 177t-27.5 200v49q0 297 285 297zM434 1806l129 -223h-166l-55 98l-55 -98h-164l129 223h182z" />
    <glyph glyph-name="scircumflex" unicode="&#x15d;" horiz-adv-x="569" 
d="M537 920v-166h-197v131q0 61 -49 61q-28 0 -37.5 -16t-9.5 -51v-19q0 -40 10 -63t41 -60l133 -159q74 -89 98.5 -153t24.5 -151v-28q0 -51 -14 -96.5t-42 -84t-77.5 -61t-114.5 -22.5h-43q-123 0 -180 61.5t-57 163.5v199h204v-158q0 -42 13 -59t43 -17q51 0 51 76v18
q0 43 -11.5 79t-48.5 79l-129 147q-63 71 -85.5 136t-22.5 149v31q0 109 58.5 170t178.5 61h39q224 0 224 -198zM389 1430l117 -269h-162l-51 133l-51 -133h-158l117 269h188z" />
    <glyph glyph-name="uni015E" unicode="&#x15e;" horiz-adv-x="681" 
d="M326 1538h43q141 0 202.5 -63.5t61.5 -200.5v-250h-223v219q0 43 -14 66.5t-52 23.5q-40 0 -54 -24.5t-14 -81.5v-29q0 -66 18.5 -112.5t76.5 -120.5l147 -191q80 -104 108.5 -181t28.5 -204v-49q0 -171 -74 -263.5t-225 -92.5h-45q-139 0 -210.5 73.5t-71.5 214.5v306
h229v-267q0 -106 76 -106q41 0 58.5 29.5t17.5 101.5v35q0 84 -16.5 129t-78.5 127l-147 188q-72 93 -99.5 177t-27.5 200v49q0 297 285 297zM309 -385h-112v123h77q50 0 50 37q0 39 -50 39h-47v186h113v-82q74 0 116 -36.5t42 -108.5v-6q0 -74 -53 -113t-136 -39z" />
    <glyph glyph-name="uni015F" unicode="&#x15f;" horiz-adv-x="569" 
d="M537 920v-166h-197v131q0 61 -49 61q-28 0 -37.5 -16t-9.5 -51v-19q0 -40 10 -63t41 -60l133 -159q74 -89 98.5 -153t24.5 -151v-28q0 -51 -14 -96.5t-42 -84t-77.5 -61t-114.5 -22.5h-43q-123 0 -180 61.5t-57 163.5v199h204v-158q0 -42 13 -59t43 -17q51 0 51 76v18
q0 43 -11.5 79t-48.5 79l-129 147q-63 71 -85.5 136t-22.5 149v31q0 109 58.5 170t178.5 61h39q224 0 224 -198zM254 -385h-113v123h78q49 0 49 37q0 39 -49 39h-47v186h113v-82q74 0 115.5 -36.5t41.5 -108.5v-6q0 -75 -52.5 -113.5t-135.5 -38.5z" />
    <glyph glyph-name="Scaron" unicode="&#x160;" horiz-adv-x="681" 
d="M326 1538h43q141 0 202.5 -63.5t61.5 -200.5v-250h-223v219q0 43 -14 66.5t-52 23.5q-40 0 -54 -24.5t-14 -81.5v-29q0 -66 18.5 -112.5t76.5 -120.5l147 -191q80 -104 108.5 -181t28.5 -204v-49q0 -171 -74 -263.5t-225 -92.5h-45q-139 0 -210.5 73.5t-71.5 214.5v306
h229v-267q0 -106 76 -106q41 0 58.5 29.5t17.5 101.5v35q0 84 -16.5 129t-78.5 127l-147 188q-72 93 -99.5 177t-27.5 200v49q0 297 285 297zM254 1583l-129 223h166l55 -98l55 98h164l-129 -223h-182z" />
    <glyph glyph-name="scaron" unicode="&#x161;" horiz-adv-x="569" 
d="M537 920v-166h-197v131q0 61 -49 61q-28 0 -37.5 -16t-9.5 -51v-19q0 -40 10 -63t41 -60l133 -159q74 -89 98.5 -153t24.5 -151v-28q0 -51 -14 -96.5t-42 -84t-77.5 -61t-114.5 -22.5h-43q-123 0 -180 61.5t-57 163.5v199h204v-158q0 -42 13 -59t43 -17q51 0 51 76v18
q0 43 -11.5 79t-48.5 79l-129 147q-63 71 -85.5 136t-22.5 149v31q0 109 58.5 170t178.5 61h39q224 0 224 -198zM201 1161l-117 266h162l51 -131l51 131h158l-117 -266h-188z" />
    <glyph glyph-name="Tcommaaccent" unicode="&#x162;" horiz-adv-x="655" 
d="M18 1524h619v-221h-195v-1303h-229v1303h-195v221zM381 -401h-92q24 64 26 133h-77v209h188v-131q0 -111 -45 -211z" />
    <glyph glyph-name="tcommaaccent" unicode="&#x163;" horiz-adv-x="505" 
d="M485 0h-217q-60 0 -95.5 32.5t-35.5 102.5v758h-125v209h125v362h219v-362h129v-209h-129v-631q0 -31 7.5 -41t35.5 -10h86v-211zM377 -401h-92q24 64 26 133h-78v209h189v-131q0 -111 -45 -211z" />
    <glyph glyph-name="Tcaron" unicode="&#x164;" horiz-adv-x="655" 
d="M18 1524h619v-221h-195v-1303h-229v1303h-195v221zM240 1583l-129 223h165l56 -98l55 98h164l-129 -223h-182z" />
    <glyph glyph-name="tcaron" unicode="&#x165;" horiz-adv-x="505" 
d="M393 1229l15 295h165l-24 -295h-156zM485 0h-217q-60 0 -95.5 32.5t-35.5 102.5v758h-125v209h125v362h219v-362h129v-209h-129v-631q0 -31 7.5 -41t35.5 -10h86v-211z" />
    <glyph glyph-name="Tbar" unicode="&#x166;" horiz-adv-x="655" 
d="M586 754h-516v196h516v-196zM18 1524h619v-221h-195v-1303h-229v1303h-195v221z" />
    <glyph glyph-name="tbar" unicode="&#x167;" horiz-adv-x="505" 
d="M487 0h-217q-60 0 -95.5 32.5t-35.5 102.5v385h-127v193h127v178h-127v211h127v362h219v-362h129v-211h-129v-178h129v-193h-129v-256q0 -31 7.5 -41t35.5 -10h86v-213z" />
    <glyph glyph-name="Utilde" unicode="&#x168;" horiz-adv-x="706" 
d="M43 332v1192h236v-1207q0 -108 73 -108q76 0 76 108v1207h236v-1192q0 -167 -71 -258.5t-220 -91.5h-41q-289 0 -289 350zM553 1798v-94q0 -55 -22.5 -86t-63.5 -31h-2q-45 0 -117 35q-7 3 -15 7l-12 6t-9.5 3.5t-10.5 1.5q-14 0 -14 -18v-39h-131v96q0 115 88 115h2
q45 0 110 -33q39 -22 54 -22q12 0 12 18v41h131z" />
    <glyph glyph-name="utilde" unicode="&#x169;" horiz-adv-x="628" 
d="M588 1102v-1102h-211v131q-20 -30 -33.5 -47.5t-37.5 -41t-53 -35t-63 -11.5h-4q-64 0 -104.5 56t-40.5 130v920h219v-826q0 -73 51 -73q33 0 45.5 20.5t12.5 59.5v819h219zM387 1376h131v-94q0 -55 -22.5 -86t-63.5 -31h-2q-45 0 -117 35q-7 3 -15 7t-12 6.5t-9.5 4
t-10.5 1.5q-14 0 -14 -19v-39h-131v96q0 115 88 115h2q46 0 111 -33q39 -22 53 -22q12 0 12 18v41z" />
    <glyph glyph-name="Umacron" unicode="&#x16a;" horiz-adv-x="706" 
d="M43 332v1192h236v-1207q0 -108 73 -108q76 0 76 108v1207h236v-1192q0 -167 -71 -258.5t-220 -91.5h-41q-289 0 -289 350zM176 1597v162h354v-162h-354z" />
    <glyph glyph-name="umacron" unicode="&#x16b;" horiz-adv-x="628" 
d="M588 1102v-1102h-211v131q-20 -30 -33.5 -47.5t-37.5 -41t-53 -35t-63 -11.5h-4q-64 0 -104.5 56t-40.5 130v920h219v-826q0 -73 51 -73q33 0 45.5 20.5t12.5 59.5v819h219zM139 1186v157h353v-157h-353z" />
    <glyph glyph-name="Ubreve" unicode="&#x16c;" horiz-adv-x="706" 
d="M43 332v1192h236v-1207q0 -108 73 -108q76 0 76 108v1207h236v-1192q0 -167 -71 -258.5t-220 -91.5h-41q-289 0 -289 350zM356 1577h-6q-89 0 -146 50.5t-57 141.5v13h158v-8q0 -56 47 -56h2q23 0 36 15t13 41v8h156v-13q0 -90 -59.5 -141t-143.5 -51z" />
    <glyph glyph-name="ubreve" unicode="&#x16d;" horiz-adv-x="628" 
d="M588 1102v-1102h-211v131q-20 -30 -33.5 -47.5t-37.5 -41t-53 -35t-63 -11.5h-4q-64 0 -104.5 56t-40.5 130v920h219v-826q0 -73 51 -73q33 0 45.5 20.5t12.5 59.5v819h219zM317 1157h-6q-96 0 -151.5 53t-55.5 158v8h160v-8q0 -70 49 -70h2q22 0 36 17.5t14 52.5v8h153
v-8q0 -104 -55.5 -157.5t-145.5 -53.5z" />
    <glyph glyph-name="Uring" unicode="&#x16e;" horiz-adv-x="706" 
d="M43 332v1192h236v-1207q0 -108 73 -108q76 0 76 108v1207h236v-1192q0 -167 -71 -258.5t-220 -91.5h-41q-289 0 -289 350zM354 1665q29 0 46.5 18.5t17.5 49.5q0 30 -17.5 48.5t-46.5 18.5t-46 -18.5t-17 -48.5q0 -31 17 -49.5t46 -18.5zM516 1735q0 -72 -45 -119
t-117 -47t-118 47t-46 119q0 68 47.5 114.5t116.5 46.5q71 0 116.5 -46.5t45.5 -114.5z" />
    <glyph glyph-name="uring" unicode="&#x16f;" horiz-adv-x="628" 
d="M588 1102v-1102h-211v131q-20 -30 -33.5 -47.5t-37.5 -41t-53 -35t-63 -11.5h-4q-64 0 -104.5 56t-40.5 130v920h219v-826q0 -73 51 -73q33 0 45.5 20.5t12.5 59.5v819h219zM315 1153q-72 0 -117.5 47t-45.5 119q0 68 47 115t116 47q71 0 116.5 -46.5t45.5 -115.5
q0 -72 -45 -119t-117 -47zM315 1249q29 0 46.5 18.5t17.5 49.5q0 30 -17.5 48.5t-46.5 18.5t-46 -18.5t-17 -48.5q0 -31 17 -49.5t46 -18.5z" />
    <glyph glyph-name="Uhungarumlaut" unicode="&#x170;" horiz-adv-x="706" 
d="M43 332v1192h236v-1207q0 -108 73 -108q76 0 76 108v1207h236v-1192q0 -167 -71 -258.5t-220 -91.5h-41q-289 0 -289 350zM528 1583h-153l59 221h160zM176 1583l51 221h160l-57 -221h-154z" />
    <glyph glyph-name="uhungarumlaut" unicode="&#x171;" horiz-adv-x="628" 
d="M588 1102v-1102h-211v131q-20 -30 -33.5 -47.5t-37.5 -41t-53 -35t-63 -11.5h-4q-64 0 -104.5 56t-40.5 130v920h219v-826q0 -73 51 -73q33 0 45.5 20.5t12.5 59.5v819h219zM496 1161h-152l55 260h156zM143 1161l52 260h155l-55 -260h-152z" />
    <glyph glyph-name="Uogonek" unicode="&#x172;" horiz-adv-x="706" 
d="M539 0q-50 -64 -70 -104.5t-20 -81.5v-9q0 -43 49 -43h39v-147h-103q-65 0 -106 34t-41 97v31q0 51 30.5 99.5t90.5 107.5q-10 -2 -35 -2h-41q-289 0 -289 350v1192h236v-1207q0 -108 73 -108q76 0 76 108v1207h236v-1192q0 -47 -6.5 -89.5t-13 -67.5t-24.5 -58
t-24 -42.5t-30.5 -41t-26.5 -33.5z" />
    <glyph glyph-name="uogonek" unicode="&#x173;" horiz-adv-x="628" 
d="M588 1102v-1102h-211v131q-20 -30 -33.5 -47.5t-37.5 -41t-53 -35t-63 -11.5h-4q-64 0 -104.5 56t-40.5 130v920h219v-826q0 -73 51 -73q33 0 45.5 20.5t12.5 59.5v819h219zM338 -254v31q0 53 33.5 104t101.5 119h115q-52 -70 -70 -107.5t-18 -78.5v-9q0 -43 49 -43h39
v-147h-103q-65 0 -106 34t-41 97z" />
    <glyph glyph-name="Wcircumflex" unicode="&#x174;" horiz-adv-x="1087" 
d="M442 1524h215l105 -987l106 987h217l-194 -1524h-248l-96 887l-98 -887h-256l-191 1524h234l104 -985zM637 1806l129 -223h-166l-55 98l-56 -98h-163l129 223h182z" />
    <glyph glyph-name="wcircumflex" unicode="&#x175;" horiz-adv-x="942" 
d="M395 0h-229l-168 1102h219l82 -686l84 686h192l84 -686l82 686h203l-168 -1102h-221l-80 627zM571 1430l117 -269h-162l-51 133l-51 -133h-158l117 269h188z" />
    <glyph glyph-name="Ycircumflex" unicode="&#x176;" horiz-adv-x="626" 
d="M635 1524l-203 -891v-633h-231v635l-209 889h225l107 -570l102 570h209zM412 1806l129 -223h-166l-56 98l-55 -98h-164l129 223h183z" />
    <glyph glyph-name="ycircumflex" unicode="&#x177;" horiz-adv-x="583" 
d="M170 33l-172 1069h213l86 -674l82 674h209l-221 -1323q-14 -84 -45.5 -124t-90.5 -40h-206v209h94q27 0 35.5 11t13.5 44l6 47q6 44 -4 107zM391 1430l117 -269h-162l-51 133l-51 -133h-158l117 269h188z" />
    <glyph glyph-name="Ydieresis" unicode="&#x178;" horiz-adv-x="626" 
d="M635 1524l-203 -891v-633h-231v635l-209 889h225l107 -570l102 570h209zM293 1786v-203h-184v203h184zM530 1786v-203h-184v203h184z" />
    <glyph glyph-name="Zacute" unicode="&#x179;" horiz-adv-x="624" 
d="M37 1524h555v-201l-334 -1100h350v-223h-592v207l330 1100h-309v217zM213 1583l86 223h193l-91 -223h-188z" />
    <glyph glyph-name="zacute" unicode="&#x17a;" horiz-adv-x="509" 
d="M37 1102h440v-182l-254 -719h271v-201h-480v193l248 712h-225v197zM164 1161l78 266h184l-82 -266h-180z" />
    <glyph glyph-name="Zdotaccent" unicode="&#x17b;" horiz-adv-x="624" 
d="M37 1524h555v-201l-334 -1100h350v-223h-592v207l330 1100h-309v217zM422 1819v-236h-219v236h219z" />
    <glyph glyph-name="zdotaccent" unicode="&#x17c;" horiz-adv-x="509" 
d="M37 1102h440v-182l-254 -719h271v-201h-480v193l248 712h-225v197zM365 1397v-236h-220v236h220z" />
    <glyph glyph-name="Zcaron" unicode="&#x17d;" horiz-adv-x="624" 
d="M37 1524h555v-201l-334 -1100h350v-223h-592v207l330 1100h-309v217zM223 1583l-129 223h166l55 -98l56 98h164l-129 -223h-183z" />
    <glyph glyph-name="zcaron" unicode="&#x17e;" horiz-adv-x="509" 
d="M37 1102h440v-182l-254 -719h271v-201h-480v193l248 712h-225v197zM164 1161l-117 266h162l51 -131l51 131h158l-117 -266h-188z" />
    <glyph glyph-name="florin" unicode="&#x192;" horiz-adv-x="532" 
d="M82 -385l51 1149h-110v211h120l19 387q5 81 50 121.5t163 40.5h131v-201h-72q-30 -2 -43 -15.5t-14 -50.5l-15 -282h144v-211h-152l-53 -1149h-219z" />
    <glyph glyph-name="Aringacute" unicode="&#x1fa;" horiz-adv-x="655" 
d="M236 1935l86 224h192l-90 -224h-188zM434 0l-31 287h-170l-28 -287h-207l186 1524h275l198 -1524h-223zM317 1077l-59 -563h121zM326 1665q29 0 46 18.5t17 49.5q0 30 -17 48.5t-46 18.5t-46.5 -18.5t-17.5 -48.5q0 -31 17.5 -49.5t46.5 -18.5zM487 1735
q0 -73 -45 -119.5t-116 -46.5q-72 0 -118 47t-46 119q0 68 47.5 114.5t116.5 46.5q71 0 116 -46t45 -115z" />
    <glyph glyph-name="aringacute" unicode="&#x1fb;" horiz-adv-x="634" 
d="M31 166v258q0 84 23 134.5t81 86.5q22 15 61 35t81 39.5t49 23.5q18 11 22 18t4 30v69q0 41 -11.5 56.5t-41.5 15.5h-4q-31 0 -43 -16t-12 -54v-117h-197v156q0 209 231 209h41q76 0 127 -17t76.5 -49t35 -67.5t9.5 -83.5v-655q0 -21 6.5 -28t28.5 -7h39v-203h-209
q-36 0 -54 29t-18 96q-74 -131 -180 -131h-6q-63 0 -101 51t-38 121zM352 272v285q-52 -29 -78 -55q-28 -28 -28 -88v-152q0 -72 51 -72q55 0 55 82zM293 1153q-72 0 -118 47t-46 119q0 68 47.5 115t116.5 47q71 0 116.5 -46.5t45.5 -115.5q0 -72 -45 -119t-117 -47z
M293 1249q29 0 46 18.5t17 49.5q0 30 -17 48.5t-46 18.5t-46.5 -18.5t-17.5 -48.5q0 -31 17.5 -49.5t46.5 -18.5zM207 1520l78 266h184l-82 -266h-180z" />
    <glyph glyph-name="AEacute" unicode="&#x1fc;" horiz-adv-x="995" 
d="M975 0h-533v295h-176l-53 -295h-221l289 1524h680v-221h-287v-400h225v-231h-225v-441h301v-231zM307 520h135v750zM514 1583l86 223h193l-91 -223h-188z" />
    <glyph glyph-name="aeacute" unicode="&#x1fd;" horiz-adv-x="921" 
d="M371 121q-74 -127 -191 -127h-6q-66 0 -104.5 51t-38.5 121v213q0 84 23 134.5t81 86.5q22 15 61 35t81 39.5t49 23.5q18 11 22 18t4 29v119q0 41 -11.5 56.5t-41.5 15.5h-4q-31 0 -43 -16t-12 -54v-166h-197v205q0 209 231 209h37q112 0 154 -59q7 12 21 24t49 25.5
t79 13.5h35q125 0 182.5 -68t57.5 -206v-326h-326v-246q0 -82 60 -82q55 0 55 80v174h211v-182q0 -145 -69.5 -212.5t-178.5 -67.5h-35q-193 0 -235 139zM352 272v240q-52 -29 -78 -55q-28 -28 -28 -88v-107q0 -72 51 -72q55 0 55 82zM563 848v-137h121v137q0 41 -12 63.5
t-47 22.5q-38 0 -50 -22t-12 -64zM375 1161l78 266h184l-82 -266h-180z" />
    <glyph glyph-name="Oslashacute" unicode="&#x1fe;" horiz-adv-x="714" 
d="M676 1192v-881q0 -144 -78 -237.5t-215 -93.5h-43q-118 0 -180 71l-23 -51h-139l63 166q-22 54 -22 145v879q0 348 295 348h47q108 0 178 -63l19 49h139l-64 -170q23 -77 23 -162zM358 1313q-52 0 -71 -27.5t-19 -87.5v-526l181 524v4q0 113 -91 113zM358 215
q91 0 91 100v535l-181 -520v-17q0 -98 90 -98zM264 1583l86 223h193l-90 -223h-189z" />
    <glyph glyph-name="oslashacute" unicode="&#x1ff;" horiz-adv-x="626" 
d="M35 266v568q0 136 66.5 210t189.5 74h45q107 0 166 -59l20 43h125l-69 -154q14 -43 14 -106v-576q0 -118 -68 -201t-188 -83h-45q-107 0 -164 63l-21 -45h-124l69 152q-16 40 -16 114zM381 823v8q0 46 -16 65t-52 19q-34 0 -50.5 -19t-16.5 -65v-315zM313 190q68 0 68 86
v299l-135 -301q0 -84 67 -84zM223 1161l78 266h184l-82 -266h-180z" />
    <glyph glyph-name="uni0218" unicode="&#x218;" horiz-adv-x="681" 
d="M326 1538h43q141 0 202.5 -63.5t61.5 -200.5v-250h-223v219q0 43 -14 66.5t-52 23.5q-40 0 -54 -24.5t-14 -81.5v-29q0 -66 18.5 -112.5t76.5 -120.5l147 -191q80 -104 108.5 -181t28.5 -204v-49q0 -171 -74 -263.5t-225 -92.5h-45q-139 0 -210.5 73.5t-71.5 214.5v306
h229v-267q0 -106 76 -106q41 0 58.5 29.5t17.5 101.5v35q0 84 -16.5 129t-78.5 127l-147 188q-72 93 -99.5 177t-27.5 200v49q0 297 285 297zM383 -401h-92q24 64 26 133h-77v209h188v-131q0 -111 -45 -211z" />
    <glyph glyph-name="uni0219" unicode="&#x219;" horiz-adv-x="569" 
d="M537 920v-166h-197v131q0 61 -49 61q-28 0 -37.5 -16t-9.5 -51v-19q0 -40 10 -63t41 -60l133 -159q74 -89 98.5 -153t24.5 -151v-28q0 -51 -14 -96.5t-42 -84t-77.5 -61t-114.5 -22.5h-43q-123 0 -180 61.5t-57 163.5v199h204v-158q0 -42 13 -59t43 -17q51 0 51 76v18
q0 43 -11.5 79t-48.5 79l-129 147q-63 71 -85.5 136t-22.5 149v31q0 109 58.5 170t178.5 61h39q224 0 224 -198zM330 -401h-92q24 64 26 133h-78v209h189v-131q0 -111 -45 -211z" />
    <glyph glyph-name="uni021A" unicode="&#x21a;" horiz-adv-x="655" 
d="M18 1524h619v-221h-195v-1303h-229v1303h-195v221zM381 -401h-92q24 64 26 133h-77v209h188v-131q0 -111 -45 -211z" />
    <glyph glyph-name="uni021B" unicode="&#x21b;" horiz-adv-x="505" 
d="M485 0h-217q-60 0 -95.5 32.5t-35.5 102.5v758h-125v209h125v362h219v-362h129v-209h-129v-631q0 -31 7.5 -41t35.5 -10h86v-211zM377 -401h-92q24 64 26 133h-78v209h189v-131q0 -111 -45 -211z" />
    <glyph glyph-name="uni0237" unicode="&#x237;" horiz-adv-x="303" 
d="M-102 -176h102q43 0 43 49v1229h219v-1327q0 -160 -141 -160h-223v209z" />
    <glyph glyph-name="circumflex" unicode="&#x2c6;" 
d="M444 1430l117 -269h-162l-51 133l-51 -133h-158l117 269h188z" />
    <glyph glyph-name="caron" unicode="&#x2c7;" 
d="M256 1161l-117 266h162l51 -131l51 131h158l-117 -266h-188z" />
    <glyph glyph-name="breve" unicode="&#x2d8;" 
d="M356 1157h-6q-96 0 -151.5 53t-55.5 158v8h160v-8q0 -70 49 -70h2q22 0 35.5 17.5t13.5 52.5v8h154v-8q0 -104 -55.5 -157.5t-145.5 -53.5z" />
    <glyph glyph-name="dotaccent" unicode="&#x2d9;" 
d="M459 1397v-236h-219v236h219z" />
    <glyph glyph-name="ring" unicode="&#x2da;" 
d="M352 1153q-72 0 -118 47t-46 119q0 68 47.5 115t116.5 47q71 0 116.5 -46.5t45.5 -115.5q0 -72 -45 -119t-117 -47zM352 1249q29 0 46.5 18.5t17.5 49.5q0 30 -17.5 48.5t-46.5 18.5t-46 -18.5t-17 -48.5q0 -31 17 -49.5t46 -18.5z" />
    <glyph glyph-name="ogonek" unicode="&#x2db;" 
d="M223 -254v31q0 53 33.5 104t101.5 119h115q-52 -70 -70 -107.5t-18 -78.5v-9q0 -43 49 -43h39v-147h-102q-65 0 -106.5 34t-41.5 97z" />
    <glyph glyph-name="tilde" unicode="&#x2dc;" 
d="M418 1376h131v-94q0 -55 -22.5 -86t-63.5 -31h-2q-45 0 -117 35q-7 3 -15 7t-12 6.5t-9.5 4t-10.5 1.5q-14 0 -14 -19v-39h-131v96q0 115 88 115h2q45 0 110 -33q39 -22 54 -22q12 0 12 18v41z" />
    <glyph glyph-name="hungarumlaut" unicode="&#x2dd;" 
d="M498 1161h-152l55 260h156zM145 1161l52 260h155l-55 -260h-152z" />
    <glyph glyph-name="Wgrave" unicode="&#x1e80;" horiz-adv-x="1087" 
d="M442 1524h215l105 -987l106 987h217l-194 -1524h-248l-96 887l-98 -887h-256l-191 1524h234l104 -985zM641 1583h-188l-91 223h193z" />
    <glyph glyph-name="wgrave" unicode="&#x1e81;" horiz-adv-x="942" 
d="M395 0h-229l-168 1102h219l82 -686l84 686h192l84 -686l82 686h203l-168 -1102h-221l-80 627zM565 1161h-182l-80 266h186z" />
    <glyph glyph-name="Wacute" unicode="&#x1e82;" horiz-adv-x="1087" 
d="M442 1524h215l105 -987l106 987h217l-194 -1524h-248l-96 887l-98 -887h-256l-191 1524h234l104 -985zM457 1583l86 223h192l-90 -223h-188z" />
    <glyph glyph-name="wacute" unicode="&#x1e83;" horiz-adv-x="942" 
d="M395 0h-229l-168 1102h219l82 -686l84 686h192l84 -686l82 686h203l-168 -1102h-221l-80 627zM391 1161l78 266h184l-82 -266h-180z" />
    <glyph glyph-name="Wdieresis" unicode="&#x1e84;" horiz-adv-x="1087" 
d="M442 1524h215l105 -987l106 987h217l-194 -1524h-248l-96 887l-98 -887h-256l-191 1524h234l104 -985zM522 1786v-203h-184v203h184zM760 1786v-203h-185v203h185z" />
    <glyph glyph-name="wdieresis" unicode="&#x1e85;" horiz-adv-x="942" 
d="M395 0h-229l-168 1102h219l82 -686l84 686h192l84 -686l82 686h203l-168 -1102h-221l-80 627zM453 1362v-201h-183v201h183zM684 1362v-201h-182v201h182z" />
    <glyph glyph-name="Ygrave" unicode="&#x1ef2;" horiz-adv-x="626" 
d="M635 1524l-203 -891v-633h-231v635l-209 889h225l107 -570l102 570h209zM420 1583h-189l-90 223h193z" />
    <glyph glyph-name="ygrave" unicode="&#x1ef3;" horiz-adv-x="583" 
d="M170 33l-172 1069h213l86 -674l82 674h209l-221 -1323q-14 -84 -45.5 -124t-90.5 -40h-206v209h94q27 0 35.5 11t13.5 44l6 47q6 44 -4 107zM385 1161h-182l-80 266h186z" />
    <glyph glyph-name="uni2009" unicode="&#x2009;" horiz-adv-x="28" 
 />
    <glyph glyph-name="endash" unicode="&#x2013;" horiz-adv-x="624" 
d="M33 694h559v-159h-559v159z" />
    <glyph glyph-name="emdash" unicode="&#x2014;" horiz-adv-x="948" 
d="M33 694h882v-159h-882v159z" />
    <glyph glyph-name="quoteleft" unicode="&#x2018;" horiz-adv-x="264" 
d="M152 1350h81v-230h-202v168q0 128 45 236h112q-26 -74 -36 -174z" />
    <glyph glyph-name="quoteright" unicode="&#x2019;" horiz-adv-x="264" 
d="M188 1120h-112q28 77 37 174h-82v230h202v-168q0 -128 -45 -236z" />
    <glyph glyph-name="quotesinglbase" unicode="&#x201a;" horiz-adv-x="264" 
d="M113 0h-82v229h202v-168q0 -128 -45 -235h-112q28 77 37 174z" />
    <glyph glyph-name="quotedblleft" unicode="&#x201c;" horiz-adv-x="505" 
d="M76 1524h112q-26 -74 -36 -174h81v-230h-202v168q0 128 45 236zM317 1524h113q-28 -77 -37 -174h82v-230h-203v168q0 128 45 236z" />
    <glyph glyph-name="quotedblright" unicode="&#x201d;" horiz-adv-x="505" 
d="M430 1120h-113q28 77 37 174h-82v230h203v-168q0 -128 -45 -236zM188 1120h-112q28 77 37 174h-82v230h202v-168q0 -128 -45 -236z" />
    <glyph glyph-name="quotedblbase" unicode="&#x201e;" horiz-adv-x="505" 
d="M188 -174h-112q28 77 37 174h-82v229h202v-168q0 -128 -45 -235zM430 -174h-113q28 77 37 174h-82v229h203v-168q0 -128 -45 -235z" />
    <glyph glyph-name="dagger" unicode="&#x2020;" horiz-adv-x="503" 
d="M145 0v1006h-131v217h131v301h215v-301h129v-217h-129v-1006h-215z" />
    <glyph glyph-name="daggerdbl" unicode="&#x2021;" horiz-adv-x="499" 
d="M145 303h-131v217h131v486h-131v217h131v301h211v-301h129v-217h-129v-486h129v-217h-129v-303h-211v303z" />
    <glyph glyph-name="bullet" unicode="&#x2022;" horiz-adv-x="446" 
d="M29 674q0 86 54.5 140t139.5 54t140 -54t55 -140t-55 -140.5t-140 -54.5t-139.5 54.5t-54.5 140.5z" />
    <glyph glyph-name="ellipsis" unicode="&#x2026;" horiz-adv-x="800" 
d="M553 262h215v-262h-215v262zM293 0v262h215v-262h-215zM248 0h-215v262h215v-262z" />
    <glyph glyph-name="perthousand" unicode="&#x2030;" horiz-adv-x="1402" 
d="M29 1040v295q0 96 50.5 148.5t137.5 52.5h39q86 0 135 -53.5t49 -147.5v-295q0 -92 -48.5 -145t-135.5 -53h-39q-85 0 -136.5 51.5t-51.5 146.5zM1192 -8h-39q-87 0 -138.5 51t-51.5 147v295q0 95 51 147t139 52h37q86 0 135 -52.5t49 -146.5v-295q0 -92 -48 -145
t-134 -53zM741 -8h-39q-85 0 -136.5 51.5t-51.5 146.5v295q0 95 50 147t138 52h37q86 0 135.5 -52.5t49.5 -146.5v-295q0 -92 -48 -145t-135 -53zM678 1524h151l-548 -1524h-152zM717 147q41 0 41 48v288q0 47 -41 47q-37 0 -37 -47v-288q0 -48 37 -48zM272 1044v289
q0 47 -39 47q-38 0 -38 -47v-289q0 -47 38 -47q39 0 39 47zM1167 147q39 0 39 48v288q0 47 -39 47q-37 0 -37 -47v-288q0 -48 37 -48z" />
    <glyph glyph-name="uni2032" unicode="&#x2032;" horiz-adv-x="231" 
d="M223 1524l-43 -359h-172l45 359h170z" />
    <glyph glyph-name="uni2033" unicode="&#x2033;" horiz-adv-x="440" 
d="M219 1524l-43 -359h-168l43 359h168zM432 1524l-45 -359h-168l45 359h168z" />
    <glyph glyph-name="guilsinglleft" unicode="&#x2039;" horiz-adv-x="313" 
d="M199 586l96 -334h-176l-90 278v111l90 274h178z" />
    <glyph glyph-name="guilsinglright" unicode="&#x203a;" horiz-adv-x="309" 
d="M109 582l-89 333h175l86 -278v-109l-86 -276h-179z" />
    <glyph glyph-name="fraction" unicode="&#x2044;" horiz-adv-x="675" 
d="M522 1524h150l-516 -1524h-152z" />
    <glyph glyph-name="Euro" unicode="&#x20ac;" horiz-adv-x="780" 
d="M14 602v162h113v59h-113v162h113v248q0 60 15 112t46 97t87.5 70.5t132.5 25.5h53q73 0 126 -19.5t83 -48.5t47.5 -73.5t22.5 -85t5 -92.5v-181h-225v179q0 51 -18.5 75.5t-61.5 24.5t-60.5 -24.5t-17.5 -75.5v-232h271v-162h-271v-59h275v-162h-275v-291q0 -104 78 -104
q80 0 80 102v236h225v-232q0 -68 -13 -123.5t-42.5 -104t-86 -76t-136.5 -27.5h-49q-291 0 -291 323v297h-113z" />
    <glyph glyph-name="published" unicode="&#x2117;" horiz-adv-x="1013" 
d="M518 -23h-20q-457 0 -457 502v570q0 243 118.5 370t340.5 127h24q449 0 449 -497v-570q0 -254 -121.5 -378t-333.5 -124zM502 104h16q307 0 307 402v526q0 82 -14.5 148t-48 121.5t-94.5 86.5t-146 31h-20q-88 0 -150 -27.5t-96 -81t-48.5 -121t-14.5 -157.5v-526
q0 -402 309 -402zM561 668h-78v-422h-184v1036h262q97 0 140.5 -42t43.5 -140v-228q0 -104 -44 -154t-140 -50zM483 1124v-299h31q28 0 37.5 14.5t9.5 51.5v172q0 36 -9 48.5t-38 12.5h-31z" />
    <glyph glyph-name="trademark" unicode="&#x2122;" horiz-adv-x="675" 
d="M297 952v572h145l33 -254l31 254h145v-572h-106v332l-47 -332h-49l-46 332v-332h-106zM270 1524v-119h-63v-453h-131v453h-64v119h258z" />
    <glyph glyph-name="onethird" unicode="&#x2153;" horiz-adv-x="802" 
d="M104 1325h-90v115q33 0 55 6.5t33.5 20.5t16.5 25.5t10 31.5h123v-695h-148v496zM537 1524h149l-516 -1524h-152zM559 459h-137v76q0 89 35.5 130.5t124.5 41.5h24q86 0 123 -38.5t37 -125.5v-58q0 -77 -51 -106q63 -31 63 -100v-132q0 -75 -40.5 -118t-125.5 -43h-28
q-164 0 -164 153v111h143v-100q0 -41 31 -41q16 0 21.5 9.5t5.5 31.5v100q0 24 -6.5 32.5t-26.5 8.5h-68v131h64q21 0 29 8.5t8 32.5v78q0 25 -6.5 35t-24.5 10t-24.5 -10t-6.5 -35v-82z" />
    <glyph glyph-name="twothirds" unicode="&#x2154;" horiz-adv-x="937" 
d="M403 829h-389v78q0 56 28.5 106.5t127.5 174.5q35 40 46 68.5t11 74.5v39q0 41 -30 41q-31 0 -31 -39v-123h-139v127q0 78 34.5 119t120.5 41h31q93 0 131.5 -40.5t38.5 -115.5v-43q0 -72 -24.5 -121t-90.5 -118q-85 -89 -98.5 -107t-13.5 -39h114v115h133v-238z
M672 1524h149l-516 -1524h-151zM694 459h-137v76q0 89 35.5 130.5t124.5 41.5h24q86 0 123 -38.5t37 -125.5v-58q0 -77 -51 -106q63 -31 63 -100v-132q0 -76 -40.5 -118.5t-124.5 -42.5h-29q-164 0 -164 153v111h143v-100q0 -41 31 -41q16 0 21.5 9.5t5.5 31.5v100
q0 24 -6.5 32.5t-26.5 8.5h-68v131h64q21 0 29 8.5t8 32.5v78q0 25 -6.5 35t-24.5 10t-24.5 -10t-6.5 -35v-82z" />
    <glyph glyph-name="oneeighth" unicode="&#x215b;" horiz-adv-x="811" 
d="M104 1325h-90v115q33 0 55 6.5t33.5 20.5t16.5 25.5t10 31.5h123v-695h-148v496zM537 1524h149l-516 -1524h-152zM778 553v-61q0 -88 -53 -125q63 -29 63 -129v-86q0 -76 -43 -121t-133 -45h-16q-176 0 -176 170v82q0 92 63 129q-28 21 -43.5 48.5t-15.5 76.5v61
q0 154 168 154h18q168 0 168 -154zM637 152v106q0 41 -33 41q-31 0 -31 -41v-106q0 -37 31 -37q33 0 33 37zM631 461v86q0 37 -29 37t-29 -37v-86q0 -37 29 -37t29 37z" />
    <glyph glyph-name="threeeighths" unicode="&#x215c;" horiz-adv-x="903" 
d="M631 1524h149l-516 -1524h-151zM164 1288h-137v76q0 89 35 130.5t124 41.5h25q86 0 123 -38.5t37 -125.5v-57q0 -78 -52 -107q64 -31 64 -100v-131q0 -76 -41 -119t-125 -43h-29q-163 0 -163 154v110h143v-100q0 -41 31 -41q16 0 21 9.5t5 31.5v100q0 24 -6 32.5t-26 8.5
h-68v131h63q21 0 29 8.5t8 32.5v78q0 26 -6 35.5t-24 9.5t-24.5 -10t-6.5 -35v-82zM870 553v-61q0 -88 -53 -125q64 -29 64 -129v-86q0 -76 -43 -121t-133 -45h-17q-176 0 -176 170v82q0 92 63 129q-28 21 -43.5 48.5t-15.5 76.5v61q0 154 168 154h18q168 0 168 -154z
M729 152v106q0 41 -33 41q-30 0 -30 -41v-106q0 -37 30 -37q33 0 33 37zM723 461v86q0 37 -29 37q-28 0 -28 -37v-86q0 -37 28 -37q29 0 29 37z" />
    <glyph glyph-name="fiveeighths" unicode="&#x215d;" horiz-adv-x="901" 
d="M629 1524h149l-516 -1524h-151zM174 1116h-141v408h336v-131h-195v-138q44 76 113 76q51 -1 75.5 -32t24.5 -82v-216q0 -186 -166 -186h-31q-89 0 -126 41.5t-37 120.5v82h151v-86q0 -35 27 -35q26 0 26 35v184q0 37 -26 37q-31 0 -31 -37v-41zM868 553v-61
q0 -88 -53 -125q64 -29 64 -129v-86q0 -76 -43.5 -121t-133.5 -45h-16q-176 0 -176 170v82q0 92 63 129q-28 21 -43.5 48.5t-15.5 76.5v61q0 154 168 154h18q168 0 168 -154zM727 152v106q0 41 -33 41q-30 0 -30 -41v-106q0 -37 30 -37q33 0 33 37zM721 461v86q0 37 -29 37
q-28 0 -28 -37v-86q0 -37 28 -37q29 0 29 37z" />
    <glyph glyph-name="seveneighths" unicode="&#x215e;" horiz-adv-x="829" 
d="M23 1524h337v-62q0 -21 -5 -53t-11.5 -62.5t-19 -88t-21.5 -103.5q-13 -57 -19 -113.5t-7 -95t-1 -117.5h-176q3 139 56 304q42 127 58.5 184.5t16.5 89.5h-75v-125h-133v242zM559 1524h150l-516 -1524h-152zM797 553v-61q0 -87 -54 -125q64 -29 64 -129v-86
q0 -76 -43 -121t-133 -45h-17q-176 0 -176 170v82q0 92 64 129q-28 21 -44 48.5t-16 76.5v61q0 154 168 154h19q168 0 168 -154zM655 152v106q0 41 -32 41q-31 0 -31 -41v-106q0 -37 31 -37q32 0 32 37zM649 461v86q0 37 -28 37q-29 0 -29 -37v-86q0 -37 29 -37q28 0 28 37z
" />
    <glyph glyph-name="minus" unicode="&#x2212;" horiz-adv-x="649" 
d="M33 707h583v-175h-583v175z" />
    <glyph glyph-name="E.alt" unicode="&#xe484;" horiz-adv-x="604" 
d="M47 1524h524v-224h-292v-399h276v-229h-276v-441h303v-231h-535v1524z" />
    <glyph glyph-name="F.alt" unicode="&#xe485;" horiz-adv-x="585" 
d="M47 1524h516v-224h-287v-399h273v-227h-273v-674h-229v1524z" />
    <glyph glyph-name="J.alt" unicode="&#xe489;" horiz-adv-x="450" 
d="M20 0v236h111q21 0 28 11.5t7 35.5v1241h240v-1379q0 -78 -34.5 -111.5t-101.5 -33.5h-250z" />
    <glyph glyph-name="a.alt" unicode="&#xe4c0;" horiz-adv-x="606" 
d="M356 125q-74 -131 -178 -131h-6q-65 0 -103 51t-38 121v258q0 84 23 134.5t81 86.5q22 15 61 35t81 39.5t49 23.5q18 11 22 18t4 30v69q0 41 -11.5 56.5t-41.5 15.5h-4q-31 0 -43 -16t-12 -54v-117h-197v156q0 209 231 209h41q76 0 127 -17t76.5 -49t35 -67.5t9.5 -83.5
v-676q0 -161 23 -207v-10h-213q-17 40 -17 125zM352 272v285q-52 -29 -78 -55q-28 -28 -28 -88v-152q0 -72 51 -72q55 0 55 82z" />
    <glyph glyph-name="r.alt" unicode="&#xe4d1;" horiz-adv-x="509" 
d="M256 1102v-146q65 154 170 154h8q31 0 55 -8v-250q-52 18 -102 18h-8q-67 0 -93 -22t-26 -76v-772h-219v1102h215z" />
    <glyph glyph-name="idotaccent" horiz-adv-x="301" 
d="M260 1102v-1102h-219v1102h219zM260 1397v-236h-219v236h219z" />
    <glyph glyph-name="space_uni0326" 
d="M399 -401h-92q25 67 27 133h-78v209h188v-131q0 -111 -45 -211z" />
    <glyph glyph-name="zero.num" horiz-adv-x="436" 
d="M209 1536h18q92 0 136.5 -43.5t44.5 -140.5v-353q0 -184 -181 -184h-22q-84 0 -130 46t-46 138v353q0 96 45.5 140t134.5 44zM217 1405q-35 0 -35 -51v-361q0 -45 33 -45q37 0 37 45v361q0 51 -35 51z" />
    <glyph glyph-name="one.num" horiz-adv-x="288" 
d="M104 1325h-90v115q33 0 55 6.5t33.5 20.5t16.5 25.5t10 31.5h123v-695h-148v496z" />
    <glyph glyph-name="two.num" horiz-adv-x="421" 
d="M403 829h-389v78q0 56 28.5 106.5t127.5 174.5q35 40 46 68.5t11 74.5v39q0 41 -30 41q-31 0 -31 -39v-123h-139v127q0 78 34.5 119t120.5 41h31q93 0 131.5 -40.5t38.5 -115.5v-43q0 -72 -24.5 -121t-90.5 -118q-85 -89 -98.5 -107t-13.5 -39h114v115h133v-238z" />
    <glyph glyph-name="three.num" horiz-adv-x="407" 
d="M164 1288h-137v76q0 89 35 130.5t124 41.5h25q86 0 123 -38.5t37 -125.5v-57q0 -78 -52 -107q64 -31 64 -100v-131q0 -76 -41 -119t-125 -43h-29q-163 0 -163 154v110h143v-100q0 -41 31 -41q16 0 21 9.5t5 31.5v100q0 24 -6 32.5t-26 8.5h-68v131h63q21 0 29 8.5t8 32.5
v78q0 26 -6 35.5t-24 9.5t-24.5 -10t-6.5 -35v-82z" />
    <glyph glyph-name="four.num" horiz-adv-x="411" 
d="M14 958v97q113 272 183 471h141v-441h59v-127h-59v-129h-141v129h-183zM127 1085h70v197q-19 -80 -70 -197z" />
    <glyph glyph-name="five.num" horiz-adv-x="411" 
d="M174 1116h-141v408h336v-131h-195v-138q44 76 113 76q51 -1 75.5 -32t24.5 -82v-216q0 -186 -166 -186h-31q-89 0 -126 41.5t-37 120.5v82h151v-86q0 -35 27 -35q26 0 26 35v184q0 37 -26 37q-31 0 -31 -37v-41z" />
    <glyph glyph-name="six.num" horiz-adv-x="428" 
d="M303 1276q50 -1 74 -33t24 -78v-188q0 -69 -48 -115.5t-132 -46.5h-12q-93 0 -136.5 46.5t-43.5 119.5v393q0 162 172 162h16q96 0 133 -42.5t37 -119.5v-61h-147v57q0 37 -31 37q-27 0 -27 -37v-160q49 66 121 66zM217 944q33 0 33 41v131q0 41 -33 41q-35 0 -35 -41
v-131q0 -41 35 -41z" />
    <glyph glyph-name="seven.num" horiz-adv-x="374" 
d="M23 1524h337v-62q0 -21 -5 -53t-11.5 -62.5t-19 -88t-21.5 -103.5q-13 -57 -19 -113.5t-7 -95t-1 -117.5h-176q3 139 56 304q42 127 58.5 184.5t16.5 89.5h-75v-125h-133v242z" />
    <glyph glyph-name="eight.num" horiz-adv-x="415" 
d="M383 1382v-61q0 -88 -53 -125q63 -29 63 -129v-86q0 -76 -43 -121t-133 -45h-16q-176 0 -176 170v82q0 92 63 129q-28 21 -43.5 48.5t-15.5 76.5v61q0 154 168 154h18q168 0 168 -154zM242 981v106q0 41 -33 41q-31 0 -31 -41v-106q0 -37 31 -37q33 0 33 37zM236 1290v86
q0 37 -29 37t-29 -37v-86q0 -37 29 -37t29 37z" />
    <glyph glyph-name="nine.num" horiz-adv-x="428" 
d="M27 1186v184q0 166 174 166h22q91 0 133.5 -47.5t42.5 -122.5v-387q0 -164 -174 -164h-14q-96 0 -133 41.5t-37 120.5v61h147v-57q0 -20 6.5 -28.5t24.5 -8.5q27 0 27 37v160q-20 -22 -28.5 -30.5t-35 -22t-55.5 -13.5q-51 1 -75.5 32.5t-24.5 78.5zM211 1407
q-33 0 -33 -41v-129q0 -43 33 -43q35 0 35 43v129q0 41 -35 41z" />
    <glyph glyph-name="zero.den" horiz-adv-x="436" 
d="M209 707h18q92 0 136.5 -44t44.5 -141v-352q0 -184 -181 -184h-22q-84 0 -130 46t-46 138v352q0 185 180 185zM217 575q-35 0 -35 -51v-360q0 -45 33 -45q37 0 37 45v360q0 51 -35 51z" />
    <glyph glyph-name="one.den" horiz-adv-x="288" 
d="M104 496h-90v114q33 0 55 6.5t33.5 20.5t16.5 25.5t10 31.5h123v-694h-148v496z" />
    <glyph glyph-name="two.den" horiz-adv-x="421" 
d="M403 0h-389v78q0 56 28.5 105.5t127.5 174.5q35 40 46 69t11 75v39q0 41 -30 41q-31 0 -31 -39v-123h-139v127q0 78 34.5 119t120.5 41h31q93 0 131.5 -40.5t38.5 -115.5v-43q0 -72 -24.5 -121.5t-90.5 -118.5q-86 -90 -99 -107t-13 -38h114v115h133v-238z" />
    <glyph glyph-name="three.den" horiz-adv-x="407" 
d="M164 459h-137v76q0 89 35 130.5t124 41.5h25q86 0 123 -38.5t37 -125.5v-58q0 -77 -52 -106q64 -31 64 -100v-132q0 -75 -40.5 -118t-125.5 -43h-29q-91 0 -127 41.5t-36 111.5v111h143v-100q0 -41 31 -41q16 0 21 9.5t5 31.5v100q0 24 -6 32.5t-26 8.5h-68v131h63
q21 0 29 8.5t8 32.5v78q0 26 -6 35.5t-24 9.5t-24.5 -10t-6.5 -35v-82z" />
    <glyph glyph-name="four.den" horiz-adv-x="411" 
d="M14 129v96q113 272 183 471h141v-440h59v-127h-59v-129h-141v129h-183zM127 256h70v197q-19 -80 -70 -197z" />
    <glyph glyph-name="five.den" horiz-adv-x="411" 
d="M174 287h-141v407h336v-131h-195v-137q44 76 113 76q51 -1 75.5 -32.5t24.5 -82.5v-215q0 -186 -166 -186h-31q-89 0 -126 41t-37 120v82h151v-86q0 -34 27 -34q26 0 26 34v185q0 37 -26 37q-31 0 -31 -37v-41z" />
    <glyph glyph-name="six.den" horiz-adv-x="428" 
d="M303 446q50 -1 74 -32.5t24 -77.5v-189q0 -69 -47.5 -115t-132.5 -46h-12q-93 0 -136.5 46.5t-43.5 119.5v393q0 162 172 162h16q96 0 133 -42.5t37 -119.5v-62h-147v58q0 37 -31 37q-27 0 -27 -37v-160q48 65 121 65zM217 115q33 0 33 41v131q0 41 -33 41q-35 0 -35 -41
v-131q0 -41 35 -41z" />
    <glyph glyph-name="seven.den" horiz-adv-x="374" 
d="M23 696h337v-61q0 -21 -5 -53t-11.5 -62.5t-19 -88t-21.5 -103.5q-13 -57 -19 -113.5t-7 -95t-1 -117.5h-176q1 77 13.5 144t42.5 159q75 225 75 275h-75v-125h-133v241z" />
    <glyph glyph-name="eight.den" horiz-adv-x="415" 
d="M383 553v-61q0 -88 -53 -125q63 -29 63 -129v-86q0 -76 -43 -121t-133 -45h-16q-176 0 -176 170v82q0 92 63 129q-28 21 -43.5 48.5t-15.5 76.5v61q0 154 168 154h18q168 0 168 -154zM242 152v106q0 41 -33 41q-31 0 -31 -41v-106q0 -37 31 -37q33 0 33 37zM236 461v86
q0 37 -29 37t-29 -37v-86q0 -37 29 -37t29 37z" />
    <glyph glyph-name="nine.den" horiz-adv-x="428" 
d="M27 356v185q0 166 174 166h22q91 0 133.5 -47.5t42.5 -122.5v-387q0 -164 -174 -164h-14q-96 0 -133 41t-37 120v62h147v-57q0 -20 6.5 -28.5t24.5 -8.5q27 0 27 37v159q-19 -21 -28.5 -30t-35.5 -22t-55 -13q-51 1 -75.5 32t-24.5 78zM211 578q-33 0 -33 -41v-129
q0 -43 33 -43q35 0 35 43v129q0 41 -35 41z" />
    <glyph glyph-name="zero.sub" horiz-adv-x="436" 
d="M209 444h18q92 0 136.5 -43.5t44.5 -140.5v-352q0 -184 -181 -184h-22q-84 0 -130 46t-46 138v352q0 96 45.5 140t134.5 44zM217 313q-35 0 -35 -51v-360q0 -45 33 -45q37 0 37 45v360q0 51 -35 51z" />
    <glyph glyph-name="one.sub" horiz-adv-x="288" 
d="M104 233h-90v115q33 0 55 6.5t33.5 20.5t16.5 25.5t10 31.5h123v-694h-148v495z" />
    <glyph glyph-name="two.sub" horiz-adv-x="421" 
d="M403 -262h-389v78q0 56 28.5 105.5t127.5 174.5q35 40 46 69t11 75v39q0 40 -30 40q-31 0 -31 -38v-123h-139v127q0 78 34.5 118.5t120.5 40.5h31q93 0 131.5 -40t38.5 -115v-43q0 -72 -24.5 -121.5t-90.5 -118.5q-86 -90 -99 -107t-13 -38h114v114h133v-237z" />
    <glyph glyph-name="three.sub" horiz-adv-x="407" 
d="M164 197h-137v75q0 89 35 130.5t124 41.5h25q86 0 123 -38t37 -125v-58q0 -77 -52 -106q64 -31 64 -101v-131q0 -75 -40.5 -118t-125.5 -43h-29q-91 0 -127 41.5t-36 111.5v111h143v-101q0 -41 31 -41q16 0 21 9.5t5 31.5v101q0 24 -6 32.5t-26 8.5h-68v131h63
q21 0 29 8.5t8 32.5v78q0 26 -6 35.5t-24 9.5t-24.5 -10t-6.5 -35v-82z" />
    <glyph glyph-name="four.sub" horiz-adv-x="411" 
d="M14 -133v96q113 272 183 471h141v-440h59v-127h-59v-129h-141v129h-183zM127 -6h70v196q-7 -30 -31 -95.5t-39 -100.5z" />
    <glyph glyph-name="five.sub" horiz-adv-x="411" 
d="M174 25h-141v407h336v-131h-195v-137q44 76 113 76q51 -1 75.5 -32.5t24.5 -82.5v-215q0 -186 -166 -186h-31q-89 0 -126 41t-37 120v82h151v-86q0 -35 27 -35q26 0 26 35v185q0 36 -26 36q-31 0 -31 -36v-41z" />
    <glyph glyph-name="six.sub" horiz-adv-x="428" 
d="M303 184q50 -1 74 -32.5t24 -77.5v-189q0 -69 -47.5 -115t-132.5 -46h-12q-93 0 -136.5 46t-43.5 119v394q0 161 172 161h16q96 0 133 -42t37 -119v-62h-147v58q0 36 -31 36q-27 0 -27 -36v-160q48 65 121 65zM217 -147q33 0 33 41v131q0 41 -33 41q-35 0 -35 -41v-131
q0 -41 35 -41z" />
    <glyph glyph-name="seven.sub" horiz-adv-x="374" 
d="M23 432h337v-61q0 -21 -5 -53t-11.5 -62.5t-19 -88.5t-21.5 -104q-13 -57 -19 -113t-7 -95t-1 -117h-176q1 77 13.5 144t42.5 159q42 127 58.5 184.5t16.5 89.5h-75v-125h-133v242z" />
    <glyph glyph-name="eight.sub" horiz-adv-x="415" 
d="M383 291v-62q0 -88 -53 -125q63 -29 63 -129v-86q0 -76 -43 -120.5t-133 -44.5h-16q-176 0 -176 170v81q0 92 63 129q-28 21 -43.5 48.5t-15.5 76.5v62q0 153 168 153h18q168 0 168 -153zM242 -111v107q0 41 -33 41q-31 0 -31 -41v-107q0 -36 31 -36q33 0 33 36zM236 199
v86q0 37 -29 37t-29 -37v-86q0 -37 29 -37t29 37z" />
    <glyph glyph-name="nine.sub" horiz-adv-x="428" 
d="M27 94v185q0 165 174 165h22q91 0 133.5 -47.5t42.5 -122.5v-387q0 -163 -174 -163h-14q-96 0 -133 41t-37 120v62h147v-58q0 -20 6.5 -28t24.5 -8q27 0 27 36v160q-19 -21 -28.5 -30t-35.5 -22t-55 -13q-51 1 -75.5 32t-24.5 78zM211 315q-33 0 -33 -41v-129
q0 -43 33 -43q35 0 35 43v129q0 41 -35 41z" />
    <glyph glyph-name="zero.sup" horiz-adv-x="436" 
d="M209 1536h18q92 0 136.5 -43.5t44.5 -140.5v-353q0 -184 -181 -184h-22q-84 0 -130 46t-46 138v353q0 96 45.5 140t134.5 44zM217 1405q-35 0 -35 -51v-361q0 -45 33 -45q37 0 37 45v361q0 51 -35 51z" />
    <glyph glyph-name="one.sup" horiz-adv-x="288" 
d="M104 1325h-90v115q33 0 55 6.5t33.5 20.5t16.5 25.5t10 31.5h123v-695h-148v496z" />
    <glyph glyph-name="two.sup" horiz-adv-x="421" 
d="M403 829h-389v78q0 56 28.5 106.5t127.5 174.5q35 40 46 68.5t11 74.5v39q0 41 -30 41q-31 0 -31 -39v-123h-139v127q0 78 34.5 119t120.5 41h31q93 0 131.5 -40.5t38.5 -115.5v-43q0 -72 -24.5 -121t-90.5 -118q-85 -89 -98.5 -107t-13.5 -39h114v115h133v-238z" />
    <glyph glyph-name="three.sup" horiz-adv-x="407" 
d="M164 1288h-137v76q0 89 35 130.5t124 41.5h25q86 0 123 -38.5t37 -125.5v-57q0 -78 -52 -107q64 -31 64 -100v-131q0 -76 -41 -119t-125 -43h-29q-163 0 -163 154v110h143v-100q0 -41 31 -41q16 0 21 9.5t5 31.5v100q0 24 -6 32.5t-26 8.5h-68v131h63q21 0 29 8.5t8 32.5
v78q0 26 -6 35.5t-24 9.5t-24.5 -10t-6.5 -35v-82z" />
    <glyph glyph-name="four.sup" horiz-adv-x="411" 
d="M14 958v97q113 272 183 471h141v-441h59v-127h-59v-129h-141v129h-183zM127 1085h70v197q-19 -80 -70 -197z" />
    <glyph glyph-name="five.sup" horiz-adv-x="411" 
d="M174 1116h-141v408h336v-131h-195v-138q44 76 113 76q51 -1 75.5 -32t24.5 -82v-216q0 -186 -166 -186h-31q-89 0 -126 41.5t-37 120.5v82h151v-86q0 -35 27 -35q26 0 26 35v184q0 37 -26 37q-31 0 -31 -37v-41z" />
    <glyph glyph-name="six.sup" horiz-adv-x="428" 
d="M303 1276q50 -1 74 -33t24 -78v-188q0 -69 -48 -115.5t-132 -46.5h-12q-93 0 -136.5 46.5t-43.5 119.5v393q0 162 172 162h16q96 0 133 -42.5t37 -119.5v-61h-147v57q0 37 -31 37q-27 0 -27 -37v-160q49 66 121 66zM217 944q33 0 33 41v131q0 41 -33 41q-35 0 -35 -41
v-131q0 -41 35 -41z" />
    <glyph glyph-name="seven.sup" horiz-adv-x="374" 
d="M23 1524h337v-62q0 -21 -5 -53t-11.5 -62.5t-19 -88t-21.5 -103.5q-13 -57 -19 -113.5t-7 -95t-1 -117.5h-176q3 139 56 304q42 127 58.5 184.5t16.5 89.5h-75v-125h-133v242z" />
    <glyph glyph-name="eight.sup" horiz-adv-x="415" 
d="M383 1382v-61q0 -88 -53 -125q63 -29 63 -129v-86q0 -76 -43 -121t-133 -45h-16q-176 0 -176 170v82q0 92 63 129q-28 21 -43.5 48.5t-15.5 76.5v61q0 154 168 154h18q168 0 168 -154zM242 981v106q0 41 -33 41q-31 0 -31 -41v-106q0 -37 31 -37q33 0 33 37zM236 1290v86
q0 37 -29 37t-29 -37v-86q0 -37 29 -37t29 37z" />
    <glyph glyph-name="nine.sup" horiz-adv-x="428" 
d="M27 1186v184q0 166 174 166h22q91 0 133.5 -47.5t42.5 -122.5v-387q0 -164 -174 -164h-14q-96 0 -133 41.5t-37 120.5v61h147v-57q0 -20 6.5 -28.5t24.5 -8.5q27 0 27 37v160q-20 -22 -28.5 -30.5t-35 -22t-55.5 -13.5q-51 1 -75.5 32.5t-24.5 78.5zM211 1407
q-33 0 -33 -41v-129q0 -43 33 -43q35 0 35 43v129q0 41 -35 41z" />
    <glyph glyph-name="IJ.alt" horiz-adv-x="768" 
d="M279 1524v-1524h-232v1524h232zM338 0v236h111q21 0 27.5 11.5t6.5 35.5v1241h240v-1379q0 -78 -34 -111.5t-101 -33.5h-250z" />
    <glyph glyph-name="a.alt2" horiz-adv-x="630" 
d="M373 1102h217v-1102h-217v125q-16 -46 -61 -90.5t-107 -44.5h-4q-72 0 -117 64.5t-45 168.5v672q0 88 37.5 150.5t113.5 62.5h5q21 0 40 -4.5t35 -13.5t28 -17.5t25 -23t19.5 -22.5t17.5 -23.5t13 -18.5v117zM373 291v522q0 98 -60 98q-55 0 -55 -88v-544q0 -89 55 -89
q34 0 47 24.5t13 76.5z" />
    <glyph glyph-name="Eacute.alt" horiz-adv-x="606" 
d="M221 1583l86 223h193l-90 -223h-189zM47 1524h524v-224h-292v-399h276v-229h-276v-441h303v-231h-535v1524z" />
    <glyph glyph-name="Ebreve.alt" horiz-adv-x="604" 
d="M47 1524h524v-224h-292v-399h276v-229h-276v-441h303v-231h-535v1524zM319 1577h-6q-89 0 -145.5 50.5t-56.5 141.5v13h157v-8q0 -56 47 -56h2q23 0 36.5 15t13.5 41v8h155v-13q0 -90 -59.5 -141t-143.5 -51z" />
    <glyph glyph-name="Ecaron.alt" horiz-adv-x="604" 
d="M47 1524h524v-224h-292v-399h276v-229h-276v-441h303v-231h-535v1524zM223 1583l-129 223h166l55 -98l56 98h164l-129 -223h-183z" />
    <glyph glyph-name="Ecircumflex.alt" horiz-adv-x="606" 
d="M406 1806l129 -223h-166l-56 98l-55 -98h-164l129 223h183zM47 1524h524v-224h-292v-399h276v-229h-276v-441h303v-231h-535v1524z" />
    <glyph glyph-name="Edieresis.alt" horiz-adv-x="606" 
d="M287 1786v-203h-185v203h185zM524 1786v-203h-184v203h184zM47 1524h524v-224h-292v-399h276v-229h-276v-441h303v-231h-535v1524z" />
    <glyph glyph-name="Edotaccent.alt" horiz-adv-x="604" 
d="M47 1524h524v-224h-292v-399h276v-229h-276v-441h303v-231h-535v1524zM426 1819v-236h-219v236h219z" />
    <glyph glyph-name="Egrave.alt" horiz-adv-x="606" 
d="M418 1583h-189l-90 223h193zM47 1524h524v-224h-292v-399h276v-229h-276v-441h303v-231h-535v1524z" />
    <glyph glyph-name="Emacron.alt" horiz-adv-x="604" 
d="M47 1524h524v-224h-292v-399h276v-229h-276v-441h303v-231h-535v1524zM137 1597v162h355v-162h-355z" />
    <glyph glyph-name="Eogonek.alt" horiz-adv-x="604" 
d="M250 -254v31q0 53 33.5 104t101.5 119h115q-52 -70 -70 -107.5t-18 -78.5v-9q0 -43 49 -43h39v-147h-103q-65 0 -106 34t-41 97zM47 1524h524v-224h-292v-399h276v-229h-276v-441h303v-231h-535v1524z" />
    <glyph glyph-name="Jcircumflex.alt" horiz-adv-x="450" 
d="M20 0v236h111q21 0 28 11.5t7 35.5v1241h240v-1379q0 -78 -34.5 -111.5t-101.5 -33.5h-250zM375 1806l129 -223h-166l-55 98l-56 -98h-164l130 223h182z" />
    <glyph glyph-name="aacute.alt" horiz-adv-x="606" 
d="M356 125q-74 -131 -178 -131h-6q-65 0 -103 51t-38 121v258q0 84 23 134.5t81 86.5q22 15 61 35t81 39.5t49 23.5q18 11 22 18t4 30v69q0 41 -11.5 56.5t-41.5 15.5h-4q-31 0 -43 -16t-12 -54v-117h-197v156q0 209 231 209h41q76 0 127 -17t76.5 -49t35 -67.5t9.5 -83.5
v-676q0 -161 23 -207v-10h-213q-17 40 -17 125zM352 272v285q-52 -29 -78 -55q-28 -28 -28 -88v-152q0 -72 51 -72q55 0 55 82zM209 1161l78 266h184l-82 -266h-180z" />
    <glyph glyph-name="aacute.alt2" horiz-adv-x="630" 
d="M373 1102h217v-1102h-217v125q-16 -46 -61 -90.5t-107 -44.5h-4q-72 0 -117 64.5t-45 168.5v672q0 88 37.5 150.5t113.5 62.5h5q21 0 40 -4.5t35 -13.5t28 -17.5t25 -23t19.5 -22.5t17.5 -23.5t13 -18.5v117zM373 291v522q0 98 -60 98q-55 0 -55 -88v-544q0 -89 55 -89
q34 0 47 24.5t13 76.5zM221 1161l78 266h184l-82 -266h-180z" />
    <glyph glyph-name="abreve.alt" horiz-adv-x="606" 
d="M356 125q-74 -131 -178 -131h-6q-65 0 -103 51t-38 121v258q0 84 23 134.5t81 86.5q22 15 61 35t81 39.5t49 23.5q18 11 22 18t4 30v69q0 41 -11.5 56.5t-41.5 15.5h-4q-31 0 -43 -16t-12 -54v-117h-197v156q0 209 231 209h41q76 0 127 -17t76.5 -49t35 -67.5t9.5 -83.5
v-676q0 -161 23 -207v-10h-213q-17 40 -17 125zM352 272v285q-52 -29 -78 -55q-28 -28 -28 -88v-152q0 -72 51 -72q55 0 55 82zM299 1157h-6q-96 0 -151.5 53t-55.5 158v8h160v-8q0 -70 49 -70h2q22 0 35.5 17.5t13.5 52.5v8h154v-8q0 -104 -55.5 -157.5t-145.5 -53.5z" />
    <glyph glyph-name="abreve.alt2" horiz-adv-x="630" 
d="M373 1102h217v-1102h-217v125q-16 -46 -61 -90.5t-107 -44.5h-4q-72 0 -117 64.5t-45 168.5v672q0 88 37.5 150.5t113.5 62.5h5q21 0 40 -4.5t35 -13.5t28 -17.5t25 -23t19.5 -22.5t17.5 -23.5t13 -18.5v117zM373 291v522q0 98 -60 98q-55 0 -55 -88v-544q0 -89 55 -89
q34 0 47 24.5t13 76.5zM307 1157h-6q-96 0 -151.5 53t-55.5 158v8h160v-8q0 -70 49 -70h2q22 0 35.5 17.5t13.5 52.5v8h154v-8q0 -104 -55.5 -157.5t-145.5 -53.5z" />
    <glyph glyph-name="acircumflex.alt" horiz-adv-x="606" 
d="M356 125q-74 -131 -178 -131h-6q-65 0 -103 51t-38 121v258q0 84 23 134.5t81 86.5q22 15 61 35t81 39.5t49 23.5q18 11 22 18t4 30v69q0 41 -11.5 56.5t-41.5 15.5h-4q-31 0 -43 -16t-12 -54v-117h-197v156q0 209 231 209h41q76 0 127 -17t76.5 -49t35 -67.5t9.5 -83.5
v-676q0 -161 23 -207v-10h-213q-17 40 -17 125zM352 272v285q-52 -29 -78 -55q-28 -28 -28 -88v-152q0 -72 51 -72q55 0 55 82zM393 1430l117 -269h-162l-51 133l-51 -133h-158l117 269h188z" />
    <glyph glyph-name="acircumflex.alt2" horiz-adv-x="630" 
d="M373 1102h217v-1102h-217v125q-16 -46 -61 -90.5t-107 -44.5h-4q-72 0 -117 64.5t-45 168.5v672q0 88 37.5 150.5t113.5 62.5h5q21 0 40 -4.5t35 -13.5t28 -17.5t25 -23t19.5 -22.5t17.5 -23.5t13 -18.5v117zM373 291v522q0 98 -60 98q-55 0 -55 -88v-544q0 -89 55 -89
q34 0 47 24.5t13 76.5zM406 1430l116 -269h-162l-51 133l-51 -133h-158l117 269h189z" />
    <glyph glyph-name="adieresis.alt" horiz-adv-x="606" 
d="M356 125q-74 -131 -178 -131h-6q-65 0 -103 51t-38 121v258q0 84 23 134.5t81 86.5q22 15 61 35t81 39.5t49 23.5q18 11 22 18t4 30v69q0 41 -11.5 56.5t-41.5 15.5h-4q-31 0 -43 -16t-12 -54v-117h-197v156q0 209 231 209h41q76 0 127 -17t76.5 -49t35 -67.5t9.5 -83.5
v-676q0 -161 23 -207v-10h-213q-17 40 -17 125zM352 272v285q-52 -29 -78 -55q-28 -28 -28 -88v-152q0 -72 51 -72q55 0 55 82zM272 1362v-201h-182v201h182zM504 1362v-201h-182v201h182z" />
    <glyph glyph-name="adieresis.alt2" horiz-adv-x="630" 
d="M373 1102h217v-1102h-217v125q-16 -46 -61 -90.5t-107 -44.5h-4q-72 0 -117 64.5t-45 168.5v672q0 88 37.5 150.5t113.5 62.5h5q21 0 40 -4.5t35 -13.5t28 -17.5t25 -23t19.5 -22.5t17.5 -23.5t13 -18.5v117zM373 291v522q0 98 -60 98q-55 0 -55 -88v-544q0 -89 55 -89
q34 0 47 24.5t13 76.5zM289 1362v-201h-183v201h183zM520 1362v-201h-182v201h182z" />
    <glyph glyph-name="agrave.alt" horiz-adv-x="606" 
d="M356 125q-74 -131 -178 -131h-6q-65 0 -103 51t-38 121v258q0 84 23 134.5t81 86.5q22 15 61 35t81 39.5t49 23.5q18 11 22 18t4 30v69q0 41 -11.5 56.5t-41.5 15.5h-4q-31 0 -43 -16t-12 -54v-117h-197v156q0 209 231 209h41q76 0 127 -17t76.5 -49t35 -67.5t9.5 -83.5
v-676q0 -161 23 -207v-10h-213q-17 40 -17 125zM352 272v285q-52 -29 -78 -55q-28 -28 -28 -88v-152q0 -72 51 -72q55 0 55 82zM387 1161h-182l-80 266h186z" />
    <glyph glyph-name="agrave.alt2" horiz-adv-x="630" 
d="M373 1102h217v-1102h-217v125q-16 -46 -61 -90.5t-107 -44.5h-4q-72 0 -117 64.5t-45 168.5v672q0 88 37.5 150.5t113.5 62.5h5q21 0 40 -4.5t35 -13.5t28 -17.5t25 -23t19.5 -22.5t17.5 -23.5t13 -18.5v117zM373 291v522q0 98 -60 98q-55 0 -55 -88v-544q0 -89 55 -89
q34 0 47 24.5t13 76.5zM399 1161h-182l-80 266h187z" />
    <glyph glyph-name="amacron.alt" horiz-adv-x="606" 
d="M356 125q-74 -131 -178 -131h-6q-65 0 -103 51t-38 121v258q0 84 23 134.5t81 86.5q22 15 61 35t81 39.5t49 23.5q18 11 22 18t4 30v69q0 41 -11.5 56.5t-41.5 15.5h-4q-31 0 -43 -16t-12 -54v-117h-197v156q0 209 231 209h41q76 0 127 -17t76.5 -49t35 -67.5t9.5 -83.5
v-676q0 -161 23 -207v-10h-213q-17 40 -17 125zM352 272v285q-52 -29 -78 -55q-28 -28 -28 -88v-152q0 -72 51 -72q55 0 55 82zM123 1186v157h352v-157h-352z" />
    <glyph glyph-name="amacron.alt2" horiz-adv-x="630" 
d="M373 1102h217v-1102h-217v125q-16 -46 -61 -90.5t-107 -44.5h-4q-72 0 -117 64.5t-45 168.5v672q0 88 37.5 150.5t113.5 62.5h5q21 0 40 -4.5t35 -13.5t28 -17.5t25 -23t19.5 -22.5t17.5 -23.5t13 -18.5v117zM373 291v522q0 98 -60 98q-55 0 -55 -88v-544q0 -89 55 -89
q34 0 47 24.5t13 76.5zM131 1186v157h352v-157h-352z" />
    <glyph glyph-name="aogonek.alt" horiz-adv-x="606" 
d="M356 125q-74 -131 -178 -131h-6q-65 0 -103 51t-38 121v258q0 84 23 134.5t81 86.5q22 15 61 35t81 39.5t49 23.5q18 11 22 18t4 30v69q0 41 -11.5 56.5t-41.5 15.5h-4q-31 0 -43 -16t-12 -54v-117h-197v156q0 209 231 209h41q76 0 127 -17t76.5 -49t35 -67.5t9.5 -83.5
v-676q0 -161 23 -207v-10h-213q-17 40 -17 125zM352 272v285q-52 -29 -78 -55q-28 -28 -28 -88v-152q0 -72 51 -72q55 0 55 82zM336 -254v31q0 53 33.5 104t101.5 119h115q-52 -70 -70 -107.5t-18 -78.5v-9q0 -43 49 -43h39v-147h-103q-65 0 -106 34t-41 97z" />
    <glyph glyph-name="aogonek.alt2" horiz-adv-x="630" 
d="M373 1102h217v-1102h-217v125q-16 -46 -61 -90.5t-107 -44.5h-4q-72 0 -117 64.5t-45 168.5v672q0 88 37.5 150.5t113.5 62.5h5q21 0 40 -4.5t35 -13.5t28 -17.5t25 -23t19.5 -22.5t17.5 -23.5t13 -18.5v117zM373 291v522q0 98 -60 98q-55 0 -55 -88v-544q0 -89 55 -89
q34 0 47 24.5t13 76.5zM340 -254v31q0 53 33.5 104t101.5 119h115q-52 -70 -70 -107.5t-18 -78.5v-9q0 -43 49 -43h39v-147h-103q-65 0 -106 34t-41 97z" />
    <glyph glyph-name="aring.alt" horiz-adv-x="606" 
d="M356 125q-74 -131 -178 -131h-6q-65 0 -103 51t-38 121v258q0 84 23 134.5t81 86.5q22 15 61 35t81 39.5t49 23.5q18 11 22 18t4 30v69q0 41 -11.5 56.5t-41.5 15.5h-4q-31 0 -43 -16t-12 -54v-117h-197v156q0 209 231 209h41q76 0 127 -17t76.5 -49t35 -67.5t9.5 -83.5
v-676q0 -161 23 -207v-10h-213q-17 40 -17 125zM352 272v285q-52 -29 -78 -55q-28 -28 -28 -88v-152q0 -72 51 -72q55 0 55 82zM297 1153q-72 0 -118 47t-46 119q0 68 47.5 115t116.5 47q71 0 116.5 -46.5t45.5 -115.5q0 -72 -45 -119t-117 -47zM297 1249q29 0 46 18.5
t17 49.5q0 30 -17 48.5t-46 18.5t-46.5 -18.5t-17.5 -48.5q0 -31 17.5 -49.5t46.5 -18.5z" />
    <glyph glyph-name="aring.alt2" horiz-adv-x="630" 
d="M373 1102h217v-1102h-217v125q-16 -46 -61 -90.5t-107 -44.5h-4q-72 0 -117 64.5t-45 168.5v672q0 88 37.5 150.5t113.5 62.5h5q21 0 40 -4.5t35 -13.5t28 -17.5t25 -23t19.5 -22.5t17.5 -23.5t13 -18.5v117zM373 291v522q0 98 -60 98q-55 0 -55 -88v-544q0 -89 55 -89
q34 0 47 24.5t13 76.5zM305 1153q-72 0 -118 47t-46 119q0 68 47.5 115t116.5 47q71 0 116.5 -46.5t45.5 -115.5q0 -72 -45 -119t-117 -47zM305 1249q29 0 46.5 18.5t17.5 49.5q0 30 -17.5 48.5t-46.5 18.5t-46 -18.5t-17 -48.5q0 -31 17 -49.5t46 -18.5z" />
    <glyph glyph-name="aringacute.alt" horiz-adv-x="606" 
d="M295 1153q-72 0 -118 47t-46 119q0 68 47.5 115t116.5 47q71 0 116.5 -46.5t45.5 -115.5q0 -72 -45 -119t-117 -47zM295 1249q29 0 46 18.5t17 49.5q0 30 -17 48.5t-46 18.5t-46.5 -18.5t-17.5 -48.5q0 -31 17.5 -49.5t46.5 -18.5zM209 1520l78 266h184l-82 -266h-180z
M356 125q-74 -131 -178 -131h-6q-65 0 -103 51t-38 121v258q0 84 23 134.5t81 86.5q22 15 61 35t81 39.5t49 23.5q18 11 22 18t4 30v69q0 41 -11.5 56.5t-41.5 15.5h-4q-31 0 -43 -16t-12 -54v-117h-197v156q0 209 231 209h41q76 0 127 -17t76.5 -49t35 -67.5t9.5 -83.5
v-676q0 -161 23 -207v-10h-213q-17 40 -17 125zM352 272v285q-52 -29 -78 -55q-28 -28 -28 -88v-152q0 -72 51 -72q55 0 55 82z" />
    <glyph glyph-name="aringacute.alt2" horiz-adv-x="630" 
d="M305 1153q-72 0 -118 47t-46 119q0 68 47.5 115t116.5 47q71 0 116.5 -46.5t45.5 -115.5q0 -72 -45 -119t-117 -47zM305 1249q29 0 46.5 18.5t17.5 49.5q0 30 -17.5 48.5t-46.5 18.5t-46 -18.5t-17 -48.5q0 -31 17 -49.5t46 -18.5zM219 1520l78 266h184l-82 -266h-180z
M373 1102h217v-1102h-217v125q-16 -46 -61 -90.5t-107 -44.5h-4q-72 0 -117 64.5t-45 168.5v672q0 88 37.5 150.5t113.5 62.5h5q21 0 40 -4.5t35 -13.5t28 -17.5t25 -23t19.5 -22.5t17.5 -23.5t13 -18.5v117zM373 291v522q0 98 -60 98q-55 0 -55 -88v-544q0 -89 55 -89
q34 0 47 24.5t13 76.5z" />
    <glyph glyph-name="atilde.alt" horiz-adv-x="606" 
d="M356 125q-74 -131 -178 -131h-6q-65 0 -103 51t-38 121v258q0 84 23 134.5t81 86.5q22 15 61 35t81 39.5t49 23.5q18 11 22 18t4 30v69q0 41 -11.5 56.5t-41.5 15.5h-4q-31 0 -43 -16t-12 -54v-117h-197v156q0 209 231 209h41q76 0 127 -17t76.5 -49t35 -67.5t9.5 -83.5
v-676q0 -161 23 -207v-10h-213q-17 40 -17 125zM352 272v285q-52 -29 -78 -55q-28 -28 -28 -88v-152q0 -72 51 -72q55 0 55 82zM365 1376h131v-94q0 -55 -22.5 -86t-63.5 -31h-2q-45 0 -117 35q-7 3 -15 7t-12 6.5t-9.5 4t-10.5 1.5q-15 0 -15 -19v-39h-131v96q0 115 88 115
h2q46 0 111 -33q39 -22 53 -22q13 0 13 18v41z" />
    <glyph glyph-name="atilde.alt2" horiz-adv-x="630" 
d="M373 1102h217v-1102h-217v125q-16 -46 -61 -90.5t-107 -44.5h-4q-72 0 -117 64.5t-45 168.5v672q0 88 37.5 150.5t113.5 62.5h5q21 0 40 -4.5t35 -13.5t28 -17.5t25 -23t19.5 -22.5t17.5 -23.5t13 -18.5v117zM373 291v522q0 98 -60 98q-55 0 -55 -88v-544q0 -89 55 -89
q34 0 47 24.5t13 76.5zM383 1376h131v-94q0 -55 -22.5 -86t-63.5 -31h-2q-45 0 -117 35q-7 3 -15 7t-12 6.5t-9.5 4t-10.5 1.5q-14 0 -14 -19v-39h-131v96q0 115 88 115h2q45 0 110 -33q39 -22 54 -22q12 0 12 18v41z" />
    <glyph glyph-name="racute.alt" horiz-adv-x="509" 
d="M256 1102v-146q65 154 170 154h8q31 0 55 -8v-250q-52 18 -102 18h-8q-67 0 -93 -22t-26 -76v-772h-219v1102h215zM174 1161l78 266h184l-82 -266h-180z" />
    <glyph glyph-name="rcaron.alt" horiz-adv-x="509" 
d="M256 1102v-146q65 154 170 154h8q31 0 55 -8v-250q-52 18 -102 18h-8q-67 0 -93 -22t-26 -76v-772h-219v1102h215zM172 1161l-117 266h162l51 -131l51 131h158l-117 -266h-188z" />
    <glyph glyph-name="rcommaaccent.alt" horiz-adv-x="509" 
d="M256 1102v-146q65 154 170 154h8q31 0 55 -8v-250q-52 18 -102 18h-8q-67 0 -93 -22t-26 -76v-772h-219v1102h215zM203 -401h-92q24 64 26 133h-78v209h189v-131q0 -111 -45 -211z" />
    <glyph glyph-name="space_uni0326.alt" 
d="M297 1503h100q-26 -81 -26 -135h75v-207h-190v127q0 124 41 215z" />
    <glyph glyph-name="ordfeminine.alt" horiz-adv-x="370" 
d="M342 1403v-340q0 -92 14 -115v-8h-135q-8 24 -8 76q-14 -31 -43 -56.5t-64 -25.5h-2q-40 0 -64 32t-24 78v111q0 53 18 80.5t62 52.5l101 51q14 8 14 25v16q0 37 -29 37h-2q-28 0 -28 -37v-39h-127v62q0 59 28.5 94t112.5 35h24q90 0 121 -33t31 -96zM211 1098v129
q-21 -9 -39 -27t-18 -55v-51q0 -39 26 -39q31 0 31 43z" />
    <glyph glyph-name="ordfeminine.alt2" horiz-adv-x="399" 
d="M229 1524h142v-584h-142v78q-13 -33 -39 -57.5t-63 -24.5h-2q-45 0 -72.5 34t-27.5 93v342q0 54 24.5 88.5t69.5 34.5h4q39 0 66 -22t40 -50v68zM229 1108v254q0 26 -6.5 38.5t-25.5 12.5q-31 0 -31 -45v-266q0 -47 31 -47q32 0 32 53z" />
    <glyph glyph-name="emdash.alt" horiz-adv-x="1830" 
d="M1798 535h-1765v159h1765v-159z" />
    <glyph glyph-name="caron.alt" 
d="M260 1229l14 295h166l-24 -295h-156z" />
    <glyph glyph-name="plus.uc" horiz-adv-x="690" 
d="M252 360v256h-219v175h219v258h186v-258h219v-175h-219v-256h-186z" />
    <glyph glyph-name="minus.uc" horiz-adv-x="649" 
d="M33 791h583v-175h-583v175z" />
    <glyph glyph-name="multiply.uc" horiz-adv-x="616" 
d="M485 397l-180 183l-174 -183l-119 111l178 188l-180 185l123 129l178 -185l174 185l121 -115l-180 -188l180 -187z" />
    <glyph glyph-name="divide.uc" horiz-adv-x="702" 
d="M33 791h637v-175h-637v175zM453 1059v-199h-203v199h203zM453 539v-201h-203v201h203z" />
    <glyph glyph-name="equal.uc" horiz-adv-x="684" 
d="M37 672h610v-156h-610v156zM37 891h610v-156h-610v156z" />
    <glyph glyph-name="less.uc" horiz-adv-x="579" 
d="M20 627v155l533 213v-168l-332 -125l332 -122v-166z" />
    <glyph glyph-name="greater.uc" horiz-adv-x="579" 
d="M27 827v168l532 -213v-155l-532 -213v166l329 125z" />
    <glyph glyph-name="questiondown.uc" horiz-adv-x="624" 
d="M242 1210h186v-245q0 -100 -12 -148t-60 -127l-59 -100q-31 -50 -39 -90t-8 -109v-110q0 -44 12.5 -62t46.5 -18t45 17.5t11 62.5v245h221v-245q0 -70 -10.5 -120t-37 -93t-78 -64.5t-128.5 -21.5h-45q-151 0 -212 71t-61 213v152q0 77 20 137.5t72 136.5l68 94
q44 65 56 109.5t12 136.5v178zM227 1262v262h213v-262h-213z" />
    <glyph glyph-name="exclamdown.uc" horiz-adv-x="311" 
d="M260 1524v-262h-213v262h213zM283 0h-254l88 1210h76z" />
    <glyph glyph-name="hyphen.uc" horiz-adv-x="354" 
d="M33 795h289v-201h-289v201z" />
    <glyph glyph-name="endash.uc" horiz-adv-x="624" 
d="M33 776h559v-160h-559v160z" />
    <glyph glyph-name="emdash.uc" horiz-adv-x="948" 
d="M33 776h882v-160h-882v160z" />
    <glyph glyph-name="guilsinglleft.uc" horiz-adv-x="313" 
d="M199 631l96 -334h-176l-90 278v111l90 275h178z" />
    <glyph glyph-name="guilsinglright.uc" horiz-adv-x="309" 
d="M109 627l-89 334h175l86 -279v-109l-86 -276h-179z" />
    <glyph glyph-name="guillemotleft.uc" horiz-adv-x="509" 
d="M186 631l99 -334h-160l-96 278v111l96 275h160zM406 631l86 -334h-162l-94 334l94 330h164z" />
    <glyph glyph-name="guillemotright.uc" horiz-adv-x="507" 
d="M223 297l103 334l-103 330h164l94 -279v-107l-98 -278h-160zM16 297l88 334l-88 330h162l96 -330l-96 -334h-162z" />
    <glyph glyph-name="parenleft.uc" horiz-adv-x="423" 
d="M63 760v12q0 449 218 899h135q-58 -171 -99 -411.5t-41 -485.5q0 -404 150 -940h-137q-48 106 -80.5 189t-70 204t-56.5 255.5t-19 277.5z" />
    <glyph glyph-name="parenright.uc" horiz-adv-x="423" 
d="M360 772v-12q0 -143 -19 -277.5t-56 -255t-69.5 -204t-80.5 -189.5h-137q149 533 149 940q0 245 -40.5 486t-98.5 411h135q217 -448 217 -899z" />
    <glyph glyph-name="bracketleft.uc" horiz-adv-x="391" 
d="M379 1673v-164h-109v-1486h109v-164h-297v1814h297z" />
    <glyph glyph-name="bracketright.uc" horiz-adv-x="391" 
d="M12 -143v163h111v1487h-111v166h297v-1816h-297z" />
    <glyph glyph-name="braceleft.uc" horiz-adv-x="407" 
d="M332 616q0 -48 -29 -244t-29 -245q0 -109 95 -109h26v-161h-65q-121 0 -186.5 62.5t-65.5 168.5q0 48 32.5 248.5t32.5 273.5q0 70 -55 70h-47v190h43q59 0 59 62q0 71 -32.5 275t-32.5 255q0 103 66.5 157t185.5 54h65v-160h-37q-44 0 -64 -23.5t-20 -59.5
q0 -49 29 -243t29 -237q0 -68 -18.5 -109.5t-71.5 -64.5q55 -21 72.5 -58.5t17.5 -101.5z" />
    <glyph glyph-name="braceright.uc" horiz-adv-x="407" 
d="M74 950q0 43 29.5 237t29.5 243q0 83 -82 83h-39v160h64q119 0 185.5 -54t66.5 -157q0 -51 -31 -255t-31 -275q0 -33 13 -47.5t47 -14.5h41v-190h-50q-51 0 -51 -70q0 -73 31 -273.5t31 -248.5q0 -107 -65 -169t-187 -62h-64v161h25q96 0 96 109q0 49 -29.5 245
t-29.5 244q0 63 18 100.5t74 59.5q-56 23 -74 63.5t-18 110.5z" />
    <glyph glyph-name="slash.uc" horiz-adv-x="428" 
d="M422 1671l-250 -1837h-172l250 1837h172z" />
    <glyph glyph-name="backslash.uc" horiz-adv-x="428" 
d="M256 -166l-250 1837h172l250 -1837h-172z" />
    <glyph glyph-name="bar.uc" horiz-adv-x="350" 
d="M258 1671v-1837h-166v1837h166z" />
    <glyph glyph-name="at.uc" horiz-adv-x="1118" 
d="M893 160l96 -117q-17 -25 -37.5 -50t-59 -57.5t-82 -57t-105.5 -41.5t-130 -17h-14q-56 0 -104 7t-103.5 29t-99 58.5t-85.5 98.5t-70 145t-45 204t-17 269v184q0 774 536 774h25q252 0 367.5 -157t115.5 -478v-184q0 -214 -33 -346.5t-90.5 -187t-144.5 -54.5h-4
q-151 0 -184 127q-43 -68 -81 -97.5t-91 -29.5h-13q-62 0 -106.5 57.5t-40.5 163.5l26 633q5 74 42.5 126t105.5 52h10q80 0 144 -104l4 96h217l-43 -839q0 -13 0.5 -18.5t6.5 -12t19 -6.5q97 0 97 436v190q0 178 -37 285.5t-106.5 153t-180.5 45.5h-25q-183 0 -276.5 -150
t-93.5 -479v-178q0 -127 13.5 -229.5t35 -170t53.5 -117t62.5 -76t68.5 -42t65.5 -19.5t59.5 -4h14q74 0 144 34t110.5 73t63.5 78zM588 422l26 549q2 34 -7 49.5t-34 15.5q-22 0 -30.5 -16t-10.5 -49l-26 -549q-1 -20 0 -32t10 -23t27 -11q42 0 45 66z" />
    <glyph glyph-name="grave.uc" 
d="M489 1583h-188l-90 223h192z" />
    <glyph glyph-name="dieresis.uc" 
d="M324 1786v-203h-185v203h185zM561 1786v-203h-184v203h184z" />
    <glyph glyph-name="macron.uc" 
d="M174 1597v162h354v-162h-354z" />
    <glyph glyph-name="acute.uc" 
d="M211 1583l86 223h192l-90 -223h-188z" />
    <glyph glyph-name="circumflex.uc" 
d="M440 1806l129 -223h-166l-55 98l-55 -98h-164l129 223h182z" />
    <glyph glyph-name="caron.uc" 
d="M258 1583l-129 223h166l55 -98l56 98h163l-129 -223h-182z" />
    <glyph glyph-name="breve.uc" 
d="M354 1577h-6q-89 0 -146 50.5t-57 141.5v13h158v-8q0 -56 47 -56h2q23 0 36 15t13 41v8h156v-13q0 -90 -59.5 -141t-143.5 -51z" />
    <glyph glyph-name="dotaccent.uc" 
d="M459 1819v-236h-219v236h219z" />
    <glyph glyph-name="ring.uc" 
d="M352 1665q29 0 46.5 18.5t17.5 49.5q0 30 -17.5 48.5t-46.5 18.5t-46 -18.5t-17 -48.5q0 -31 17 -49.5t46 -18.5zM514 1735q0 -72 -45 -119t-117 -47t-118 47t-46 119q0 68 47.5 114.5t116.5 46.5q71 0 116.5 -46.5t45.5 -114.5z" />
    <glyph glyph-name="tilde.uc" 
d="M549 1798v-94q0 -55 -22.5 -86t-63.5 -31h-2q-45 0 -117 35q-7 3 -15 7l-12 6t-9.5 3.5t-10.5 1.5q-14 0 -14 -18v-39h-131v96q0 115 88 115h2q45 0 110 -33q39 -22 54 -22q12 0 12 18v41h131z" />
    <glyph glyph-name="hungarumlaut.uc" 
d="M494 1583h-154l59 221h160zM141 1583l52 221h159l-57 -221h-154z" />
    <glyph glyph-name="emdash.altuc" horiz-adv-x="1830" 
d="M1798 618h-1765v160h1765v-160z" />
    <glyph glyph-name="f.short" horiz-adv-x="516" 
d="M498 1524v-203h-90q-28 0 -37 -11t-9 -42v-166h136v-209h-136v-893h-219v893h-131v209h131v280q0 55 36.5 98.5t119.5 43.5h199z" />
    <glyph glyph-name="f_f.short" horiz-adv-x="921" 
d="M504 1524v-203h-96q-28 0 -37 -11t-9 -42v-166h187v280q0 55 36.5 98.5t119.5 43.5h198v-203h-90q-28 0 -36.5 -11t-8.5 -42v-166h135v-209h-135v-893h-219v893h-187v-893h-219v893h-131v209h131v280q0 55 36.5 98.5t119.5 43.5h205z" />
    <glyph glyph-name="j.short" horiz-adv-x="303" 
d="M262 1397v-236h-219v236h219zM-47 -176h47q43 0 43 49v1229h219v-1327q0 -160 -141 -160h-168v209z" />
    </font>
</defs>
</svg>
